<svg xmlns="http://www.w3.org/2000/svg" width="274" height="384" viewBox="0 0 274 384">
<g>
<path d="M 8.43 5.24 C9.31,4.35 14.59,6.98 48.95,25.36 C80.13,42.05 83.84,43.76 101.50,49.70 C111.95,53.21 121.40,55.89 122.50,55.66 C125.76,54.98 263.33,20.99 265.41,20.35 C267.26,19.78 267.30,20.75 266.70,59.63 C266.13,97.33 263.30,180.77 261.00,228.00 L 259.95 249.50 L 260.39 251.04 L 260.55 251.07 L 263.27 260.89 C263.79,262.74 264.20,264.32 264.54,265.78 ZM 159.46 311.90 L 152.41 317.57 L 136.46 317.72 C127.68,317.81 119.15,317.53 117.50,317.11 C110.77,315.38 105.46,311.11 99.93,303.00 C98.62,301.08 94.16,295.86 90.02,291.41 C85.39,286.43 80.48,279.71 77.23,273.91 L 71.95 264.50 L 72.61 248.50 C73.16,234.97 73.01,231.91 71.64,228.65 C70.11,225.02 70.12,224.83 71.76,225.44 C72.72,225.80 75.82,227.49 78.65,229.20 L 83.81 232.30 L 79.94 237.19 C71.79,247.50 73.63,253.16 91.79,273.75 C95.30,277.74 98.62,281.00 99.17,281.00 C99.71,281.00 106.08,278.79 113.33,276.08 C131.58,269.27 136.92,268.33 145.09,270.52 C166.23,276.17 173.80,277.99 176.17,277.99 C178.51,278.00 179.53,276.81 184.11,268.75 C191.48,255.78 197.16,246.83 197.69,247.35 C198.46,248.12 200.93,259.36 200.96,262.26 C201.04,268.33 175.20,299.23 159.46,311.90 ZM 144.50 258.65 C141.75,259.93 138.15,260.98 136.50,260.98 C133.81,260.98 114.62,254.95 113.38,253.72 C113.11,253.44 112.27,248.87 111.53,243.55 L 110.18 233.88 L 114.66 225.46 L 119.14 217.05 L 121.82 218.76 C123.29,219.70 128.21,223.08 132.74,226.28 L 140.98 232.09 L 148.35 231.42 C156.81,230.65 157.49,231.11 157.15,237.45 C156.81,243.72 156.15,244.99 153.18,245.08 C150.63,245.15 150.67,245.21 153.92,246.39 L 157.34 247.62 L 153.42 251.97 C151.26,254.36 147.25,257.36 144.50,258.65 ZM 109.34 297.87 C110.25,299.00 114.92,299.14 135.48,298.65 C149.24,298.33 161.98,297.77 163.80,297.41 C166.59,296.86 167.55,295.85 170.11,290.78 C171.77,287.49 172.92,284.59 172.67,284.34 C172.41,284.08 169.80,283.20 166.85,282.37 C150.27,277.70 136.62,276.83 123.21,279.59 C115.92,281.08 105.31,284.36 104.22,285.44 C103.65,286.02 107.69,295.83 109.34,297.87 ZM 91.25 194.91 C88.81,196.09 84.94,197.31 82.66,197.61 C78.58,198.14 78.41,198.04 74.05,192.51 C70.16,187.58 66.39,184.28 55.96,176.71 L 53.50 174.92 L 56.34 175.34 C58.63,175.68 60.83,174.51 67.65,169.30 C74.97,163.71 76.83,162.77 81.41,162.30 C86.69,161.75 86.70,161.76 87.33,164.88 C87.70,166.74 88.57,168.00 89.47,168.00 C91.25,168.00 91.37,167.09 90.02,163.57 C89.25,161.52 89.35,161.00 90.55,161.00 C92.24,161.00 93.17,163.12 96.40,174.27 C98.62,181.96 98.67,182.02 100.50,180.00 C101.74,178.63 102.68,178.29 103.36,178.96 C105.18,180.78 96.32,192.45 91.25,194.91 ZM 46.73 175.63 L 48.77 178.50 L 45.09 189.50 L 41.41 200.50 L 35.29 200.00 C31.92,199.73 28.97,199.27 28.73,199.00 C28.48,198.73 26.39,194.82 24.07,190.33 L 19.86 182.16 L 24.02 174.58 C26.30,170.42 28.61,166.74 29.14,166.42 C30.81,165.38 44.57,172.58 46.73,175.63 ZM 199.95 185.60 C195.96,189.75 188.00,195.51 188.00,194.23 C188.00,193.75 188.71,190.96 189.58,188.03 C190.58,184.67 190.92,181.37 190.49,179.10 L 189.81 175.50 L 187.96 180.36 C185.03,188.07 182.27,190.19 177.54,188.38 C176.65,188.03 174.97,185.90 173.81,183.63 C171.79,179.67 171.66,179.59 170.70,181.75 C170.15,182.99 169.40,184.00 169.04,184.00 C167.56,184.00 163.92,177.82 164.44,176.19 C165.25,173.63 178.82,162.00 180.99,162.00 C184.46,162.00 186.16,163.10 184.94,164.57 C184.08,165.61 184.56,166.21 187.17,167.30 C189.00,168.07 193.51,170.97 197.19,173.76 C200.87,176.55 204.81,179.12 205.95,179.48 C208.33,180.24 207.75,182.00 205.14,182.00 C204.18,182.00 201.84,183.62 199.95,185.60 ZM 46.00 258.11 C41.88,259.11 38.39,259.93 38.25,259.96 C37.44,260.09 38.37,256.98 41.09,250.43 C42.81,246.30 44.80,243.00 45.56,243.00 C46.31,243.00 48.54,243.77 50.51,244.71 C53.98,246.36 54.08,246.56 53.80,251.36 L 53.50 256.31 ZM 77.99 186.98 C79.74,189.19 81.37,191.00 81.62,191.00 C81.86,191.00 84.25,189.89 86.91,188.54 C91.65,186.14 91.77,185.96 92.46,180.46 C93.17,174.82 92.58,172.06 91.43,175.61 C87.33,188.24 79.30,187.65 76.48,174.51 C75.91,171.84 75.74,171.72 74.81,173.38 C73.10,176.43 74.55,182.65 77.99,186.98 ZM 9.59 221.31 C9.67,221.84 9.74,222.14 9.83,222.17 C10.27,222.35 11.83,227.45 13.29,233.50 C14.76,239.55 17.04,248.21 18.36,252.75 C19.68,257.29 20.44,261.00 20.05,261.00 C19.67,261.00 18.31,259.90 17.05,258.55 C14.69,256.04 13.12,250.29 13.04,243.89 C13.00,240.64 12.76,240.32 10.64,240.73 C9.36,240.97 8.30,242.02 6.68,245.06 C7.95,242.61 8.94,241.00 9.23,241.00 C9.69,241.00 9.85,232.29 9.59,221.31 ZM 232.27 168.93 C231.45,167.52 229.90,165.27 228.81,163.93 L 226.84 161.50 L 227.42 165.69 C227.74,168.00 228.47,171.10 229.03,172.58 C230.04,175.23 230.10,175.25 231.90,173.39 C233.58,171.68 233.61,171.26 232.27,168.93 ZM 83.50 170.82 C86.51,173.19 88.00,172.90 88.00,169.96 C88.00,166.34 78.42,166.22 77.22,169.83 C76.86,170.90 77.15,170.92 78.77,169.91 C80.45,168.86 81.19,169.00 83.50,170.82 ZM 231.71 245.38 C231.32,244.99 231.00,243.59 231.00,242.27 C231.00,240.24 231.43,239.92 233.75,240.18 C235.93,240.43 236.50,241.02 236.50,243.00 C236.50,244.75 235.89,245.59 234.46,245.79 C233.34,245.95 232.10,245.77 231.71,245.38 ZM 18.60 191.02 C18.38,194.06 17.47,198.11 16.59,200.02 L 14.99 203.50 L 15.51 197.71 C15.79,194.53 16.70,190.48 17.52,188.71 L 19.01 185.50 ZM 178.00 173.57 C178.00,171.37 178.44,171.00 181.07,171.00 C183.68,171.00 184.09,171.34 183.82,173.25 C183.59,174.86 182.72,175.59 180.75,175.82 C178.38,176.09 178.00,175.78 178.00,173.57 ZM 7.41 92.23 C8.13,117.78 8.80,158.43 8.99,188.19 C8.81,176.41 8.64,163.23 8.50,151.00 C8.29,131.48 7.85,108.52 7.41,92.23 ZM 7.16 19.89 C6.68,32.09 6.44,49.77 6.61,64.45 C6.43,49.89 6.67,32.14 7.16,19.89 Z" fill="rgba(26,22,22,1)"/>
<path d="M 76.18 370.01 C42.45,362.41 14.77,356.03 14.67,355.84 C14.57,355.65 11.69,349.65 8.28,342.50 L 2.07 329.50 L 1.52 315.00 C1.38,311.32 1.20,306.01 1.00,300.26 L 1.50 306.50 L 1.78 294.26 C1.94,287.53 1.64,280.55 1.12,278.76 C0.64,277.10 0.40,276.46 0.27,277.20 L -0.25 259.99 L 4.01 250.58 C7.39,243.14 8.77,241.09 10.64,240.73 C12.76,240.32 13.00,240.64 13.04,243.89 C13.12,250.29 14.69,256.04 17.05,258.55 C17.09,258.60 17.14,258.65 17.18,258.69 C16.96,258.47 16.73,258.24 16.51,258.01 C13.82,255.20 13.53,255.12 11.82,256.66 C10.82,257.57 10.00,258.83 10.00,259.46 C10.00,260.09 14.50,265.67 20.00,271.85 C25.50,278.04 30.00,283.33 30.00,283.61 C30.00,284.81 23.57,279.88 10.61,268.74 C6.26,265.01 2.49,262.17 2.23,262.44 C1.64,263.03 6.41,272.28 9.35,276.26 C10.53,277.85 15.54,282.60 20.49,286.81 C31.29,295.99 59.74,323.64 61.20,326.37 C62.20,328.24 61.94,328.29 54.42,327.65 C50.12,327.29 41.01,326.07 34.19,324.95 C27.37,323.83 19.42,323.04 16.53,323.20 L 11.29 323.50 L 13.07 328.96 C14.05,331.96 15.59,334.96 16.49,335.61 C18.67,337.21 28.03,338.84 42.00,340.06 C53.46,341.06 59.32,342.28 80.86,348.18 C92.15,351.27 92.28,351.34 99.86,358.43 C104.06,362.35 110.07,367.50 113.20,369.87 C118.30,373.71 118.78,374.38 117.70,376.12 C116.73,377.69 116.79,378.24 118.00,379.02 C120.28,380.46 123.00,380.18 123.00,378.50 C123.00,377.67 123.34,377.01 123.75,377.02 C125.25,377.05 127.50,378.96 127.50,380.21 C127.50,380.92 129.71,382.00 132.50,382.65 C132.79,382.72 133.08,382.78 133.34,382.84 C123.84,380.73 101.66,375.76 76.18,370.01 ZM 161.68 96.07 C152.63,99.46 149.56,99.59 142.00,96.89 C138.98,95.81 123.90,92.69 108.50,89.96 C66.47,82.50 63.63,81.75 55.80,76.00 C49.86,71.64 49.14,70.73 48.54,66.83 C48.17,64.45 47.61,60.99 47.30,59.13 L 46.73 55.77 L 55.11 56.51 C62.50,57.16 64.12,57.69 68.99,60.99 C80.50,68.79 83.58,69.83 98.65,71.03 C106.27,71.63 114.07,72.62 116.00,73.21 C119.40,74.27 139.89,85.45 145.08,89.09 L 147.67 90.90 L 156.08 85.26 C170.63,75.52 188.91,64.63 206.00,55.51 C215.07,50.66 226.32,44.58 231.00,41.99 C241.81,36.01 248.00,32.86 248.00,33.34 C248.00,33.54 241.95,38.29 234.55,43.89 C221.30,53.92 210.28,64.68 211.76,66.16 C212.17,66.57 216.20,67.04 220.71,67.21 L 228.92 67.50 L 223.21 72.31 C213.24,80.71 206.78,83.72 196.24,84.88 C189.59,85.61 184.52,86.92 178.24,89.52 C173.43,91.51 165.98,94.45 161.68,96.07 ZM 46.00 258.11 L 53.50 256.31 L 53.80 251.36 C53.93,249.09 53.98,247.85 53.63,247.00 C53.87,247.28 54.00,247.53 54.00,247.74 C54.00,251.50 69.49,265.85 71.44,263.89 C71.72,263.61 72.25,256.43 72.61,247.94 C72.76,244.35 72.86,241.52 72.90,239.24 C72.86,241.64 72.76,244.65 72.61,248.50 L 71.95 264.50 L 77.23 273.91 C80.48,279.71 85.39,286.43 90.02,291.41 C94.16,295.86 98.62,301.08 99.93,303.00 C105.46,311.11 110.77,315.38 117.50,317.11 C119.15,317.53 127.68,317.81 136.46,317.72 L 151.90 317.57 C151.40,317.92 150.90,318.26 150.40,318.60 C140.62,325.17 134.79,331.15 128.28,341.30 C125.65,345.39 123.05,349.48 122.50,350.40 C121.65,351.83 119.84,350.40 110.50,340.96 C104.45,334.84 96.35,327.44 92.50,324.50 C83.18,317.40 50.82,290.84 43.51,284.29 C37.91,279.28 37.75,279.00 39.22,276.79 C40.27,275.20 42.99,273.88 48.12,272.46 L 55.50 270.41 L 55.19 263.98 C55.02,260.44 54.78,257.44 54.65,257.32 C54.52,257.19 51.74,257.72 48.46,258.51 C44.06,259.56 41.70,260.29 39.91,259.57 C39.91,259.57 39.91,259.57 39.91,259.57 C41.34,259.23 43.56,258.70 46.00,258.11 ZM 230.70 234.48 C231.50,232.29 232.00,230.77 232.00,230.41 C232.00,229.64 231.10,229.00 230.00,229.00 C227.29,229.00 227.43,228.53 231.69,223.34 L 235.37 218.84 L 232.14 207.67 C222.47,174.27 221.71,172.00 220.22,172.00 C219.39,172.00 215.59,172.93 211.76,174.07 C207.94,175.21 204.71,176.00 204.58,175.82 C204.45,175.64 203.34,174.04 202.11,172.25 L 199.86 169.00 L 219.07 169.00 L 196.86 125.50 L 203.02 132.00 C212.11,141.60 225.01,157.59 229.64,165.00 C229.66,165.02 229.67,165.04 229.68,165.06 C229.37,164.65 229.08,164.26 228.81,163.93 L 226.84 161.50 L 227.42 165.69 C227.74,168.00 228.47,171.10 229.03,172.58 C230.04,175.23 230.10,175.25 231.90,173.39 C233.11,172.15 233.47,171.59 233.06,170.50 C236.49,176.04 239.21,180.54 241.40,184.35 C241.19,184.12 241.02,184.00 240.90,184.00 C240.13,184.00 239.64,185.10 236.86,193.00 C234.98,198.34 234.97,198.79 236.66,208.72 C237.65,214.53 238.12,217.20 237.63,219.67 C237.19,221.89 235.97,223.96 233.64,228.00 C233.15,228.84 232.03,231.34 230.70,234.48 ZM 156.21 379.40 C157.22,378.70 158.00,377.53 158.00,376.08 C158.00,373.51 158.68,373.12 170.75,368.79 C190.79,361.59 225.99,352.57 244.40,349.93 C247.75,349.45 254.21,349.33 258.75,349.67 C265.60,350.19 266.81,350.53 265.86,351.67 C264.67,353.10 264.82,353.70 265.84,353.33 C261.14,355.83 251.92,357.71 232.00,361.50 C213.68,365.00 190.47,370.32 170.77,375.56 C165.56,376.95 160.61,378.25 156.21,379.40 ZM 69.99 131.07 C69.29,134.36 68.36,137.27 67.94,137.54 C67.51,137.80 66.65,136.48 66.03,134.59 C64.85,131.01 61.46,129.08 56.10,128.92 C54.55,128.88 57.35,127.52 63.00,125.56 C80.74,119.43 93.46,112.48 100.44,105.11 C102.05,103.40 103.98,102.00 104.73,102.00 C105.48,102.00 109.00,103.67 112.55,105.72 L 119.01 109.43 L 114.26 110.76 C103.71,113.71 86.65,119.20 79.18,122.05 L 71.26 125.08 ZM 114.66 225.46 C117.04,220.97 118.73,217.07 118.42,216.76 C117.49,215.82 134.06,214.76 143.76,215.14 C148.75,215.34 153.16,215.83 153.56,216.23 C155.22,217.88 159.02,233.38 158.02,234.38 C157.68,234.72 157.38,235.56 157.19,236.56 C157.40,231.07 156.40,230.69 148.35,231.42 L 143.00 231.90 L 143.74 231.82 C146.05,231.55 146.79,230.67 148.38,226.22 C149.42,223.32 150.10,220.79 149.89,220.61 C149.67,220.43 147.59,219.99 145.25,219.63 L 141.00 218.98 L 141.00 232.08 L 140.98 232.09 L 132.74 226.28 C128.21,223.08 123.29,219.70 121.82,218.76 L 119.14 217.05 L 114.66 225.46 ZM 48.18 243.72 C47.02,243.28 46.02,243.00 45.56,243.00 C44.80,243.00 42.81,246.30 41.09,250.43 C39.56,254.11 38.60,256.70 38.19,258.24 C36.62,256.36 35.12,252.58 32.22,245.75 C26.72,232.84 23.00,222.29 23.00,219.63 C23.00,218.14 28.27,223.38 36.68,233.25 C41.94,239.42 44.81,242.07 48.18,243.72 ZM 22.86 124.64 C20.51,127.04 18.34,129.00 18.04,129.00 C17.40,129.00 11.03,110.65 11.51,110.16 C12.22,109.44 19.00,113.31 22.97,116.70 L 27.14 120.28 ZM 56.04 87.95 C54.27,90.18 52.44,92.00 51.95,92.00 C50.89,92.00 43.36,81.06 42.04,77.61 C41.12,75.18 41.23,75.20 49.77,79.13 C54.54,81.32 58.63,83.29 58.84,83.51 C59.06,83.73 57.80,85.73 56.04,87.95 ZM 227.00 96.51 C227.00,97.35 225.54,99.62 223.75,101.57 C221.15,104.41 220.25,104.86 219.25,103.86 C217.50,102.09 217.68,100.67 220.07,97.63 C222.36,94.72 227.00,93.97 227.00,96.51 ZM 212.80 92.80 C211.31,94.29 210.94,94.27 208.75,92.61 C206.94,91.23 206.29,86.00 207.93,86.00 C212.66,86.00 215.56,90.04 212.80,92.80 ZM 147.44 381.68 C147.70,381.44 146.99,381.28 145.50,380.99 L 142.50 380.39 L 147.00 378.37 C151.30,376.43 151.51,376.42 151.82,378.17 C152.02,379.33 152.72,379.93 153.57,380.09 C151.33,380.67 149.27,381.21 147.44,381.68 ZM 46.39 98.17 C45.78,99.17 43.59,99.26 42.67,98.33 C42.30,97.97 42.00,96.62 42.00,95.33 C42.00,93.71 42.58,93.00 43.88,93.00 C45.74,93.00 47.43,96.49 46.39,98.17 ZM 255.98 238.82 C256.25,238.97 256.58,239.00 257.00,239.00 C258.83,239.00 259.02,238.26 259.23,230.25 C259.80,209.17 259.90,204.37 260.37,204.33 C260.47,204.33 260.58,204.54 260.72,204.85 C260.58,204.89 260.36,205.47 260.12,206.50 C259.76,208.15 259.73,216.02 260.07,224.00 C260.44,232.82 260.31,238.75 259.73,239.13 C259.21,239.47 257.93,239.53 256.89,239.26 C256.52,239.16 256.22,239.04 255.98,238.82 ZM 85.89 162.13 C86.69,162.26 87.00,162.56 87.00,163.05 C87.00,163.90 87.49,163.71 88.36,162.53 C88.68,162.08 89.11,161.72 89.56,161.48 C89.46,161.86 89.62,162.51 90.02,163.57 C91.37,167.09 91.25,168.00 89.47,168.00 C88.57,168.00 87.70,166.74 87.33,164.88 C86.98,163.17 86.83,162.40 85.89,162.13 ZM 245.43 191.76 C248.17,197.21 249.54,201.12 250.62,205.64 C249.77,202.14 247.56,196.43 245.43,191.76 ZM 91.25 194.91 C93.51,193.81 96.52,190.89 99.00,187.82 C96.35,191.49 94.11,193.52 91.25,194.91 ZM 268.72 351.18 C269.75,349.81 270.79,347.47 271.72,344.41 C271.64,344.69 271.56,344.97 271.49,345.25 C270.77,347.79 270.12,349.65 268.72,351.18 ZM 159.46 311.90 C164.34,307.97 170.19,302.29 175.94,296.14 C169.73,302.92 164.09,308.26 158.19,312.92 ZM 97.59 178.29 C97.27,177.28 96.89,175.96 96.40,174.27 C96.08,173.19 95.79,172.19 95.52,171.26 C96.37,173.81 97.14,176.37 97.59,178.29 ZM 260.88 205.22 C260.92,205.31 260.96,205.41 261.00,205.50 L 261.52 206.72 C261.51,206.80 261.49,206.84 261.48,206.86 C261.22,207.12 260.95,206.47 260.90,205.42 C260.89,205.35 260.89,205.28 260.88,205.22 ZM 266.13 85.56 C266.38,76.01 266.57,67.53 266.68,60.63 C266.99,40.53 267.14,30.31 266.97,25.20 C267.14,30.23 267.00,40.19 266.70,59.63 C266.59,66.66 266.40,75.58 266.13,85.56 ZM 103.49 179.15 C103.46,179.07 103.41,179.01 103.36,178.96 C103.03,178.63 102.63,178.54 102.16,178.71 C103.07,178.19 103.50,178.39 103.49,179.15 ZM 156.97 239.88 C156.88,241.97 156.54,243.30 155.82,244.10 C156.44,243.34 156.77,242.04 156.97,239.88 ZM 136.81 383.61 C137.62,383.76 138.25,383.82 138.86,383.81 C138.52,383.89 138.31,383.92 138.27,383.92 C138.21,383.91 137.71,383.81 136.81,383.61 ZM 100.50 180.00 C99.94,180.62 99.55,181.04 99.21,181.11 C99.53,180.88 99.92,180.54 100.39,180.10 C100.43,180.07 100.46,180.04 100.50,180.00 ZM 67.65 169.30 C72.61,165.51 75.03,163.87 77.52,163.05 C75.04,163.87 72.59,165.53 67.65,169.30 ZM 20.06 261.00 C20.40,260.97 19.79,257.86 18.68,253.86 C19.80,257.88 20.41,261.00 20.07,261.00 C20.06,261.00 20.06,261.00 20.06,261.00 ZM 152.19 245.11 C150.75,245.20 151.20,245.40 153.92,246.39 C151.17,245.39 150.72,245.19 152.19,245.11 ZM 226.37 256.00 C224.46,254.39 223.22,252.96 223.41,252.52 C223.46,252.40 223.51,252.28 223.56,252.16 C223.49,252.34 223.44,252.46 223.41,252.52 C223.22,252.96 224.46,254.39 226.37,256.00 ZM 200.32 264.61 C200.75,263.63 200.97,262.83 200.96,262.26 C200.97,262.83 200.75,263.62 200.32,264.61 ZM 81.53 162.28 C81.55,162.28 81.58,162.28 81.60,162.28 C81.59,162.28 81.57,162.28 81.56,162.28 C81.55,162.28 81.54,162.28 81.53,162.28 Z" fill="rgba(96,37,25,1)"/>
<path d="M 85.70 349.53 C84.34,349.13 82.76,348.70 80.86,348.18 C59.32,342.28 53.46,341.06 42.00,340.06 C28.03,338.84 18.67,337.21 16.49,335.61 C15.59,334.96 14.05,331.96 13.07,328.96 L 11.29 323.50 L 16.53 323.20 C19.42,323.04 27.37,323.83 34.19,324.95 C41.01,326.07 50.12,327.29 54.42,327.65 C61.94,328.29 62.20,328.24 61.20,326.37 C59.74,323.64 31.29,295.99 20.49,286.81 C15.54,282.60 10.53,277.85 9.35,276.26 C6.41,272.28 1.64,263.03 2.23,262.44 C2.49,262.17 6.26,265.01 10.61,268.74 C23.57,279.88 30.00,284.81 30.00,283.61 C30.00,283.33 25.50,278.04 20.00,271.85 C14.50,265.67 10.00,260.09 10.00,259.46 C10.00,258.83 10.82,257.57 11.82,256.66 C13.53,255.12 13.82,255.20 16.51,258.01 C18.08,259.65 19.69,261.00 20.07,261.00 C20.45,261.00 19.68,257.29 18.36,252.75 C17.64,250.28 16.64,246.59 15.64,242.77 C16.12,244.56 16.62,246.37 17.11,248.13 L 21.21 262.75 L 29.44 270.95 L 37.68 279.14 L 39.27 276.72 C40.47,274.87 40.65,273.36 40.01,270.40 C39.55,268.25 38.96,264.92 38.70,263.00 C38.48,261.41 36.60,256.19 34.24,250.52 C36.70,256.27 37.96,258.79 39.91,259.57 C41.70,260.29 44.06,259.56 48.46,258.51 C51.74,257.72 54.52,257.19 54.65,257.32 C54.78,257.44 55.02,260.44 55.19,263.98 L 55.50 270.41 L 48.12 272.46 C42.99,273.88 40.27,275.20 39.22,276.79 C37.75,279.00 37.91,279.28 43.51,284.29 C50.82,290.84 83.18,317.40 92.50,324.50 C96.35,327.44 104.45,334.84 110.50,340.96 C119.84,350.40 121.65,351.83 122.50,350.40 C122.72,350.03 123.29,349.12 124.06,347.91 C123.90,348.21 123.74,348.52 123.58,348.83 L 121.87 352.15 L 109.46 340.08 C100.09,330.96 96.41,328.00 94.46,328.00 C91.61,328.00 91.70,328.36 96.02,334.00 C97.49,335.92 99.55,338.82 100.59,340.44 C102.34,343.17 101.93,343.02 94.99,338.38 C86.64,332.79 75.52,326.00 74.72,326.00 C74.43,326.00 74.82,328.07 75.58,330.61 L 76.97 335.22 L 73.73 334.64 C68.24,333.66 44.38,331.78 42.39,332.17 C38.84,332.87 59.77,342.65 70.78,345.44 C76.50,346.89 81.39,348.22 85.70,349.53 ZM 46.73 175.63 C45.53,173.94 40.76,170.97 36.47,168.84 C36.53,168.87 36.59,168.89 36.64,168.92 C40.26,170.61 43.41,172.00 43.64,172.00 C43.86,172.00 43.96,170.31 43.86,168.25 C43.69,164.89 44.69,153.20 45.51,148.94 C45.68,148.04 46.12,145.10 46.49,142.40 C48.19,129.80 48.26,129.64 52.01,128.67 C73.07,123.28 91.93,114.09 100.44,105.11 C93.46,112.48 80.74,119.43 63.00,125.56 C57.35,127.52 54.55,128.88 56.10,128.92 C61.46,129.08 64.85,131.01 66.03,134.59 C66.65,136.48 67.51,137.80 67.94,137.54 C68.36,137.27 69.29,134.36 69.99,131.07 L 71.26 125.08 L 73.55 124.20 C72.99,124.44 72.59,124.64 72.38,124.78 C71.76,125.17 70.60,128.43 69.79,132.00 C67.98,139.98 68.74,142.76 74.92,150.74 L 79.30 156.40 L 81.30 149.70 C82.40,146.02 83.57,143.00 83.90,143.00 C85.06,143.01 95.54,158.01 98.71,164.22 C102.81,172.21 103.12,176.15 99.17,169.95 C97.61,167.50 95.52,164.83 94.53,164.01 C92.84,162.62 92.77,162.69 93.54,165.01 C93.82,165.84 94.41,167.77 95.10,170.05 C93.55,165.60 91.84,161.49 91.17,161.23 C90.37,160.93 89.10,161.51 88.36,162.53 C87.49,163.71 87.00,163.90 87.00,163.05 C87.00,162.04 85.70,161.85 81.56,162.28 C80.38,162.40 79.39,162.55 78.45,162.78 C78.91,162.60 79.30,162.32 79.50,162.00 C79.84,161.45 81.11,161.00 82.32,161.00 C83.53,161.00 85.12,160.03 85.86,158.85 C87.19,156.72 87.15,156.71 81.50,157.37 C76.69,157.94 75.26,157.71 72.35,155.91 C69.33,154.04 68.69,153.95 67.20,155.20 C60.38,160.90 49.00,171.42 49.00,172.02 C49.00,172.79 53.03,174.57 56.50,175.33 C56.58,175.35 56.66,175.36 56.73,175.38 C56.60,175.37 56.47,175.36 56.34,175.34 L 53.50 174.92 L 55.96 176.71 C66.39,184.28 70.16,187.58 74.05,192.51 C78.41,198.04 78.58,198.14 82.66,197.61 C84.56,197.36 87.57,196.47 89.93,195.50 C84.82,197.97 78.20,198.95 68.75,198.98 L 60.00 199.00 L 60.00 201.84 C60.00,207.69 62.29,221.53 63.37,222.23 C64.13,222.73 64.15,222.97 63.42,222.98 C62.83,222.99 61.37,221.96 60.17,220.69 C58.27,218.66 58.00,217.24 58.00,209.37 C58.00,204.06 57.34,198.13 56.40,194.93 C54.65,188.97 50.14,180.00 48.89,180.00 C48.60,180.00 47.68,182.06 46.56,185.10 L 48.77 178.50 ZM 167.41 344.31 L 164.87 342.10 C162.08,339.69 152.17,327.99 150.65,325.33 C149.93,324.06 153.00,324.68 162.33,327.67 L 167.16 329.21 L 174.23 324.36 C182.41,318.74 196.69,305.43 209.40,291.59 L 218.26 281.93 L 216.49 273.20 C215.24,267.06 214.92,262.76 215.43,258.73 C216.14,253.02 216.16,253.00 219.54,253.00 C222.19,253.00 223.04,252.99 224.92,248.99 C224.41,250.20 223.90,251.39 223.41,252.52 C223.16,253.08 225.28,255.27 228.11,257.39 L 233.26 261.24 L 232.78 273.07 C232.41,282.10 231.87,285.57 230.51,287.70 C227.95,291.70 221.40,297.73 196.50,318.99 C184.40,329.31 172.70,339.43 170.50,341.45 L 167.41 344.31 ZM 268.79 315.13 C267.19,309.07 265.87,304.54 265.63,304.30 C265.33,303.99 260.90,305.80 255.79,308.32 C250.68,310.83 244.76,313.59 242.63,314.44 C240.94,315.12 239.82,315.68 239.62,315.45 C239.28,315.05 241.53,312.45 248.08,304.50 C251.70,300.10 255.80,294.70 257.18,292.50 C260.30,287.52 264.00,277.74 264.00,274.45 C264.00,272.23 263.80,272.11 262.00,273.23 C260.90,273.92 260.00,275.05 260.00,275.74 C260.00,276.43 259.56,277.00 259.01,277.00 C258.47,277.00 256.70,279.64 255.07,282.87 C252.12,288.71 252.08,288.74 247.02,289.22 C242.82,289.63 240.31,290.82 232.71,296.03 C232.52,296.16 232.31,296.30 232.11,296.45 C240.86,290.25 243.27,287.92 245.84,283.66 C249.02,278.36 251.21,270.00 249.41,270.00 C248.94,270.00 245.97,272.56 242.81,275.69 C239.64,278.82 236.72,281.05 236.31,280.64 C235.90,280.23 235.39,276.88 235.18,273.20 C234.82,266.84 234.99,266.23 238.48,261.16 C240.50,258.22 241.93,255.59 241.64,255.31 C241.36,255.03 239.50,255.34 237.50,256.00 C235.50,256.66 233.58,256.92 233.24,256.57 C232.56,255.90 243.92,244.00 245.24,244.00 C245.69,244.00 246.48,245.12 247.00,246.50 C247.52,247.88 248.61,249.00 249.43,249.00 C250.24,249.00 253.07,249.47 255.72,250.03 L 260.55 251.07 L 263.27 260.89 C265.74,269.78 266.00,272.30 266.00,287.40 C266.00,301.64 266.10,304.13 268.79,315.13 ZM 56.04 87.95 C57.80,85.73 59.06,83.73 58.84,83.51 C58.63,83.29 54.54,81.32 49.77,79.13 C41.23,75.20 41.12,75.18 42.04,77.61 C43.36,81.06 50.89,92.00 51.95,92.00 C52.06,92.00 52.24,91.91 52.46,91.75 C52.36,91.85 52.26,91.96 52.15,92.07 L 46.50 97.98 C47.30,96.24 45.67,93.00 43.88,93.00 C42.58,93.00 42.00,93.71 42.00,95.33 C42.00,96.62 42.30,97.97 42.67,98.33 C43.40,99.07 44.93,99.16 45.83,98.68 L 41.49 103.21 L 39.50 92.86 C37.08,80.31 37.02,66.90 39.36,58.05 C40.29,54.51 41.25,51.42 41.48,51.18 C41.72,50.95 44.52,50.15 47.70,49.41 L 53.50 48.06 L 58.00 52.40 C60.49,54.80 63.89,57.49 67.61,60.07 C63.74,57.58 61.76,57.10 55.11,56.51 L 46.73 55.77 L 47.30 59.13 C47.61,60.99 48.17,64.45 48.54,66.83 C49.14,70.73 49.86,71.64 55.80,76.00 C61.03,79.84 64.04,81.45 78.00,84.33 C74.80,83.71 72.65,83.28 72.00,83.11 C70.07,82.61 67.22,81.91 65.66,81.56 C63.40,81.05 62.26,81.63 55.65,88.44 C55.78,88.28 55.91,88.12 56.04,87.95 ZM 157.98 376.42 C157.99,376.27 158.00,376.12 158.00,375.96 C158.00,373.62 157.53,373.08 155.25,372.82 C153.17,372.58 156.28,370.94 168.00,366.12 C186.13,358.66 203.45,352.84 214.00,350.68 C239.56,345.43 259.63,342.07 265.67,342.02 C267.27,342.00 268.01,342.78 268.50,344.99 C269.21,348.25 269.88,349.06 270.76,347.22 C269.79,349.70 268.76,351.43 267.77,352.17 C265.26,354.07 264.11,353.77 265.86,351.67 C266.81,350.53 265.60,350.19 258.75,349.67 C254.21,349.33 247.75,349.45 244.40,349.93 C225.99,352.57 190.79,361.59 170.75,368.79 C158.68,373.12 158.00,373.51 158.00,376.08 C158.00,376.19 157.99,376.31 157.98,376.42 ZM 132.50 382.65 C129.71,382.00 127.50,380.92 127.50,380.21 C127.50,378.96 125.25,377.05 123.75,377.02 C123.34,377.01 123.00,377.67 123.00,378.50 C123.00,379.64 121.75,380.14 120.23,379.89 C121.58,379.97 122.00,378.96 122.00,376.50 C122.00,372.57 121.47,372.27 118.83,374.65 C118.53,374.93 118.27,375.20 118.05,375.47 C118.57,374.15 117.62,373.20 113.20,369.87 C110.07,367.50 104.06,362.35 99.86,358.43 C94.43,353.35 92.82,351.87 88.20,350.31 C101.37,354.52 108.89,358.75 118.61,366.42 C123.07,369.94 128.66,373.80 131.01,375.01 C135.26,377.17 135.38,377.18 142.40,375.47 C146.30,374.52 150.06,373.53 150.75,373.27 C151.61,372.94 152.00,373.91 152.00,376.39 C152.00,378.26 152.26,379.37 152.81,379.80 C152.32,379.49 151.96,378.96 151.82,378.17 C151.51,376.42 151.30,376.43 147.00,378.37 L 142.50 380.39 L 145.50 380.99 C148.41,381.56 148.36,381.61 143.81,382.79 C141.36,383.42 140.17,383.76 138.96,383.81 C137.53,383.86 136.08,383.48 132.50,382.65 ZM 39.55 105.23 C39.69,105.38 37.43,108.17 34.53,111.43 C30.04,116.48 29.17,117.08 28.68,115.43 C26.34,107.50 22.90,93.77 23.18,93.49 C23.44,93.23 38.23,103.84 39.55,105.23 ZM 77.99 186.98 C74.55,182.65 73.10,176.43 74.81,173.38 C75.74,171.72 75.91,171.84 76.48,174.51 C79.30,187.65 87.33,188.24 91.43,175.61 C92.58,172.06 93.17,174.82 92.46,180.46 C91.77,185.96 91.65,186.14 86.91,188.54 C84.25,189.89 81.86,191.00 81.62,191.00 C81.37,191.00 79.74,189.19 77.99,186.98 ZM 256.11 124.41 C246.71,142.11 241.83,143.65 249.36,126.54 C252.91,118.47 254.25,116.42 256.43,115.69 C257.91,115.20 259.43,115.10 259.81,115.47 C260.18,115.85 258.52,119.87 256.11,124.41 ZM 234.42 109.66 C232.88,111.77 231.34,113.84 231.00,114.25 C230.67,114.67 228.92,113.48 227.11,111.61 C225.30,109.75 224.20,108.01 224.66,107.74 C225.12,107.47 228.14,106.93 231.37,106.54 L 237.23 105.83 ZM 228.10 299.26 C216.54,307.47 196.66,322.26 183.15,332.71 C183.27,332.62 183.38,332.53 183.50,332.44 C197.66,321.32 214.46,308.82 228.10,299.26 ZM 179.79 335.33 C179.41,335.62 179.05,335.91 178.68,336.20 L 167.87 344.70 L 167.54 344.42 L 170.50 342.33 C172.16,341.15 175.92,338.32 179.79,335.33 ZM 12.12 228.92 C11.07,225.07 10.15,222.30 9.83,222.17 C9.44,222.01 9.12,215.71 9.05,207.57 C9.12,215.76 9.46,222.00 9.87,222.00 C10.34,222.00 11.24,224.59 11.87,227.75 C11.93,228.08 12.02,228.47 12.12,228.92 ZM 150.40 318.60 C144.39,322.64 138.98,327.45 134.29,332.90 C138.79,327.38 143.66,323.13 150.40,318.60 ZM 99.17 181.14 C98.36,181.71 98.01,181.63 98.01,180.92 C98.02,180.41 97.89,179.59 97.65,178.57 C98.29,180.53 98.67,181.23 99.17,181.14 ZM 271.90 343.83 C272.03,343.33 272.18,342.79 272.32,342.20 L 273.95 335.72 L 274.07 336.17 L 272.04 343.33 C271.99,343.50 271.95,343.66 271.90,343.83 ZM 151.09 99.00 C150.49,99.00 149.53,98.86 148.39,98.62 C150.69,98.94 152.83,98.78 155.47,98.11 C153.42,98.70 151.97,99.00 151.09,99.00 ZM 79.65 67.33 C79.89,67.45 80.13,67.57 80.36,67.68 C77.53,66.48 74.70,64.79 70.97,62.32 C73.87,64.18 76.85,65.91 79.65,67.33 ZM 99.97 186.43 C102.27,183.04 103.45,180.40 103.49,179.17 C103.82,180.07 102.66,182.47 99.99,186.40 C99.99,186.41 99.98,186.42 99.97,186.43 ZM 33.13 247.90 C32.99,247.58 32.85,247.27 32.71,246.95 C30.17,241.15 27.71,234.93 25.91,229.86 C27.50,234.28 29.67,239.76 32.22,245.75 C32.54,246.50 32.84,247.22 33.13,247.90 ZM 153.13 379.96 C153.22,379.99 153.32,380.00 153.42,380.00 C154.42,380.00 155.25,379.87 155.92,379.59 C155.00,380.13 153.95,380.29 153.13,379.96 ZM 103.95 113.80 C107.67,112.66 111.23,111.61 114.26,110.76 L 115.52 110.41 L 106.73 112.98 C105.84,113.24 104.91,113.51 103.95,113.80 ZM 41.41 200.49 L 43.44 194.44 L 41.48 200.50 L 41.41 200.49 ZM 231.60 231.90 C231.88,230.80 231.90,230.10 231.70,229.67 C231.89,229.88 232.00,230.14 232.00,230.41 C232.00,230.60 231.86,231.12 231.60,231.90 ZM 75.10 164.12 C76.26,163.41 77.09,163.00 77.39,163.00 C77.52,163.00 77.65,162.99 77.78,162.97 C76.90,163.24 76.05,163.60 75.10,164.12 ZM 164.56 94.97 C168.82,93.33 174.38,91.11 178.24,89.52 C172.90,91.73 168.35,93.54 164.56,94.97 ZM 81.33 121.25 C84.59,120.07 88.91,118.60 93.55,117.09 C89.22,118.51 84.92,119.98 81.33,121.25 ZM 102.16 178.71 C101.72,178.96 101.16,179.39 100.50,180.00 C100.50,180.00 100.50,180.00 100.50,180.00 C101.13,179.31 101.68,178.87 102.16,178.71 ZM 117.12 378.18 C117.01,377.95 117.00,377.69 117.08,377.39 C117.04,377.67 117.05,377.93 117.12,378.18 ZM 29.13 166.42 C28.64,166.74 26.74,169.73 24.71,173.33 C26.75,169.71 28.65,166.71 29.12,166.43 C29.12,166.42 29.12,166.42 29.13,166.42 ZM 27.22 222.73 C29.54,225.08 32.75,228.64 36.68,233.25 C32.78,228.68 29.56,225.10 27.22,222.73 ZM 125.94 93.24 C128.41,93.73 130.71,94.21 132.76,94.65 C130.70,94.21 128.41,93.74 125.94,93.24 ZM 23.14 220.83 C23.05,220.35 23.00,219.98 23.00,219.71 C23.00,219.70 23.00,219.69 23.00,219.68 C23.01,219.98 23.05,220.36 23.14,220.83 Z" fill="rgba(169,77,21,1)"/>
<path d="M 63.37 222.23 C63.37,222.23 63.37,222.23 63.37,222.23 L 68.01 223.93 C68.94,224.26 69.97,224.70 71.06,225.21 C70.16,224.99 70.37,225.63 71.64,228.65 C73.01,231.90 73.16,234.91 72.61,247.94 C72.25,256.43 71.72,263.61 71.44,263.89 C69.49,265.85 54.00,251.50 54.00,247.74 C54.00,246.90 51.82,245.31 49.07,244.13 C45.29,242.50 42.39,239.95 36.68,233.25 C28.13,223.22 23.00,218.14 23.00,219.71 C23.00,222.37 27.67,235.46 32.71,246.95 C35.74,253.85 38.44,261.08 38.70,263.00 C38.96,264.92 39.55,268.25 40.01,270.40 C40.65,273.36 40.47,274.87 39.27,276.72 L 37.68 279.14 L 29.44 270.95 L 21.21 262.75 L 17.11 248.13 C14.86,240.08 12.50,230.91 11.87,227.75 C11.24,224.59 10.34,222.00 9.87,222.00 C9.86,222.00 9.85,221.99 9.84,221.98 C12.65,221.88 13.38,219.40 14.63,206.10 C14.85,203.69 15.08,201.54 15.34,199.56 L 14.99 203.50 L 16.59 200.02 C17.47,198.11 18.38,194.06 18.60,191.02 L 19.01 185.50 L 17.82 188.07 C18.42,186.25 19.15,184.43 20.03,182.50 L 24.07 190.33 C26.39,194.82 28.48,198.73 28.73,199.00 C28.97,199.27 31.94,199.73 35.32,200.00 L 41.48 200.50 L 44.79 190.25 C46.61,184.61 48.46,180.00 48.89,180.00 C50.14,180.00 54.65,188.97 56.40,194.93 C57.34,198.13 58.00,204.06 58.00,209.37 C58.00,217.24 58.27,218.66 60.17,220.69 C61.37,221.96 62.83,222.99 63.42,222.98 C64.15,222.97 64.13,222.73 63.37,222.23 ZM 174.31 319.58 C176.15,321.17 177.22,321.65 178.36,321.29 C176.86,322.47 175.47,323.50 174.23,324.36 L 167.16 329.21 L 162.33 327.67 C153.00,324.68 149.93,324.06 150.65,325.33 C152.17,327.99 162.08,339.69 164.87,342.10 L 167.87 344.70 L 178.68 336.20 C188.73,328.30 204.63,316.33 217.36,307.02 C213.13,310.16 208.22,313.83 202.50,318.15 C173.60,339.94 166.12,345.84 151.69,358.25 C144.81,364.16 138.87,369.00 138.50,369.00 C138.12,369.00 130.16,361.13 120.81,351.50 C117.78,348.39 115.11,345.66 112.76,343.29 L 121.87 352.15 L 123.58 348.83 C129.88,336.57 139.07,326.22 150.40,318.60 C160.96,311.50 169.81,303.37 180.85,290.63 C193.82,275.66 201.01,265.52 200.96,262.26 C200.95,261.30 200.67,259.43 200.28,257.33 L 201.61 263.41 L 206.49 256.45 C218.65,239.16 223.23,233.03 228.91,226.50 C232.25,222.65 234.99,219.02 235.00,218.43 C235.00,217.35 227.79,192.47 223.86,179.61 C225.49,184.77 228.00,193.36 232.14,207.67 L 235.37 218.84 L 231.69 223.34 C227.43,228.53 227.29,229.00 230.00,229.00 C232.73,229.00 232.55,230.39 228.48,240.47 C223.44,252.98 223.43,253.00 219.54,253.00 C216.16,253.00 216.14,253.02 215.43,258.73 C214.92,262.76 215.24,267.06 216.49,273.20 L 216.51 273.30 C215.85,270.48 215.01,267.58 214.42,266.15 L 213.02 262.81 L 206.77 268.03 C203.34,270.90 198.27,274.52 195.51,276.08 C190.60,278.86 190.32,279.28 181.00,298.03 L 171.50 317.15 ZM 144.50 258.65 C147.25,257.36 151.26,254.36 153.42,251.97 L 154.83 250.40 L 154.01 251.34 C152.21,253.39 150.91,255.16 151.12,255.28 C151.33,255.40 153.66,256.58 156.29,257.91 C161.55,260.56 170.99,270.10 173.13,274.94 C173.99,276.88 175.06,277.88 176.41,277.99 C176.33,277.99 176.25,277.99 176.17,277.99 C173.80,277.99 166.23,276.17 145.09,270.52 C136.92,268.33 131.58,269.27 113.33,276.08 C106.08,278.79 99.71,281.00 99.17,281.00 C98.62,281.00 95.30,277.74 91.79,273.75 C73.63,253.16 71.79,247.50 79.94,237.19 L 83.59 232.58 C87.01,234.94 90.04,237.36 91.91,239.33 C93.78,241.31 95.73,242.67 96.23,242.36 C96.74,242.05 96.26,243.53 95.18,245.65 C94.10,247.77 92.52,251.87 91.66,254.76 C90.11,260.01 90.11,260.01 92.30,259.56 C93.51,259.31 96.64,258.83 99.25,258.49 C101.43,258.21 102.72,258.07 103.37,257.35 C104.31,256.29 103.89,254.02 102.89,248.29 L 101.78 241.92 L 106.80 236.62 C109.15,234.14 112.31,229.48 114.76,225.28 C114.70,225.39 114.64,225.50 114.59,225.60 L 110.18 233.88 L 111.53 243.55 C112.27,248.87 113.11,253.44 113.38,253.72 C114.62,254.95 133.81,260.98 136.50,260.98 C138.15,260.98 141.75,259.93 144.50,258.65 ZM 109.34 297.87 C107.69,295.83 103.65,286.02 104.22,285.44 C105.31,284.36 115.92,281.08 123.21,279.59 C136.62,276.83 150.27,277.70 166.85,282.37 C168.03,282.70 169.15,283.04 170.09,283.34 C163.96,281.58 150.10,279.77 148.67,281.04 C148.21,281.44 148.84,283.32 150.08,285.21 C151.84,287.88 153.91,289.22 159.42,291.25 C163.31,292.68 166.95,293.74 167.50,293.60 C168.04,293.46 169.65,291.21 170.98,288.99 C170.71,289.57 170.42,290.17 170.11,290.78 C167.55,295.85 166.59,296.86 163.80,297.41 C161.98,297.77 149.24,298.33 135.48,298.65 C114.92,299.14 110.25,299.00 109.34,297.87 ZM 9.09 210.53 C9.05,208.58 9.04,206.46 9.04,204.25 C9.07,169.54 7.96,103.12 6.94,78.00 C6.67,71.50 6.55,63.17 6.55,54.49 C6.74,54.81 6.99,54.83 7.31,54.71 C10.90,53.33 12.67,86.61 9.67,99.13 C7.97,106.24 8.04,115.41 9.90,130.00 C10.50,134.68 11.05,146.38 11.12,156.00 C11.20,165.62 11.54,176.88 11.88,181.00 C12.34,186.51 12.05,190.36 10.77,195.50 C9.94,198.85 9.34,205.00 9.09,210.53 ZM 50.30 129.20 C48.18,130.11 47.88,132.09 46.49,142.40 C46.12,145.10 45.68,148.04 45.51,148.94 C44.69,153.20 43.69,164.89 43.86,168.25 C43.96,170.31 43.86,172.00 43.64,172.00 C43.41,172.00 40.26,170.61 36.64,168.92 C33.03,167.23 29.64,166.10 29.12,166.43 C28.91,166.55 28.42,167.22 27.75,168.24 C27.80,168.16 27.85,168.08 27.90,168.00 C33.66,158.18 40.04,145.82 45.03,134.77 C46.68,131.10 47.54,130.08 50.30,129.20 ZM 58.48 232.11 C62.88,234.17 66.61,235.73 66.78,235.56 C67.71,234.62 61.21,221.57 59.04,220.04 C55.77,217.73 42.00,211.87 42.01,212.79 C42.01,213.18 42.48,215.20 43.06,217.28 C44.71,223.22 49.61,227.93 58.48,232.11 ZM 254.28 221.89 C254.22,221.71 254.15,221.59 254.07,221.55 C253.57,221.23 252.45,223.37 251.60,226.31 C249.01,235.23 246.94,239.52 245.99,237.99 C244.60,235.74 246.03,227.95 249.26,220.10 L 252.25 212.84 C252.74,214.84 253.21,216.71 253.56,218.07 C253.82,219.08 254.07,220.41 254.28,221.89 ZM 141.00 218.98 L 145.25 219.63 C147.59,219.99 149.67,220.43 149.89,220.61 C150.10,220.79 149.42,223.32 148.38,226.22 C146.79,230.67 146.05,231.55 143.74,231.82 L 141.00 232.13 L 141.00 218.98 ZM 99.44 187.19 C99.63,186.93 99.81,186.67 99.99,186.40 C102.91,182.09 104.03,179.63 103.36,178.96 C102.68,178.29 101.74,178.63 100.50,180.00 C98.67,182.03 98.62,181.97 96.51,174.77 C95.33,170.77 94.00,166.38 93.54,165.01 C92.77,162.69 92.84,162.62 94.53,164.01 C95.52,164.83 97.61,167.50 99.17,169.95 C102.83,175.70 102.83,172.74 99.56,165.91 C99.95,166.69 100.29,167.39 100.54,168.00 C101.59,170.48 102.84,172.78 103.33,173.13 C103.82,173.47 103.92,174.67 103.57,175.79 C103.21,176.91 103.39,178.12 103.97,178.48 C104.61,178.87 103.16,181.83 100.29,185.99 C100.01,186.41 99.73,186.80 99.44,187.19 ZM 152.00 376.39 C152.00,373.91 151.61,372.94 150.75,373.27 C150.10,373.51 146.79,374.39 143.18,375.28 C148.92,373.56 156.90,370.67 165.00,367.30 C169.55,365.41 174.20,363.57 178.79,361.83 C175.26,363.18 171.65,364.62 168.00,366.12 C156.28,370.94 153.17,372.58 155.25,372.82 C157.53,373.08 158.00,373.62 158.00,375.96 C158.00,378.70 156.53,380.00 153.42,380.00 C152.46,380.00 152.00,378.84 152.00,376.39 ZM 262.78 185.52 C262.51,192.38 262.23,199.07 261.95,205.50 L 261.86 207.50 L 261.00 205.50 C260.73,204.86 260.53,204.32 260.37,204.33 C260.04,204.36 259.90,206.67 259.65,215.06 C259.74,211.54 259.85,203.96 259.90,197.78 C259.99,187.80 260.22,186.15 261.50,186.64 C262.18,186.90 262.57,186.69 262.78,185.52 ZM 266.15 84.95 C265.47,111.46 264.32,146.37 263.05,178.67 C263.15,173.61 263.54,162.46 263.99,152.05 C264.50,140.26 264.54,130.13 264.08,129.55 C263.25,128.52 263.96,112.81 265.95,88.00 C266.02,87.15 266.09,86.12 266.15,84.95 ZM 0.75 297.10 C0.34,291.92 0.04,284.95 0.09,281.60 C0.17,276.08 0.27,275.81 1.12,278.76 C1.64,280.55 1.94,287.53 1.78,294.26 L 1.50 306.50 ZM 118.25 379.34 C116.46,378.61 116.71,376.57 118.83,374.65 C121.47,372.27 122.00,372.57 122.00,376.50 C122.00,379.91 121.19,380.52 118.25,379.34 ZM 192.36 254.74 C190.48,257.78 188.20,261.61 185.67,266.01 C185.16,266.90 184.64,267.81 184.11,268.75 C181.05,274.13 179.37,276.62 178.01,277.55 ZM 6.88 28.47 C7.21,15.71 7.77,5.90 8.43,5.24 C8.54,5.13 8.72,5.07 9.02,5.10 C8.20,5.92 7.60,12.22 6.88,28.47 ZM 230.70 29.01 C250.24,24.16 264.74,20.55 265.41,20.35 C266.87,19.90 267.20,20.39 266.98,39.88 C266.96,21.29 266.71,19.95 265.25,20.40 C264.62,20.59 250.80,24.03 230.70,29.01 ZM 233.31 295.62 C240.44,290.76 242.94,289.62 247.02,289.22 C243.79,289.53 240.51,290.83 233.31,295.62 ZM 77.62 119.79 C70.58,122.97 62.62,125.81 54.26,128.08 C63.01,125.58 70.84,122.80 77.62,119.79 ZM 96.06 334.06 C96.04,334.04 96.03,334.02 96.02,334.00 C91.70,328.36 91.61,328.00 94.46,328.00 C95.07,328.00 95.84,328.28 96.89,328.95 C95.64,328.25 94.74,328.06 93.95,328.18 C92.04,328.47 92.20,328.93 96.02,334.00 C96.03,334.02 96.04,334.04 96.06,334.06 ZM 122.66 55.63 C124.25,55.26 134.29,52.81 148.36,49.34 C133.62,52.99 123.96,55.40 123.31,55.58 C123.16,55.62 122.94,55.64 122.66,55.63 ZM 210.92 174.32 C211.19,174.24 211.48,174.16 211.76,174.07 C215.59,172.93 219.39,172.00 220.22,172.00 C220.33,172.00 220.44,172.01 220.54,172.05 C219.30,172.18 216.88,172.70 214.22,173.42 C213.09,173.73 211.96,174.04 210.92,174.32 ZM 61.03 212.40 C60.44,208.53 60.00,204.41 60.00,201.84 L 60.00 201.68 C60.00,203.09 60.46,207.81 61.03,212.40 ZM 209.39 291.59 C204.06,297.40 198.45,303.11 193.14,308.20 C198.77,302.71 204.91,296.47 209.39,291.59 ZM 82.13 42.39 C88.30,45.16 93.45,46.99 101.50,49.70 C104.95,50.85 108.29,51.92 111.25,52.83 C108.63,52.03 105.63,51.08 102.31,49.98 C93.83,47.17 88.57,45.31 82.13,42.39 ZM 136.30 215.09 C132.30,215.16 128.15,215.36 124.85,215.62 C125.31,215.57 125.79,215.53 126.27,215.49 C129.18,215.25 132.73,215.12 136.30,215.09 ZM 153.56 216.23 C153.23,215.89 150.13,215.50 146.23,215.27 C150.20,215.46 153.13,215.79 153.56,216.23 ZM 83.79 143.08 C83.50,143.40 82.94,144.74 82.30,146.59 C82.94,144.64 83.44,143.25 83.58,143.11 C83.62,143.06 83.70,143.05 83.79,143.08 ZM 68.75 198.98 C77.73,198.95 84.15,198.06 89.15,195.86 C84.17,198.09 77.80,198.95 68.75,198.98 ZM 201.50 171.37 L 202.11 172.25 C202.52,172.85 202.92,173.42 203.27,173.93 C202.92,173.52 202.58,173.05 202.24,172.53 L 201.50 171.37 ZM 80.86 151.19 L 79.30 156.40 L 79.28 156.37 L 80.86 151.19 ZM 100.32 340.02 C99.48,338.76 98.22,336.97 97.06,335.40 C98.61,337.48 99.70,339.00 100.32,340.02 ZM 225.19 348.43 C221.61,349.13 217.87,349.88 214.00,350.68 C212.71,350.94 211.31,351.26 209.83,351.63 C211.35,351.25 212.75,350.92 214.00,350.67 C217.89,349.87 221.63,349.13 225.19,348.43 ZM 265.67 342.02 C262.44,342.05 255.21,343.02 245.27,344.72 C255.29,343.00 262.42,342.05 265.67,342.02 ZM 205.75 175.68 C206.04,175.62 206.39,175.54 206.77,175.44 C206.42,175.54 206.16,175.61 206.00,175.65 C205.92,175.67 205.84,175.68 205.75,175.68 ZM 217.91 280.23 L 218.26 281.93 L 218.25 281.94 L 217.91 280.23 ZM 172.19 284.09 C172.45,284.20 172.61,284.28 172.67,284.34 C172.68,284.35 172.69,284.36 172.69,284.38 C172.56,284.28 172.39,284.19 172.19,284.09 ZM 118.41 216.62 C118.37,216.67 118.38,216.71 118.42,216.76 C118.44,216.78 118.45,216.80 118.46,216.84 C118.44,216.79 118.41,216.75 118.38,216.71 C118.35,216.69 118.36,216.65 118.41,216.62 ZM 197.81 247.54 C197.77,247.47 197.74,247.42 197.71,247.38 C197.72,247.38 197.72,247.39 197.72,247.39 C197.75,247.41 197.78,247.46 197.81,247.54 Z" fill="rgba(165,159,155,1)"/>
<path d="M 118.82 109.44 C125.09,113.21 131.33,117.25 132.50,118.56 C134.56,120.87 136.36,121.23 152.75,122.61 C156.74,122.94 160.00,123.40 160.00,123.62 C160.00,124.65 148.51,142.44 144.88,147.03 C142.64,149.86 139.22,153.12 137.26,154.27 L 133.72 156.37 L 134.37 167.84 C134.73,174.15 135.28,180.93 135.58,182.91 C136.11,186.33 135.90,186.64 131.32,189.46 C120.87,195.88 110.92,206.21 98.74,223.29 L 92.93 231.42 L 96.47 233.23 C98.41,234.23 100.00,235.27 100.00,235.55 C100.00,235.82 98.48,239.08 96.61,242.78 C94.75,246.48 92.52,251.87 91.66,254.76 C90.89,257.38 90.50,258.69 90.58,259.30 C90.50,258.69 90.88,257.38 91.66,254.76 C92.52,251.87 94.10,247.77 95.18,245.65 C96.26,243.53 96.74,242.05 96.23,242.36 C95.73,242.67 93.78,241.31 91.91,239.33 C87.18,234.34 74.93,226.45 68.01,223.93 L 62.24 221.82 L 61.12 213.09 C60.50,208.29 60.00,203.16 60.00,201.68 L 60.00 199.00 L 68.75 198.98 C86.01,198.93 93.52,195.84 100.29,185.99 C103.00,182.07 104.43,179.22 104.06,178.57 C104.48,178.68 105.05,178.29 105.67,177.43 C109.56,172.11 110.77,154.02 107.62,148.13 C105.38,143.94 99.01,135.00 98.25,135.00 C96.78,135.00 85.00,142.23 85.00,143.13 C85.00,143.49 85.62,144.57 86.54,145.90 C84.99,143.94 83.86,142.81 83.58,143.11 C83.37,143.32 82.32,146.40 81.24,149.93 L 79.28 156.37 L 74.90 150.72 C68.74,142.76 67.98,139.98 69.79,132.00 C70.60,128.43 71.76,125.17 72.38,124.78 C74.48,123.42 94.46,116.56 106.73,112.98 L 118.82 109.44 ZM 130.60 374.85 C128.45,373.72 123.05,369.92 118.60,366.40 C105.28,355.89 96.06,351.85 70.78,345.44 C59.77,342.65 38.84,332.87 42.39,332.17 C44.38,331.78 68.24,333.66 73.73,334.64 L 76.97 335.22 L 75.58 330.61 C74.82,328.07 74.43,326.00 74.72,326.00 C75.51,326.00 86.61,332.77 94.83,338.27 C102.66,343.51 102.80,343.01 96.02,334.00 C92.20,328.93 92.04,328.47 93.95,328.18 C96.95,327.71 101.62,331.77 120.81,351.50 C130.16,361.13 138.12,369.00 138.50,369.00 C138.87,369.00 144.81,364.16 151.69,358.25 C162.19,349.22 169.01,343.63 183.09,332.86 C175.94,338.51 171.00,342.60 171.00,342.94 C171.00,344.18 180.50,348.22 186.50,349.53 C189.80,350.25 193.18,350.87 194.00,350.90 C196.12,350.99 207.92,348.44 218.50,345.60 C227.36,343.22 250.28,337.20 258.92,334.97 L 263.35 333.83 L 256.42 329.78 C252.62,327.56 247.68,324.71 245.47,323.46 L 241.43 321.18 L 232.47 325.91 C227.53,328.52 219.63,332.75 214.90,335.33 C205.92,340.21 195.00,344.47 195.00,343.09 C195.00,341.71 212.10,325.83 220.93,319.00 C236.16,307.23 240.98,302.96 245.02,297.70 C247.22,294.84 249.49,291.93 250.06,291.24 C251.06,290.03 250.12,289.24 248.05,289.12 C252.10,288.70 252.33,288.28 255.07,282.87 C256.70,279.64 258.47,277.00 259.01,277.00 C259.56,277.00 260.00,276.43 260.00,275.74 C260.00,275.05 260.90,273.92 262.00,273.23 C263.80,272.11 264.00,272.23 264.00,274.45 C264.00,277.74 260.30,287.52 257.18,292.50 C255.80,294.70 251.70,300.10 248.08,304.50 C241.53,312.45 239.28,315.05 239.62,315.45 C239.82,315.68 240.94,315.12 242.63,314.44 C244.76,313.59 250.68,310.83 255.79,308.32 C260.90,305.80 265.33,303.99 265.63,304.30 C265.94,304.61 267.95,311.75 270.10,320.18 L 274.01 335.50 L 272.32 342.20 C270.56,349.24 269.59,349.94 268.50,344.99 C268.01,342.78 267.27,342.00 265.67,342.02 C259.65,342.07 240.31,345.31 214.00,350.67 C203.62,352.78 183.42,359.64 165.00,367.30 C151.64,372.86 138.63,377.11 135.44,376.96 C134.92,376.93 132.74,375.99 130.60,374.85 ZM 22.86 124.64 L 27.14 120.28 L 22.97 116.70 C20.83,114.88 17.88,112.91 15.50,111.60 C17.85,112.88 20.74,114.80 22.80,116.56 C25.01,118.45 27.04,120.00 27.30,120.00 C28.79,120.00 28.71,116.62 27.03,109.55 C27.60,111.65 28.17,113.69 28.68,115.43 C29.17,117.08 30.04,116.48 34.53,111.43 C37.43,108.17 39.69,105.38 39.55,105.23 C39.05,104.71 36.61,102.85 33.76,100.76 C37.08,103.10 39.75,104.65 40.14,104.41 C40.91,103.94 41.13,102.40 40.79,99.60 L 41.49 103.21 L 52.15 92.07 C61.94,81.84 63.05,80.97 65.66,81.56 C67.22,81.91 70.07,82.61 72.00,83.11 C73.93,83.61 89.22,86.47 106.00,89.47 C122.78,92.47 139.16,95.84 142.41,96.96 C145.66,98.08 149.56,99.00 151.09,99.00 C153.93,99.00 162.81,95.90 178.24,89.52 C184.52,86.92 189.59,85.61 196.24,84.88 C201.20,84.33 205.26,83.38 209.20,81.64 C205.73,83.55 203.51,85.20 204.19,85.39 C204.69,85.53 205.99,85.84 207.47,86.18 C206.49,87.07 207.08,91.04 208.55,92.44 C205.97,91.10 200.68,92.37 175.20,100.07 C153.64,106.59 151.11,106.62 131.16,100.55 C122.43,97.90 109.22,95.83 107.50,96.85 C106.13,97.67 92.65,97.16 88.00,96.11 C84.78,95.39 83.81,95.60 81.62,97.48 C80.20,98.70 79.33,99.99 79.68,100.35 C80.04,100.71 79.78,101.00 79.11,101.00 C78.43,101.00 78.16,101.45 78.50,102.00 C78.84,102.55 78.71,103.00 78.21,103.00 C77.71,103.00 77.26,104.46 77.21,106.25 C77.16,108.04 75.89,112.08 74.38,115.24 C72.88,118.39 71.90,121.23 72.21,121.55 C72.37,121.70 72.66,121.75 73.08,121.70 C66.62,124.31 59.33,126.72 51.33,128.90 C47.73,129.88 46.87,130.67 45.03,134.77 C40.04,145.82 33.66,158.18 27.90,168.00 C17.77,185.24 16.15,189.89 14.63,206.10 C13.37,219.54 12.63,221.93 9.75,221.98 C8.27,222.01 9.02,202.54 10.77,195.50 C11.99,190.60 12.31,186.87 11.94,181.75 L 12.50 188.50 L 15.30 178.59 C19.77,162.73 22.08,158.79 33.92,146.75 C39.74,140.84 45.07,134.65 45.76,132.98 C47.01,129.98 47.00,129.96 44.26,130.62 C39.33,131.80 35.62,134.20 29.23,140.33 L 22.96 146.35 L 19.49 142.99 C15.11,138.75 14.62,137.14 16.38,132.95 C17.59,130.08 17.58,129.11 15.18,122.12 C16.52,125.85 17.77,129.00 18.04,129.00 C18.34,129.00 20.51,127.04 22.86,124.64 ZM 260.73 186.25 C260.80,186.38 260.87,186.50 260.93,186.60 C260.15,186.95 259.97,189.50 259.90,197.78 C259.86,202.40 259.79,207.80 259.72,211.71 C259.64,211.25 259.53,211.00 259.40,211.00 C257.96,211.00 255.22,223.89 255.00,231.28 C255.00,227.06 254.35,221.12 253.56,218.07 C252.77,215.00 251.39,209.35 250.49,205.50 C249.17,199.79 247.37,195.07 242.83,186.90 C244.32,189.42 245.54,191.49 246.06,192.37 L 247.76 195.24 L 250.03 188.37 C251.28,184.59 252.67,181.25 253.14,180.95 C254.45,180.09 256.00,170.41 256.00,163.11 C256.00,155.85 252.76,147.40 247.65,141.36 C246.19,139.63 245.00,137.83 245.00,137.36 C245.00,136.12 253.09,117.67 254.12,116.55 C254.61,116.03 255.00,114.07 255.00,112.21 C255.00,110.34 255.88,104.47 256.95,99.16 C260.79,80.12 263.27,53.69 262.63,38.72 L 262.03 24.94 L 264.52 23.81 C265.45,23.39 266.14,22.78 266.56,22.20 C266.95,25.04 266.99,31.89 266.98,47.68 C266.96,62.98 266.50,81.12 265.95,88.00 C263.96,112.81 263.25,128.52 264.08,129.55 C264.21,129.73 264.31,130.74 264.36,132.39 C264.31,130.79 264.21,129.81 264.08,129.68 C263.61,129.21 262.91,132.80 262.53,137.66 C261.57,149.83 260.26,185.33 260.73,186.25 ZM 56.50 175.33 C53.03,174.57 49.00,172.79 49.00,172.02 C49.00,171.42 60.38,160.90 67.20,155.20 C68.69,153.95 69.33,154.04 72.35,155.91 C75.07,157.59 76.49,157.90 80.58,157.47 C77.17,158.32 73.44,160.16 72.00,161.92 C71.18,162.93 68.03,165.91 65.00,168.54 C61.97,171.16 59.14,173.92 58.70,174.66 C58.37,175.21 58.20,175.58 58.24,175.74 C57.83,175.63 57.19,175.48 56.50,175.33 ZM 188.01 194.11 C187.00,194.27 185.92,194.17 184.40,193.90 C182.15,193.49 178.97,192.33 177.33,191.33 C173.64,189.07 170.16,186.00 167.73,183.13 C168.23,183.66 168.69,184.00 169.04,184.00 C169.40,184.00 170.15,182.99 170.70,181.75 C171.66,179.59 171.79,179.67 173.81,183.63 C174.97,185.90 176.65,188.03 177.54,188.38 C182.27,190.19 185.03,188.07 187.96,180.36 L 189.81 175.50 L 190.49 179.10 C190.92,181.37 190.58,184.67 189.58,188.03 C188.77,190.78 188.09,193.40 188.01,194.11 ZM 256.11 124.41 C258.52,119.87 260.18,115.85 259.81,115.47 C259.43,115.10 257.91,115.20 256.43,115.69 C254.25,116.42 252.91,118.47 249.36,126.54 C241.83,143.65 246.71,142.11 256.11,124.41 ZM 223.55 302.47 C232.82,295.74 238.02,292.38 241.71,290.72 C237.91,292.78 231.29,297.08 223.55,302.47 ZM 84.45 116.50 C90.65,112.91 97.46,108.25 100.44,105.11 C96.67,109.09 91.27,112.92 84.45,116.50 ZM 203.02 132.00 C210.68,140.09 216.82,147.29 222.66,155.24 C216.80,147.60 209.07,138.39 203.02,132.00 ZM 99.69 166.17 C97.28,161.39 92.34,153.72 88.55,148.54 C92.50,153.45 97.07,160.73 99.69,166.17 ZM 259.45 222.11 C259.38,224.84 259.30,227.78 259.23,230.25 C259.16,233.15 259.08,235.10 258.93,236.40 C258.99,235.61 259.00,234.58 259.01,233.25 C259.01,230.71 259.20,226.16 259.45,222.11 ZM 39.46 92.67 C39.43,92.55 39.40,92.43 39.37,92.31 C38.43,88.37 37.89,83.13 37.73,77.77 C37.94,82.64 38.52,87.72 39.46,92.67 ZM 166.88 182.07 C165.02,179.66 164.03,177.48 164.44,176.19 C164.11,177.23 165.47,180.11 166.88,182.07 ZM 263.71 158.72 C263.33,168.31 263.04,177.29 263.03,180.36 C263.01,184.73 262.85,186.38 262.21,186.68 C262.70,185.74 263.02,183.49 263.03,180.25 C263.04,177.24 263.33,168.30 263.71,158.72 ZM 23.18 93.48 C23.19,93.48 23.19,93.48 23.19,93.48 C23.37,93.30 27.06,95.80 31.40,99.05 C31.43,99.08 31.47,99.10 31.51,99.13 C27.46,96.22 23.39,93.41 23.18,93.48 ZM 84.91 157.01 C87.07,156.87 86.84,157.29 85.86,158.85 C85.85,158.86 85.85,158.88 85.84,158.89 C86.77,157.38 86.74,157.07 84.91,157.01 ZM 212.66 87.77 C213.35,88.24 213.69,88.82 213.80,89.59 C213.82,89.70 213.83,89.82 213.84,89.93 C213.72,89.15 213.30,88.40 212.66,87.77 ZM 62.03 173.53 C60.05,175.00 58.74,175.92 58.68,175.88 C58.66,175.87 58.59,175.85 58.49,175.81 C58.95,175.70 60.04,174.99 62.03,173.53 ZM 38.62 61.42 C38.82,60.19 39.06,59.06 39.33,58.05 C40.28,54.51 41.25,51.42 41.48,51.18 C41.25,51.42 40.29,54.51 39.36,58.05 C39.08,59.11 38.83,60.24 38.62,61.42 ZM 103.67 175.43 C103.90,174.42 103.76,173.43 103.33,173.13 C103.08,172.95 102.64,172.27 102.13,171.32 C102.65,172.28 103.11,172.97 103.37,173.15 C103.86,173.50 103.99,174.51 103.67,175.43 ZM 211.99 66.28 C213.00,66.66 216.67,67.06 220.74,67.21 L 228.96 67.50 L 224.84 70.94 L 228.92 67.50 L 220.71 67.21 C216.66,67.06 212.99,66.66 211.99,66.28 ZM 212.80 92.80 C213.23,92.37 213.53,91.90 213.70,91.43 C213.49,92.11 213.10,92.65 212.60,93.00 C212.66,92.94 212.73,92.87 212.80,92.80 ZM 197.31 188.09 C195.94,189.30 194.45,190.52 193.19,191.42 C194.54,190.42 195.98,189.26 197.31,188.09 ZM 104.77 102.00 C104.79,102.00 104.80,102.00 104.82,102.00 C105.06,102.00 105.60,102.19 106.36,102.53 C105.61,102.21 105.05,102.02 104.77,102.00 ZM 11.50 110.47 C11.47,110.30 11.47,110.20 11.49,110.17 C11.50,110.16 11.52,110.15 11.53,110.14 C11.52,110.15 11.51,110.16 11.51,110.16 C11.48,110.20 11.47,110.30 11.50,110.47 Z" fill="rgba(234,121,17,1)"/>
<path d="M 173.13 274.94 C170.99,270.10 161.55,260.56 156.29,257.91 C153.66,256.58 151.33,255.40 151.12,255.28 C150.91,255.16 152.21,253.39 154.01,251.34 L 157.28 247.61 L 153.89 246.38 C150.70,245.22 150.65,245.15 153.14,245.08 C156.07,244.99 157.00,243.43 157.00,238.62 C157.00,236.85 157.46,234.94 158.02,234.38 C159.02,233.38 155.22,217.88 153.56,216.23 C152.48,215.14 135.86,214.69 126.27,215.49 C121.64,215.88 118.09,216.43 118.38,216.71 C119.53,217.86 111.52,231.63 106.80,236.62 L 101.78 241.92 L 102.89 248.29 C103.89,254.02 104.31,256.29 103.37,257.35 C102.72,258.07 101.43,258.21 99.25,258.49 C96.64,258.83 93.51,259.31 92.30,259.56 C90.11,260.01 90.11,260.01 91.66,254.76 C92.52,251.87 94.75,246.48 96.61,242.78 C98.48,239.08 100.00,235.82 100.00,235.55 C100.00,235.27 98.41,234.23 96.47,233.23 L 92.93 231.42 L 98.74 223.29 C110.92,206.21 120.87,195.88 131.32,189.46 C135.90,186.64 136.11,186.33 135.58,182.91 C135.51,182.46 135.43,181.78 135.34,180.91 C136.23,187.11 138.10,188.45 144.37,193.84 C148.84,197.69 158.35,206.68 165.50,213.81 C173.06,221.34 179.18,226.66 180.11,226.51 C181.00,226.37 186.26,222.94 191.80,218.88 C204.12,209.85 207.56,205.01 212.56,189.68 C214.57,183.53 216.87,177.22 217.68,175.66 C218.49,174.09 218.98,172.65 218.78,172.44 C218.74,172.40 218.58,172.40 218.31,172.43 C220.04,172.07 221.25,171.92 221.41,172.07 C222.01,172.68 235.00,216.99 235.00,218.43 C234.99,219.02 232.25,222.65 228.91,226.50 C223.23,233.03 218.65,239.16 206.49,256.45 L 201.61 263.41 L 199.91 255.64 C198.97,251.37 197.99,247.66 197.72,247.39 C197.16,246.83 191.64,255.49 184.11,268.75 C180.00,275.98 178.37,278.00 176.67,278.00 C175.20,278.00 174.05,277.00 173.13,274.94 ZM 174.31 319.58 L 171.50 317.15 L 181.00 298.03 C190.32,279.28 190.60,278.86 195.51,276.08 C198.27,274.52 203.34,270.90 206.77,268.03 L 213.02 262.81 L 214.42 266.15 C215.18,267.99 216.36,272.30 217.03,275.72 L 218.25 281.94 L 209.39 291.59 C199.57,302.29 181.72,319.55 178.92,321.04 C177.55,321.78 176.45,321.43 174.31,319.58 ZM 11.48 110.23 C11.43,110.80 12.73,115.06 14.47,120.05 C17.57,128.95 17.70,129.82 16.38,132.95 C14.62,137.14 15.11,138.75 19.49,142.99 L 22.96 146.35 L 29.23 140.33 C35.62,134.20 39.33,131.80 44.26,130.62 C47.00,129.96 47.01,129.98 45.76,132.98 C45.07,134.65 39.74,140.84 33.92,146.75 C22.08,158.79 19.77,162.73 15.30,178.59 L 12.50 188.50 L 11.88 181.00 C11.54,176.88 11.20,165.62 11.12,156.00 C11.05,146.38 10.50,134.68 9.90,130.00 C8.77,121.15 8.30,114.29 8.49,108.68 C8.94,109.26 10.14,109.89 11.48,110.23 ZM 165.25 179.62 C164.93,179.15 164.60,178.68 164.27,178.19 C159.28,170.69 158.50,167.56 158.50,155.00 C158.50,145.71 158.58,145.37 162.26,139.71 C164.33,136.53 166.74,133.65 167.62,133.32 C169.41,132.63 178.65,135.28 181.27,137.23 C182.83,138.39 182.53,139.24 177.82,147.00 C172.55,155.69 166.72,167.64 165.71,171.84 C165.15,174.15 165.17,174.16 167.32,172.35 C168.52,171.34 171.62,168.60 174.21,166.26 C176.62,164.08 178.40,162.82 180.05,162.31 C176.29,164.18 165.17,173.88 164.44,176.19 C164.18,177.02 164.50,178.22 165.25,179.62 ZM 103.65 178.24 C103.29,177.66 103.29,176.42 103.64,175.49 C104.00,174.56 103.88,173.51 103.37,173.15 C102.86,172.79 101.58,170.48 100.52,168.00 C98.12,162.39 92.82,153.81 88.38,148.33 C86.52,146.04 85.00,143.70 85.00,143.13 C85.00,142.23 96.78,135.00 98.25,135.00 C99.01,135.00 105.38,143.94 107.62,148.13 C110.77,154.02 109.56,172.11 105.67,177.43 C104.81,178.61 104.06,178.91 103.65,178.24 ZM 9.78 60.16 C9.13,56.52 8.29,54.34 7.31,54.71 C6.00,55.21 5.89,53.27 6.43,39.39 C7.44,13.34 8.12,5.00 9.22,5.00 C10.34,5.00 14.83,7.19 34.71,17.74 C25.86,13.09 19.29,9.66 18.75,9.46 C17.29,8.90 17.00,9.36 17.00,12.28 C17.00,17.04 14.42,30.50 11.30,42.00 C8.98,50.58 8.77,51.61 9.78,60.16 ZM 58.48 232.11 C49.61,227.93 44.71,223.22 43.06,217.28 C42.48,215.20 42.01,213.18 42.01,212.79 C42.00,211.87 55.77,217.73 59.04,220.04 C61.21,221.57 67.71,234.62 66.78,235.56 C66.61,235.73 62.88,234.17 58.48,232.11 ZM 159.42 291.25 C153.91,289.22 151.84,287.88 150.08,285.21 C148.84,283.32 148.21,281.44 148.67,281.04 C150.52,279.41 173.03,282.88 172.98,284.79 C172.95,286.17 168.49,293.35 167.50,293.60 C166.95,293.74 163.31,292.68 159.42,291.25 ZM 72.03 37.49 C84.41,43.80 89.93,45.88 102.31,49.98 C114.23,53.92 121.92,55.98 123.31,55.58 C124.03,55.38 135.98,52.40 153.68,48.03 C135.93,52.50 123.03,55.85 120.40,56.70 L 112.31 59.31 L 99.90 52.63 C93.08,48.95 86.82,45.53 86.00,45.03 C85.16,44.51 79.61,41.53 72.03,37.49 ZM 260.73 186.25 C260.26,185.33 261.57,149.83 262.53,137.66 C262.91,132.80 263.61,129.21 264.08,129.68 C264.54,130.14 264.51,140.19 263.99,152.01 C263.48,163.83 263.05,176.54 263.03,180.25 C263.00,186.10 262.00,188.72 260.73,186.25 ZM 169.24 238.01 C170.89,240.65 174.51,240.54 176.44,237.78 C178.37,235.03 178.39,234.36 176.57,233.67 C175.14,233.12 168.00,234.69 168.00,235.56 C168.00,235.82 168.56,236.92 169.24,238.01 ZM 83.50 170.82 C81.19,169.00 80.45,168.86 78.77,169.91 C77.15,170.92 76.86,170.90 77.22,169.83 C78.42,166.22 88.00,166.34 88.00,169.96 C88.00,172.90 86.51,173.19 83.50,170.82 ZM 178.00 173.57 C178.00,171.37 178.44,171.00 181.07,171.00 C183.68,171.00 184.09,171.34 183.82,173.25 C183.59,174.86 182.72,175.59 180.75,175.82 C178.38,176.09 178.00,175.78 178.00,173.57 ZM 10.58 93.56 C11.24,87.61 11.34,79.94 11.03,72.99 C11.50,80.68 11.35,87.59 10.58,93.56 ZM 203.27 173.93 C204.20,175.03 205.12,175.68 205.78,175.68 C205.07,175.83 204.63,175.89 204.58,175.82 C204.50,175.71 203.98,174.95 203.27,173.93 ZM 24.67 118.11 C24.09,117.65 23.45,117.12 22.80,116.56 C21.53,115.47 19.93,114.32 18.35,113.30 C20.87,114.83 23.34,116.67 24.67,118.11 ZM 177.34 191.34 C175.28,190.18 173.28,188.68 171.32,186.81 C173.15,188.46 175.21,190.03 177.33,191.33 C177.33,191.33 177.34,191.34 177.34,191.34 ZM 184.71 162.73 C185.67,163.16 185.72,163.64 184.94,164.57 C185.56,163.83 185.43,163.18 184.71,162.73 ZM 28.32 116.85 C28.47,118.97 28.12,120.00 27.30,120.00 C27.29,120.00 27.26,119.99 27.23,119.98 C28.07,119.84 28.44,118.86 28.32,116.85 ZM 199.98 169.00 L 201.50 171.37 L 199.86 169.00 L 199.98 169.00 ZM 184.40 193.90 C182.53,193.56 180.72,192.98 178.95,192.16 C180.62,192.91 182.76,193.60 184.40,193.90 ZM 206.54 175.50 C207.41,175.27 208.98,174.85 210.81,174.35 C209.16,174.83 207.66,175.24 206.54,175.50 Z" fill="rgba(232,227,222,1)"/>
<path d="M 227.00 96.51 C227.00,93.97 222.36,94.72 220.07,97.63 C218.42,99.73 217.82,101.06 218.19,102.26 L 209.06 92.75 C211.64,94.50 214.25,92.78 213.80,89.59 C213.58,88.05 212.44,87.27 209.50,86.63 C207.30,86.15 204.91,85.59 204.19,85.39 C203.46,85.18 206.04,83.32 209.91,81.26 C213.79,79.19 219.66,75.25 222.96,72.50 L 228.96 67.50 L 220.74 67.21 C216.21,67.04 212.17,66.57 211.76,66.16 C210.28,64.68 221.30,53.92 234.55,43.89 C241.95,38.29 248.00,33.54 248.00,33.34 C248.00,32.86 241.81,36.01 231.00,41.99 C226.32,44.58 215.07,50.66 206.00,55.51 C190.02,64.03 173.00,74.12 158.96,83.36 C170.87,75.49 188.16,65.06 198.50,59.52 C226.60,44.46 246.56,33.54 247.00,32.99 C247.27,32.64 251.89,30.18 257.25,27.52 C258.99,26.65 260.62,25.78 262.04,24.96 L 262.63 38.72 C263.27,53.69 260.79,80.12 256.95,99.16 C255.88,104.47 255.00,110.34 255.00,112.21 C255.00,114.07 254.61,116.03 254.12,116.55 C253.09,117.67 245.00,136.12 245.00,137.36 C245.00,137.54 245.17,137.90 245.46,138.39 C237.42,127.67 230.00,116.86 229.97,115.76 C229.95,115.12 225.67,110.14 220.17,104.34 C220.94,104.37 221.93,103.56 223.75,101.57 C225.54,99.62 227.00,97.35 227.00,96.51 ZM 53.09 48.16 L 47.70 49.41 C44.52,50.15 41.72,50.95 41.48,51.18 C41.25,51.42 40.28,54.51 39.33,58.05 C37.12,66.30 37.14,82.96 39.37,92.31 C41.19,99.92 41.42,103.62 40.14,104.41 C39.66,104.71 35.73,102.29 31.40,99.05 C27.06,95.80 23.37,93.30 23.19,93.48 C23.01,93.66 24.25,98.97 25.94,105.29 C28.76,115.78 29.07,120.00 27.02,120.00 C26.59,120.00 25.65,119.29 24.93,118.42 C22.59,115.60 15.18,110.99 11.96,110.34 C10.24,110.00 8.60,109.13 8.33,108.42 C8.06,107.71 8.62,103.61 9.58,99.31 C11.69,89.90 11.86,77.32 10.06,62.50 C8.75,51.72 8.78,51.31 11.30,42.00 C14.42,30.50 17.00,17.04 17.00,12.28 C17.00,11.92 17.00,11.59 17.02,11.30 C17.64,14.55 37.27,34.16 53.09,48.16 ZM 58.70 174.66 C59.14,173.92 61.97,171.16 65.00,168.54 C68.03,165.91 71.18,162.93 72.00,161.92 C73.94,159.53 80.11,157.00 83.98,157.00 C86.77,157.00 86.91,157.16 85.77,159.00 C85.08,160.10 83.53,161.00 82.32,161.00 C81.11,161.00 79.84,161.45 79.50,162.00 C79.16,162.55 78.21,163.00 77.39,163.00 C76.58,163.00 72.07,165.93 67.39,169.50 C58.60,176.20 57.33,176.96 58.70,174.66 ZM 254.99 232.25 C254.97,225.08 257.89,211.00 259.40,211.00 C259.91,211.00 260.02,214.56 259.65,219.25 C259.30,223.79 259.01,230.09 259.01,233.25 C259.00,238.33 258.77,239.00 257.00,239.00 C255.20,239.00 255.00,238.33 254.99,232.25 ZM 159.56 124.61 C159.84,124.09 160.00,123.74 160.00,123.62 C160.00,123.40 156.74,122.94 152.75,122.61 C151.41,122.50 150.17,122.39 149.02,122.29 C149.22,122.20 149.41,122.08 149.59,121.93 C150.40,121.25 157.31,120.66 167.21,120.41 C184.51,119.98 185.58,121.35 168.95,122.61 L 160.39 123.26 L 159.56 124.61 ZM 234.42 109.66 L 237.23 105.83 L 231.37 106.54 C228.14,106.93 225.12,107.47 224.66,107.74 C224.20,108.01 225.30,109.75 227.11,111.61 C228.92,113.48 230.67,114.67 231.00,114.25 C231.34,113.84 232.88,111.77 234.42,109.66 ZM 231.71 245.38 C231.32,244.99 231.00,243.59 231.00,242.27 C231.00,240.24 231.43,239.92 233.75,240.18 C235.93,240.43 236.50,241.02 236.50,243.00 C236.50,244.75 235.89,245.59 234.46,245.79 C233.34,245.95 232.10,245.77 231.71,245.38 ZM 145.40 121.96 C141.75,121.62 139.26,121.32 137.48,120.98 C137.79,120.99 138.12,121.00 138.47,121.00 C140.81,121.00 143.86,121.43 145.40,121.96 ZM 266.94 21.46 C266.70,22.23 265.85,23.20 264.52,23.81 L 262.21 24.86 C264.78,23.36 266.59,22.08 266.94,21.46 ZM 145.49 89.35 C146.58,90.16 147.93,90.56 148.49,90.23 C148.97,89.95 152.30,87.77 156.25,85.15 C156.20,85.19 156.14,85.23 156.08,85.26 L 147.67 90.90 L 145.08 89.09 C144.33,88.56 143.25,87.87 141.94,87.07 C143.53,88.03 144.77,88.83 145.49,89.35 ZM 98.65 71.03 C87.58,70.15 84.24,69.56 80.20,67.60 C85.02,69.69 89.68,70.32 98.65,71.03 ZM 175.20 100.07 C187.95,96.22 195.65,93.98 200.48,92.86 L 199.48 93.12 C195.09,94.23 184.17,97.36 175.20,100.07 ZM 248.05 141.83 C250.23,144.52 252.05,147.64 253.39,150.91 C252.12,148.00 250.36,145.02 248.05,141.83 ZM 67.14 59.75 C63.77,57.38 60.68,54.93 58.33,52.72 C61.70,55.58 64.73,58.01 67.14,59.75 ZM 146.78 144.46 C148.84,141.55 151.66,137.32 154.16,133.43 C151.48,137.77 149.02,141.44 146.78,144.46 ZM 137.26 154.27 C138.46,153.57 140.21,152.07 141.90,150.37 C140.21,152.15 138.67,153.44 137.26,154.27 ZM 265.25 20.40 C266.56,20.00 267.10,20.46 267.00,21.20 C266.96,20.38 266.31,20.08 265.25,20.40 ZM 255.94 161.46 C255.98,162.02 256.00,162.57 256.00,163.11 C256.00,167.01 255.56,171.59 254.94,175.14 C255.56,171.58 256.00,167.01 255.99,163.11 C255.99,162.56 255.97,162.01 255.94,161.46 ZM 104.80 102.00 C103.99,102.02 102.04,103.41 100.44,105.11 C102.05,103.40 104.01,102.00 104.78,102.00 C104.79,102.00 104.79,102.00 104.80,102.00 ZM 133.08 119.16 C132.89,118.98 132.70,118.79 132.51,118.58 C132.79,118.82 132.99,119.02 133.08,119.16 Z" fill="rgba(219,154,129,1)"/>
<path d="M 145.49 89.35 C144.48,88.61 142.43,87.34 139.84,85.83 C142.45,87.19 143.00,87.10 143.00,86.17 C143.00,84.49 136.76,64.57 135.22,61.34 C134.35,59.50 133.23,58.00 132.74,58.00 C132.26,58.00 128.08,61.22 123.46,65.15 L 115.06 72.31 L 121.28 75.53 C123.99,76.93 128.30,79.29 131.89,81.32 C124.98,77.51 117.80,73.78 116.00,73.22 C114.07,72.62 106.27,71.63 98.65,71.03 C83.49,69.83 80.65,68.85 68.50,60.69 C55.35,51.86 17.00,14.97 17.00,11.16 C17.00,9.31 17.39,8.93 18.75,9.46 C20.45,10.11 83.00,43.19 86.00,45.03 C86.82,45.53 93.08,48.95 99.90,52.63 L 112.31 59.31 L 120.40 56.70 C124.86,55.26 158.88,46.62 196.00,37.51 C233.12,28.39 264.29,20.69 265.25,20.40 C266.34,20.07 267.00,20.40 267.00,21.27 C267.00,22.05 262.66,24.83 257.25,27.52 C251.89,30.18 247.27,32.64 247.00,32.99 C246.56,33.54 226.60,44.46 198.50,59.52 C187.88,65.21 169.92,76.06 158.00,83.99 C153.32,87.10 149.05,89.91 148.49,90.23 C147.93,90.56 146.58,90.16 145.49,89.35 ZM 132.97 118.94 C133.31,119.58 133.84,120.10 134.49,120.45 C133.84,120.17 133.41,119.77 133.12,119.22 C132.05,117.23 106.99,102.00 104.78,102.00 C104.19,102.00 102.92,102.81 101.63,103.95 C104.20,101.47 106.00,99.36 106.00,98.58 C106.00,97.82 104.55,97.40 101.15,97.24 C104.34,97.30 106.94,97.18 107.50,96.85 C109.22,95.83 122.43,97.90 131.16,100.55 C140.79,103.48 146.37,104.99 151.98,105.03 C148.74,105.14 145.85,104.80 142.80,104.09 L 139.11 103.23 L 140.70 105.66 C143.57,110.05 145.54,110.47 163.50,110.53 C180.57,110.59 188.00,111.74 188.00,114.32 C188.00,115.00 186.59,116.79 184.87,118.30 C183.83,119.21 182.30,120.02 180.37,120.70 C179.01,120.37 174.59,120.23 167.21,120.41 C157.31,120.66 150.40,121.25 149.59,121.93 C148.64,122.71 147.45,122.74 145.56,122.02 C144.08,121.46 140.89,121.00 138.47,121.00 C138.19,121.00 137.93,121.00 137.68,120.99 C139.66,120.93 139.10,120.56 135.18,118.57 C131.91,116.90 131.88,116.91 132.97,118.94 ZM 169.24 238.01 C168.56,236.92 168.00,235.82 168.00,235.56 C168.00,234.69 175.14,233.12 176.57,233.67 C178.39,234.36 178.37,235.03 176.44,237.78 C174.51,240.54 170.89,240.65 169.24,238.01 ZM 175.04 122.06 C171.92,122.64 168.32,122.96 164.50,122.99 C164.27,122.99 164.05,122.99 163.84,123.00 L 168.95 122.61 C171.35,122.43 173.38,122.25 175.04,122.06 ZM 162.37 123.11 C160.75,123.39 159.78,124.40 157.46,128.04 L 160.39 123.26 L 162.37 123.11 ZM 74.46 121.38 C76.75,120.45 80.54,118.60 84.06,116.72 C80.24,118.91 76.69,120.67 74.46,121.38 ZM 77.18 106.73 C77.02,108.71 75.86,112.31 74.53,114.94 C74.50,115.00 74.47,115.05 74.44,115.11 C75.80,112.24 76.96,108.67 77.18,106.73 ZM 96.03 108.90 C97.66,107.57 99.27,106.17 100.70,104.84 C100.61,104.93 100.52,105.01 100.44,105.11 C99.38,106.22 97.85,107.52 96.03,108.90 ZM 98.56 97.16 C94.84,97.06 90.27,96.62 88.18,96.15 C86.82,95.85 85.86,95.69 85.05,95.74 C85.83,95.69 86.74,95.83 88.00,96.11 C90.25,96.62 94.56,97.00 98.56,97.16 ZM 78.56 102.11 C78.82,102.61 78.68,103.00 78.22,103.00 C77.78,103.00 77.37,104.22 77.23,105.82 C77.34,104.23 77.75,103.00 78.21,103.00 C78.67,103.00 78.82,102.61 78.56,102.11 Z" fill="rgba(254,203,128,1)"/>
<path d="M 186.50 349.53 C180.50,348.22 171.00,344.18 171.00,342.94 C171.00,342.30 188.31,328.55 205.00,315.95 C222.92,302.41 241.46,290.00 244.66,289.40 C248.90,288.61 251.50,289.49 250.06,291.24 C249.49,291.93 247.22,294.84 245.02,297.70 C240.98,302.96 236.16,307.23 220.93,319.00 C212.10,325.83 195.00,341.71 195.00,343.09 C195.00,344.47 205.92,340.21 214.90,335.33 C219.63,332.75 227.53,328.52 232.47,325.91 L 241.43 321.18 L 245.47 323.46 C247.68,324.71 252.62,327.56 256.42,329.78 L 263.35 333.83 L 258.92 334.97 C250.28,337.20 227.36,343.22 218.50,345.60 C207.92,348.44 196.12,350.99 194.00,350.90 C193.18,350.87 189.80,350.25 186.50,349.53 ZM 165.50 213.81 C158.35,206.68 148.84,197.69 144.37,193.84 C135.12,185.89 135.45,186.74 134.37,167.84 L 133.72 156.37 L 137.26 154.27 C141.65,151.68 147.37,144.53 154.81,132.34 C160.45,123.10 160.53,123.02 164.50,122.99 C173.77,122.92 181.68,121.10 184.87,118.30 C186.59,116.79 188.00,115.00 188.00,114.32 C188.00,111.74 180.57,110.59 163.50,110.53 C145.54,110.47 143.57,110.05 140.70,105.66 L 139.11 103.23 L 142.80 104.09 C151.21,106.05 158.39,105.16 175.20,100.07 C184.17,97.36 195.09,94.23 199.48,93.12 L 207.46 91.09 L 218.70 102.79 C224.88,109.23 229.95,115.07 229.97,115.76 C230.00,116.94 238.43,129.14 247.06,140.50 C253.30,148.71 255.98,155.50 255.99,163.11 C256.00,170.40 254.45,180.08 253.14,180.95 C252.67,181.25 251.28,184.59 250.03,188.37 L 247.76 195.24 L 246.06 192.37 C245.13,190.79 241.98,185.45 239.06,180.50 C226.89,159.85 217.77,147.57 203.02,132.00 L 196.86 125.50 L 207.97 147.25 L 219.07 169.00 L 209.47 169.00 L 199.86 169.00 L 202.11 172.25 C203.34,174.04 204.46,175.65 204.58,175.82 C204.71,176.00 207.87,175.23 211.61,174.11 C215.35,172.99 218.57,172.24 218.78,172.44 C218.98,172.65 218.49,174.09 217.68,175.66 C216.87,177.22 214.57,183.53 212.56,189.68 C207.56,205.01 204.12,209.85 191.80,218.88 C186.26,222.94 181.00,226.37 180.11,226.51 C179.18,226.66 173.06,221.34 165.50,213.81 ZM 199.95 185.60 C201.84,183.62 204.18,182.00 205.14,182.00 C207.75,182.00 208.33,180.24 205.95,179.48 C204.81,179.12 200.87,176.55 197.19,173.76 C193.51,170.97 189.00,168.07 187.17,167.30 C184.56,166.21 184.08,165.61 184.94,164.57 C185.78,163.56 185.66,163.08 184.44,162.62 C181.06,161.32 178.76,162.14 174.21,166.26 C171.62,168.60 168.52,171.34 167.32,172.35 C165.17,174.16 165.15,174.15 165.71,171.84 C166.72,167.64 172.55,155.69 177.82,147.00 C182.53,139.24 182.83,138.39 181.27,137.23 C178.65,135.28 169.41,132.63 167.62,133.32 C166.74,133.65 164.33,136.53 162.26,139.71 C158.58,145.37 158.50,145.71 158.50,155.00 C158.50,167.56 159.28,170.69 164.27,178.19 C170.45,187.47 176.97,192.55 184.40,193.90 C187.92,194.53 189.07,194.25 192.50,191.91 C194.70,190.42 198.05,187.57 199.95,185.60 ZM 72.00 120.97 C72.00,120.40 73.14,117.69 74.53,114.94 C75.92,112.19 77.12,108.38 77.19,106.47 C77.27,104.56 77.73,103.00 78.22,103.00 C78.71,103.00 78.84,102.55 78.50,102.00 C78.16,101.45 78.43,101.00 79.11,101.00 C79.78,101.00 80.04,100.71 79.68,100.35 C79.33,99.99 80.20,98.70 81.62,97.48 C83.85,95.57 84.76,95.38 88.18,96.15 C90.37,96.64 95.27,97.10 99.08,97.17 C103.97,97.26 106.00,97.68 106.00,98.58 C106.00,100.29 97.32,108.43 90.86,112.78 C86.37,115.80 74.05,122.00 72.52,122.00 C72.23,122.00 72.00,121.54 72.00,120.97 ZM 132.97 118.94 C131.88,116.91 131.91,116.90 135.18,118.57 C139.65,120.84 139.75,121.00 136.70,121.00 C135.07,121.00 133.65,120.22 132.97,118.94 ZM 134.50 82.82 C130.65,80.58 124.70,77.30 121.28,75.53 L 115.06 72.31 L 123.46 65.15 C128.08,61.22 132.26,58.00 132.74,58.00 C133.23,58.00 134.35,59.50 135.22,61.34 C136.76,64.57 143.00,84.49 143.00,86.17 C143.00,87.54 141.80,87.07 134.50,82.82 Z" fill="rgba(252,167,59,1)"/>
</g>
</svg>