<svg xmlns="http://www.w3.org/2000/svg" width="140" height="140" viewBox="0 0 140 140">
<g>
<path d="M 36.67 130.33 C36.30,129.97 36.00,127.14 36.00,124.04 C36.00,117.90 38.49,111.75 41.96,109.32 C46.18,106.36 42.86,95.97 35.47,89.00 C30.16,83.99 28.05,78.82 28.02,70.75 C28.01,67.04 27.76,64.00 27.46,64.00 C27.17,64.00 25.82,64.73 24.47,65.61 C20.50,68.21 13.85,66.73 10.06,62.41 C7.49,59.49 7.00,58.10 7.00,53.78 C7.00,50.61 6.20,46.98 4.93,44.35 C3.68,41.76 2.62,37.06 2.28,32.53 L 1.71 25.00 L 10.46 25.00 C18.66,25.00 19.45,24.81 22.96,22.03 C28.48,17.66 31.05,17.00 42.52,17.00 L 52.92 17.00 L 69.50 41.50 L 76.00 41.79 L 82.50 42.08 L 82.58 35.79 C82.72,24.63 88.74,15.08 98.19,11.01 C105.59,7.83 117.60,8.43 123.67,12.28 C131.86,17.47 136.36,25.67 136.41,35.50 C136.45,42.88 134.28,48.77 129.64,53.83 C127.62,56.03 127.52,56.98 127.87,70.79 L 128.23 85.41 L 132.62 91.94 C136.92,98.35 137.00,98.64 137.00,106.76 C137.00,114.40 136.70,115.65 133.09,122.81 L 129.19 130.58 L 78.50 130.50 L 78.20 124.67 C77.82,117.48 80.63,111.01 85.41,108.06 C87.58,106.71 89.06,104.75 89.84,102.15 C90.64,99.46 91.16,97.93 90.61,97.08 C89.85,95.91 87.08,96.04 80.25,96.22 L 69.50 96.50 L 68.96 107.00 C68.49,116.12 67.99,118.39 65.20,124.25 L 61.98 131.00 L 49.66 131.00 C42.88,131.00 37.03,130.70 36.67,130.33 ZM 45.00 120.43 C45.00,121.68 46.22,122.00 50.98,122.00 C56.94,122.00 56.97,121.99 58.98,118.04 C60.69,114.69 61.00,112.15 61.00,101.54 L 61.00 89.00 L 71.25 88.99 C83.06,88.99 87.72,87.95 91.97,84.37 C94.78,82.01 95.04,81.96 95.64,83.66 C96.00,84.67 97.57,86.87 99.14,88.54 L 101.99 91.59 L 98.38 102.39 C95.15,112.03 94.45,113.30 91.85,114.20 C89.00,115.19 85.46,120.13 86.71,121.37 C87.05,121.72 89.96,122.00 93.17,122.00 L 99.01 122.00 L 104.74 110.50 C107.88,104.18 110.85,99.00 111.32,99.00 C111.79,99.00 113.93,100.24 116.07,101.75 C119.65,104.28 119.96,104.88 119.98,109.25 C120.00,113.05 119.66,114.00 118.31,114.00 C116.00,114.00 112.00,117.94 112.00,120.22 C112.00,121.88 112.70,122.06 118.22,121.80 C124.33,121.51 124.49,121.43 126.71,117.50 C128.35,114.59 128.97,111.86 128.98,107.49 C129.00,102.01 128.60,100.88 124.50,94.77 L 120.00 88.06 L 120.00 76.10 C120.00,63.62 119.23,59.95 115.85,56.34 L 113.83 54.19 L 115.98 53.51 C118.93,52.57 124.82,47.26 126.41,44.10 C131.18,34.60 126.37,21.71 116.68,18.06 C110.05,15.56 100.27,17.72 95.79,22.68 C93.12,25.64 91.00,31.54 91.00,36.04 C91.00,39.30 91.64,40.79 94.06,43.22 C95.79,44.94 97.48,45.89 97.95,45.39 C98.41,44.90 98.97,41.68 99.21,38.24 C99.90,28.01 105.00,23.49 113.11,25.92 C117.39,27.20 120.00,30.92 120.00,35.73 C120.00,38.94 118.27,41.85 113.15,47.25 L 109.59 51.00 L 66.01 51.00 L 57.27 37.89 L 48.54 24.77 L 40.38 25.20 C32.52,25.61 32.04,25.78 27.22,29.81 C22.66,33.64 21.74,34.00 16.61,34.00 C11.55,34.00 11.00,34.21 11.00,36.13 C11.00,37.30 12.01,39.89 13.25,41.88 C14.92,44.56 15.50,47.02 15.50,51.38 C15.50,55.88 15.91,57.52 17.25,58.37 C19.97,60.11 22.44,57.96 22.82,53.54 C23.12,49.92 23.25,49.80 26.19,50.39 C27.87,50.72 30.77,51.00 32.62,51.00 L 36.00 51.00 L 36.00 62.53 C36.00,75.74 36.98,79.02 42.30,83.69 C44.28,85.43 47.50,90.02 49.45,93.90 C52.35,99.67 53.00,102.06 53.00,107.03 C53.00,112.89 52.89,113.14 49.98,114.16 C46.90,115.23 45.00,117.62 45.00,120.43 ZM 35.81 33.67 C35.31,39.65 32.00,39.35 32.00,33.33 C32.00,30.63 32.39,30.00 34.06,30.00 C35.82,30.00 36.08,30.53 35.81,33.67 Z" fill="rgba(0,0,0,1)"/>
<path d="M 12.71 40.96 C14.48,43.78 17.36,46.65 20.21,48.11 C22.49,49.27 26.98,50.46 30.18,50.75 L 32.94 51.00 L 32.62 51.00 C30.77,51.00 27.87,50.72 26.19,50.39 C23.25,49.80 23.12,49.92 22.82,53.54 C22.44,57.96 19.97,60.11 17.25,58.37 C15.91,57.52 15.50,55.88 15.50,51.38 C15.50,47.02 14.92,44.56 13.25,41.88 C13.07,41.59 12.89,41.28 12.71,40.96 ZM 37.35 76.93 C38.29,79.64 39.83,81.52 42.30,83.69 C39.82,81.52 38.29,79.64 37.35,76.93 ZM 11.28 34.78 C11.06,35.10 11.01,35.55 11.00,36.17 C11.00,36.16 11.00,36.14 11.00,36.13 C11.00,35.53 11.05,35.10 11.28,34.78 Z" fill="rgba(214,3,3,1)"/>
<path d="M 22.31 33.27 C21.46,33.73 20.79,34.00 20.41,34.00 C19.41,34.00 17.13,35.42 15.34,37.16 L 12.24 40.16 C11.46,38.75 11.00,37.39 11.00,36.27 C11.00,34.18 11.45,34.00 16.61,34.00 C19.28,34.00 20.81,33.90 22.31,33.27 ZM 18.55 47.10 C20.08,48.04 21.83,48.83 23.73,49.44 C22.36,49.03 21.11,48.57 20.21,48.11 C19.65,47.82 19.10,47.49 18.55,47.10 Z" fill="rgba(118,108,82,1)"/>
<path d="M 98.65 88.00 C101.52,91.01 106.40,94.98 112.84,99.50 C113.61,100.04 114.30,100.52 114.91,100.96 C113.21,99.83 111.71,99.00 111.32,99.00 C110.85,99.00 107.88,104.18 104.74,110.50 L 99.01 122.00 L 93.17 122.00 C89.96,122.00 87.05,121.72 86.71,121.37 C85.46,120.13 89.00,115.19 91.85,114.20 C94.45,113.30 95.15,112.03 98.38,102.39 L 101.99 91.59 L 99.14 88.54 C98.98,88.37 98.81,88.18 98.65,88.00 ZM 50.21 46.75 C46.22,49.89 39.98,46.93 40.02,41.92 C40.04,38.87 45.86,29.45 46.99,30.63 C47.46,31.11 49.00,33.72 50.43,36.42 C53.15,41.58 53.09,44.49 50.21,46.75 ZM 91.97 84.37 L 94.99 81.83 L 95.89 84.21 C95.78,84.00 95.70,83.82 95.64,83.66 C95.04,81.96 94.78,82.01 91.97,84.37 ZM 119.67 105.61 C119.97,106.52 119.98,107.60 119.98,109.25 C119.99,111.49 119.88,112.74 119.50,113.39 C119.88,112.74 119.99,111.49 119.98,109.25 C119.97,107.60 119.92,106.49 119.67,105.61 Z" fill="rgba(235,163,0,1)"/>
<path d="M 45.00 120.43 C45.00,117.62 46.90,115.23 49.98,114.16 C52.89,113.14 53.00,112.89 53.00,107.03 C53.00,102.06 52.35,99.67 49.45,93.90 C47.50,90.02 44.28,85.43 42.30,83.69 C36.99,79.03 36.00,75.72 36.00,62.67 L 36.00 51.28 L 30.18 50.75 C23.27,50.12 16.95,47.14 14.13,43.18 L 12.08 40.31 L 15.34 37.16 C17.13,35.42 19.41,34.00 20.41,34.00 C21.41,34.00 24.47,32.12 27.22,29.81 C32.04,25.78 32.52,25.61 40.38,25.20 L 48.54 24.77 L 57.27 37.89 L 66.01 51.00 L 87.80 51.00 L 109.59 51.00 L 113.15 47.25 C118.27,41.85 120.00,38.94 120.00,35.73 C120.00,30.92 117.39,27.20 113.11,25.92 C105.00,23.49 99.90,28.01 99.21,38.24 C98.97,41.68 98.41,44.90 97.95,45.39 C97.48,45.89 95.79,44.94 94.06,43.22 C91.64,40.79 91.00,39.30 91.00,36.04 C91.00,31.54 93.12,25.64 95.79,22.68 C100.27,17.72 110.05,15.56 116.68,18.06 C126.37,21.71 131.18,34.60 126.41,44.10 C124.82,47.26 118.93,52.57 115.98,53.51 L 113.83 54.19 L 115.85 56.34 C119.23,59.95 120.00,63.62 120.00,76.10 L 120.00 88.06 L 124.50 94.77 C128.60,100.88 129.00,102.01 128.98,107.49 C128.97,111.86 128.35,114.59 126.71,117.50 C124.49,121.43 124.33,121.51 118.22,121.80 C112.70,122.06 112.00,121.88 112.00,120.22 C112.00,117.94 116.00,114.00 118.31,114.00 C119.66,114.00 120.00,113.04 119.98,109.25 C119.97,104.50 119.97,104.50 112.84,99.50 C103.18,92.72 97.01,87.17 95.91,84.26 L 94.99 81.83 L 91.96 84.38 C87.72,87.95 83.06,88.99 71.25,88.99 L 61.00 89.00 L 61.00 101.54 C61.00,112.15 60.69,114.69 58.98,118.04 C56.97,121.99 56.94,122.00 50.98,122.00 C46.22,122.00 45.00,121.68 45.00,120.43 ZM 50.21 46.75 C53.09,44.49 53.15,41.58 50.43,36.42 C49.00,33.72 47.46,31.11 46.99,30.63 C45.86,29.45 40.04,38.87 40.02,41.92 C39.98,46.93 46.22,49.89 50.21,46.75 ZM 35.81 33.67 C36.08,30.53 35.82,30.00 34.06,30.00 C32.39,30.00 32.00,30.63 32.00,33.33 C32.00,39.35 35.31,39.65 35.81,33.67 Z" fill="rgba(254,213,120,1)"/>
</g>
</svg>