<?xml version="1.0" encoding="UTF-8"?>
<svg xmlns="http://www.w3.org/2000/svg" xmlns:xlink="http://www.w3.org/1999/xlink" width="70px" height="70px" viewBox="0 0 70 70" version="1.1">
<g id="surface1">
<path style=" stroke:none;fill-rule:nonzero;fill:rgb(10.196079%,8.627451%,8.627451%);fill-opacity:1;" d="M 2.152344 0.953125 C 2.378906 0.792969 3.726562 1.273438 12.503906 4.625 C 20.472656 7.664062 21.417969 7.976562 25.929688 9.058594 C 28.601562 9.699219 31.015625 10.1875 31.296875 10.148438 C 32.128906 10.023438 67.273438 3.824219 67.804688 3.710938 C 68.277344 3.605469 68.289062 3.78125 68.136719 10.871094 C 67.988281 17.742188 67.265625 32.953125 66.679688 41.5625 L 66.410156 45.480469 L 66.523438 45.761719 L 66.5625 45.769531 L 67.257812 47.558594 C 67.390625 47.894531 67.496094 48.183594 67.582031 48.449219 Z M 40.738281 56.855469 L 38.9375 57.890625 L 34.863281 57.917969 C 32.617188 57.933594 30.4375 57.882812 30.019531 57.808594 C 28.296875 57.492188 26.941406 56.714844 25.53125 55.234375 C 25.195312 54.882812 24.054688 53.933594 23 53.121094 C 21.816406 52.214844 20.558594 50.988281 19.730469 49.933594 L 18.382812 48.214844 L 18.550781 45.300781 C 18.691406 42.832031 18.652344 42.277344 18.300781 41.679688 C 17.910156 41.019531 17.914062 40.984375 18.332031 41.09375 C 18.578125 41.160156 19.371094 41.46875 20.09375 41.78125 L 21.410156 42.347656 L 20.421875 43.238281 C 18.339844 45.117188 18.808594 46.148438 23.449219 49.902344 C 24.347656 50.628906 25.195312 51.222656 25.335938 51.222656 C 25.472656 51.222656 27.101562 50.820312 28.953125 50.328125 C 33.617188 49.085938 34.980469 48.914062 37.066406 49.3125 C 42.46875 50.34375 44.402344 50.675781 45.007812 50.675781 C 45.605469 50.675781 45.867188 50.460938 47.035156 48.992188 C 48.917969 46.625 50.371094 44.996094 50.503906 45.089844 C 50.699219 45.230469 51.332031 47.28125 51.339844 47.808594 C 51.359375 48.914062 44.757812 54.546875 40.738281 56.855469 Z M 36.917969 47.148438 C 36.214844 47.382812 35.292969 47.574219 34.871094 47.574219 C 34.183594 47.574219 29.28125 46.476562 28.964844 46.25 C 28.898438 46.199219 28.683594 45.367188 28.492188 44.398438 L 28.148438 42.632812 L 29.292969 41.101562 L 30.4375 39.566406 L 31.121094 39.878906 C 31.496094 40.050781 32.753906 40.664062 33.910156 41.25 L 36.015625 42.308594 L 37.898438 42.1875 C 40.0625 42.046875 40.234375 42.128906 40.148438 43.285156 C 40.0625 44.429688 39.890625 44.660156 39.132812 44.675781 C 38.480469 44.6875 38.492188 44.699219 39.324219 44.914062 L 40.195312 45.140625 L 39.195312 45.933594 C 38.644531 46.367188 37.617188 46.914062 36.917969 47.148438 Z M 27.933594 54.300781 C 28.167969 54.503906 29.359375 54.53125 34.613281 54.441406 C 38.128906 54.382812 41.382812 54.28125 41.847656 54.214844 C 42.558594 54.117188 42.804688 53.929688 43.457031 53.007812 C 43.882812 52.40625 44.175781 51.878906 44.113281 51.832031 C 44.046875 51.785156 43.378906 51.625 42.625 51.472656 C 38.390625 50.621094 34.902344 50.464844 31.476562 50.964844 C 29.613281 51.238281 26.902344 51.835938 26.625 52.03125 C 26.480469 52.140625 27.511719 53.925781 27.933594 54.300781 Z M 23.3125 35.53125 C 22.6875 35.746094 21.699219 35.96875 21.117188 36.023438 C 20.074219 36.117188 20.03125 36.101562 18.917969 35.09375 C 17.921875 34.195312 16.960938 33.59375 14.296875 32.214844 L 13.667969 31.886719 L 14.394531 31.960938 C 14.980469 32.023438 15.539062 31.8125 17.28125 30.863281 C 19.152344 29.84375 19.628906 29.671875 20.796875 29.585938 C 22.148438 29.484375 22.148438 29.488281 22.308594 30.054688 C 22.40625 30.394531 22.625 30.625 22.855469 30.625 C 23.3125 30.625 23.34375 30.457031 23 29.816406 C 22.800781 29.445312 22.828125 29.347656 23.132812 29.347656 C 23.566406 29.347656 23.800781 29.734375 24.628906 31.769531 C 25.195312 33.171875 25.207031 33.179688 25.675781 32.8125 C 25.992188 32.5625 26.230469 32.5 26.40625 32.625 C 26.871094 32.953125 24.605469 35.082031 23.3125 35.53125 Z M 11.9375 32.015625 L 12.460938 32.539062 L 10.578125 36.550781 L 9.015625 36.457031 C 8.15625 36.410156 7.402344 36.324219 7.339844 36.277344 C 7.277344 36.226562 6.742188 35.515625 6.148438 34.695312 L 5.074219 33.207031 L 6.136719 31.824219 C 6.71875 31.066406 7.308594 30.394531 7.445312 30.335938 C 7.871094 30.148438 11.386719 31.460938 11.9375 32.015625 Z M 51.082031 33.832031 C 50.0625 34.589844 48.027344 35.640625 48.027344 35.40625 C 48.027344 35.320312 48.210938 34.8125 48.433594 34.277344 C 48.6875 33.664062 48.777344 33.0625 48.664062 32.648438 L 48.492188 31.992188 L 48.019531 32.878906 C 47.269531 34.285156 46.566406 34.667969 45.355469 34.339844 C 45.128906 34.277344 44.699219 33.886719 44.402344 33.472656 C 43.886719 32.753906 43.855469 32.738281 43.609375 33.132812 C 43.46875 33.355469 43.277344 33.542969 43.183594 33.542969 C 42.808594 33.542969 41.875 32.414062 42.011719 32.117188 C 42.21875 31.652344 45.683594 29.53125 46.238281 29.53125 C 47.125 29.53125 47.558594 29.730469 47.246094 30 C 47.027344 30.191406 47.152344 30.300781 47.816406 30.496094 C 48.285156 30.636719 49.4375 31.167969 50.378906 31.675781 C 51.316406 32.183594 52.324219 32.652344 52.613281 32.71875 C 53.222656 32.855469 53.074219 33.175781 52.40625 33.175781 C 52.164062 33.175781 51.566406 33.472656 51.082031 33.832031 Z M 11.753906 47.050781 C 10.699219 47.234375 9.808594 47.382812 9.773438 47.390625 C 9.566406 47.410156 9.804688 46.84375 10.496094 45.652344 C 10.9375 44.898438 11.445312 44.296875 11.640625 44.296875 C 11.832031 44.296875 12.398438 44.4375 12.902344 44.609375 C 13.789062 44.910156 13.816406 44.945312 13.746094 45.820312 L 13.667969 46.722656 Z M 19.925781 34.085938 C 20.371094 34.488281 20.789062 34.816406 20.851562 34.816406 C 20.914062 34.816406 21.523438 34.613281 22.203125 34.367188 C 23.414062 33.929688 23.445312 33.898438 23.621094 32.898438 C 23.800781 31.867188 23.652344 31.367188 23.359375 32.011719 C 22.308594 34.3125 20.257812 34.207031 19.539062 31.8125 C 19.394531 31.324219 19.347656 31.304688 19.113281 31.605469 C 18.675781 32.160156 19.046875 33.296875 19.925781 34.085938 Z M 2.449219 40.34375 C 2.46875 40.4375 2.488281 40.492188 2.511719 40.5 C 2.625 40.53125 3.023438 41.460938 3.394531 42.566406 C 3.769531 43.667969 4.351562 45.246094 4.691406 46.074219 C 5.027344 46.902344 5.222656 47.578125 5.121094 47.578125 C 5.027344 47.578125 4.679688 47.378906 4.355469 47.132812 C 3.753906 46.671875 3.351562 45.625 3.332031 44.457031 C 3.320312 43.867188 3.257812 43.808594 2.71875 43.882812 C 2.390625 43.925781 2.121094 44.117188 1.707031 44.671875 C 2.03125 44.226562 2.285156 43.933594 2.359375 43.933594 C 2.476562 43.933594 2.515625 42.34375 2.449219 40.34375 Z M 59.339844 30.792969 C 59.128906 30.539062 58.734375 30.128906 58.457031 29.882812 L 57.953125 29.441406 L 58.101562 30.203125 C 58.183594 30.625 58.367188 31.191406 58.511719 31.460938 C 58.769531 31.941406 58.785156 31.945312 59.246094 31.605469 C 59.671875 31.296875 59.679688 31.21875 59.339844 30.792969 Z M 21.332031 31.140625 C 22.101562 31.570312 22.480469 31.519531 22.480469 30.984375 C 22.480469 30.320312 20.035156 30.300781 19.726562 30.957031 C 19.636719 31.152344 19.710938 31.15625 20.125 30.972656 C 20.554688 30.78125 20.742188 30.808594 21.332031 31.140625 Z M 59.195312 44.730469 C 59.097656 44.660156 59.015625 44.402344 59.015625 44.164062 C 59.015625 43.792969 59.125 43.734375 59.71875 43.78125 C 60.273438 43.828125 60.417969 43.9375 60.417969 44.296875 C 60.417969 44.617188 60.261719 44.769531 59.898438 44.804688 C 59.613281 44.835938 59.296875 44.800781 59.195312 44.730469 Z M 4.753906 34.820312 C 4.695312 35.375 4.460938 36.113281 4.238281 36.460938 L 3.828125 37.097656 L 3.960938 36.042969 C 4.035156 35.460938 4.265625 34.722656 4.476562 34.402344 L 4.855469 33.816406 Z M 45.476562 31.640625 C 45.476562 31.238281 45.585938 31.171875 46.257812 31.171875 C 46.925781 31.171875 47.03125 31.234375 46.960938 31.582031 C 46.902344 31.875 46.679688 32.007812 46.175781 32.050781 C 45.570312 32.097656 45.476562 32.042969 45.476562 31.640625 Z M 1.894531 16.8125 C 2.078125 21.46875 2.246094 28.878906 2.296875 34.304688 C 2.25 32.160156 2.207031 29.753906 2.171875 27.527344 C 2.117188 23.96875 2.003906 19.78125 1.894531 16.8125 Z M 1.828125 3.625 C 1.707031 5.847656 1.644531 9.074219 1.6875 11.75 C 1.644531 9.09375 1.703125 5.859375 1.828125 3.625 Z M 1.828125 3.625 "/>
<path style=" stroke:none;fill-rule:nonzero;fill:rgb(37.64706%,14.509805%,9.803922%);fill-opacity:1;" d="M 19.460938 67.449219 C 10.84375 66.066406 3.773438 64.902344 3.75 64.867188 C 3.722656 64.832031 2.984375 63.738281 2.117188 62.433594 L 0.527344 60.066406 L 0.386719 57.421875 C 0.351562 56.75 0.304688 55.785156 0.253906 54.734375 L 0.382812 55.871094 L 0.453125 53.640625 C 0.496094 52.414062 0.417969 51.140625 0.285156 50.816406 C 0.164062 50.511719 0.101562 50.398438 0.0703125 50.53125 L -0.0625 47.394531 L 1.023438 45.679688 C 1.886719 44.320312 2.242188 43.949219 2.71875 43.882812 C 3.257812 43.808594 3.320312 43.867188 3.332031 44.457031 C 3.351562 45.625 3.753906 46.671875 4.355469 47.132812 C 4.367188 47.140625 4.378906 47.148438 4.390625 47.15625 C 4.332031 47.117188 4.273438 47.074219 4.21875 47.035156 C 3.53125 46.519531 3.457031 46.507812 3.019531 46.789062 C 2.765625 46.953125 2.554688 47.183594 2.554688 47.296875 C 2.554688 47.410156 3.703125 48.429688 5.109375 49.554688 C 6.515625 50.683594 7.664062 51.648438 7.664062 51.699219 C 7.664062 51.917969 6.019531 51.019531 2.710938 48.988281 C 1.601562 48.308594 0.636719 47.792969 0.570312 47.839844 C 0.417969 47.949219 1.636719 49.632812 2.390625 50.359375 C 2.691406 50.648438 3.96875 51.515625 5.234375 52.285156 C 7.992188 53.957031 15.261719 58.996094 15.636719 59.496094 C 15.890625 59.835938 15.824219 59.84375 13.902344 59.726562 C 12.804688 59.660156 10.476562 59.441406 8.734375 59.234375 C 6.992188 59.03125 4.960938 58.886719 4.222656 58.917969 L 2.882812 58.972656 L 3.339844 59.96875 C 3.589844 60.515625 3.984375 61.0625 4.214844 61.179688 C 4.769531 61.472656 7.160156 61.765625 10.730469 61.992188 C 13.660156 62.171875 15.15625 62.394531 20.65625 63.46875 C 23.542969 64.035156 23.574219 64.046875 25.511719 65.339844 C 26.585938 66.054688 28.121094 66.992188 28.917969 67.425781 C 30.222656 68.125 30.34375 68.246094 30.070312 68.5625 C 29.820312 68.847656 29.835938 68.949219 30.144531 69.09375 C 30.730469 69.355469 31.421875 69.304688 31.421875 68.996094 C 31.421875 68.847656 31.511719 68.726562 31.613281 68.726562 C 31.996094 68.734375 32.574219 69.082031 32.574219 69.308594 C 32.574219 69.4375 33.136719 69.636719 33.851562 69.753906 C 33.925781 69.765625 34 69.777344 34.066406 69.789062 C 31.636719 69.402344 25.972656 68.5 19.460938 67.449219 Z M 41.304688 17.511719 C 38.992188 18.132812 38.207031 18.152344 36.277344 17.660156 C 35.507812 17.464844 31.652344 16.894531 27.71875 16.398438 C 16.980469 15.039062 16.257812 14.902344 14.253906 13.855469 C 12.738281 13.058594 12.554688 12.894531 12.398438 12.183594 C 12.304688 11.75 12.164062 11.117188 12.082031 10.777344 L 11.9375 10.167969 L 14.078125 10.300781 C 15.96875 10.421875 16.382812 10.515625 17.625 11.117188 C 20.566406 12.539062 21.351562 12.730469 25.203125 12.949219 C 27.148438 13.058594 29.140625 13.238281 29.636719 13.347656 C 30.503906 13.539062 35.738281 15.578125 37.0625 16.238281 L 37.726562 16.570312 L 39.875 15.542969 C 43.589844 13.765625 48.261719 11.78125 52.628906 10.121094 C 54.945312 9.234375 57.820312 8.125 59.015625 7.652344 C 61.777344 6.566406 63.359375 5.992188 63.359375 6.078125 C 63.359375 6.113281 61.8125 6.980469 59.921875 8 C 56.535156 9.828125 53.722656 11.789062 54.101562 12.0625 C 54.203125 12.136719 55.234375 12.21875 56.386719 12.253906 L 58.484375 12.304688 L 57.023438 13.183594 C 54.476562 14.714844 52.828125 15.261719 50.132812 15.472656 C 48.433594 15.605469 47.140625 15.84375 45.535156 16.320312 C 44.308594 16.683594 42.402344 17.21875 41.304688 17.511719 Z M 11.753906 47.050781 L 13.667969 46.722656 L 13.746094 45.820312 C 13.777344 45.40625 13.789062 45.179688 13.703125 45.027344 C 13.761719 45.078125 13.796875 45.121094 13.796875 45.160156 C 13.796875 45.847656 17.753906 48.460938 18.25 48.105469 C 18.324219 48.054688 18.457031 46.746094 18.550781 45.195312 C 18.589844 44.542969 18.613281 44.027344 18.625 43.609375 C 18.613281 44.046875 18.589844 44.597656 18.550781 45.300781 L 18.382812 48.214844 L 19.730469 49.933594 C 20.558594 50.988281 21.816406 52.214844 23 53.121094 C 24.054688 53.933594 25.195312 54.882812 25.53125 55.234375 C 26.941406 56.714844 28.296875 57.492188 30.019531 57.808594 C 30.4375 57.882812 32.617188 57.933594 34.863281 57.917969 L 38.804688 57.890625 C 38.679688 57.953125 38.550781 58.015625 38.421875 58.078125 C 35.925781 59.277344 34.433594 60.367188 32.773438 62.214844 C 32.101562 62.960938 31.4375 63.707031 31.296875 63.875 C 31.078125 64.136719 30.617188 63.875 28.230469 62.15625 C 26.683594 61.039062 24.613281 59.6875 23.632812 59.152344 C 21.25 57.859375 12.984375 53.015625 11.117188 51.824219 C 9.683594 50.910156 9.644531 50.859375 10.019531 50.457031 C 10.289062 50.167969 10.984375 49.925781 12.292969 49.667969 L 14.179688 49.292969 L 14.097656 48.121094 C 14.054688 47.476562 13.996094 46.929688 13.960938 46.90625 C 13.929688 46.882812 13.21875 46.980469 12.378906 47.125 C 11.257812 47.316406 10.652344 47.449219 10.195312 47.316406 C 10.5625 47.253906 11.128906 47.160156 11.753906 47.050781 Z M 58.9375 42.742188 C 59.140625 42.34375 59.269531 42.066406 59.269531 42.003906 C 59.269531 41.859375 59.039062 41.746094 58.757812 41.746094 C 58.066406 41.746094 58.101562 41.660156 59.191406 40.710938 L 60.132812 39.890625 L 59.304688 37.855469 C 56.835938 31.769531 56.640625 31.355469 56.261719 31.355469 C 56.050781 31.355469 55.078125 31.523438 54.101562 31.730469 C 53.125 31.941406 52.296875 32.082031 52.265625 32.050781 C 52.230469 32.015625 51.949219 31.726562 51.632812 31.398438 L 51.058594 30.808594 L 55.96875 30.808594 L 50.292969 22.878906 L 51.867188 24.0625 C 54.1875 25.8125 57.484375 28.726562 58.667969 30.078125 C 58.671875 30.082031 58.675781 30.085938 58.675781 30.089844 C 58.597656 30.015625 58.523438 29.945312 58.457031 29.882812 L 57.953125 29.441406 L 58.101562 30.203125 C 58.183594 30.625 58.367188 31.191406 58.511719 31.460938 C 58.769531 31.941406 58.785156 31.945312 59.246094 31.605469 C 59.554688 31.382812 59.644531 31.277344 59.539062 31.082031 C 60.417969 32.089844 61.113281 32.910156 61.671875 33.605469 C 61.617188 33.5625 61.574219 33.542969 61.542969 33.542969 C 61.347656 33.542969 61.222656 33.742188 60.511719 35.183594 C 60.03125 36.15625 60.027344 36.238281 60.460938 38.046875 C 60.714844 39.105469 60.832031 39.59375 60.707031 40.042969 C 60.597656 40.449219 60.285156 40.828125 59.6875 41.5625 C 59.5625 41.714844 59.277344 42.171875 58.9375 42.742188 Z M 39.910156 69.160156 C 40.164062 69.035156 40.363281 68.820312 40.363281 68.554688 C 40.363281 68.089844 40.539062 68.015625 43.621094 67.226562 C 48.742188 65.914062 57.734375 64.269531 62.4375 63.789062 C 63.292969 63.703125 64.945312 63.679688 66.101562 63.742188 C 67.851562 63.835938 68.164062 63.898438 67.921875 64.105469 C 67.617188 64.367188 67.65625 64.476562 67.914062 64.410156 C 66.714844 64.863281 64.359375 65.207031 59.269531 65.898438 C 54.589844 66.535156 48.660156 67.507812 43.625 68.460938 C 42.296875 68.714844 41.03125 68.953125 39.910156 69.160156 Z M 17.878906 23.894531 C 17.703125 24.492188 17.464844 25.023438 17.355469 25.070312 C 17.246094 25.121094 17.027344 24.878906 16.867188 24.535156 C 16.566406 23.882812 15.699219 23.53125 14.332031 23.5 C 13.9375 23.492188 14.652344 23.246094 16.09375 22.890625 C 20.628906 21.769531 23.875 20.503906 25.660156 19.160156 C 26.070312 18.847656 26.5625 18.59375 26.757812 18.59375 C 26.949219 18.59375 27.847656 18.898438 28.753906 19.273438 L 30.402344 19.949219 L 29.191406 20.191406 C 26.496094 20.730469 22.136719 21.730469 20.230469 22.25 L 18.207031 22.800781 Z M 29.292969 41.101562 C 29.902344 40.28125 30.332031 39.570312 30.253906 39.515625 C 30.015625 39.34375 34.25 39.148438 36.726562 39.21875 C 38.003906 39.253906 39.128906 39.34375 39.230469 39.417969 C 39.65625 39.71875 40.625 42.542969 40.371094 42.726562 C 40.28125 42.789062 40.207031 42.941406 40.15625 43.125 C 40.210938 42.121094 39.957031 42.050781 37.898438 42.1875 L 36.53125 42.273438 L 36.722656 42.257812 C 37.3125 42.210938 37.5 42.050781 37.90625 41.238281 C 38.171875 40.710938 38.347656 40.246094 38.292969 40.214844 C 38.238281 40.183594 37.707031 40.101562 37.109375 40.035156 L 36.023438 39.917969 L 36.023438 42.304688 L 36.015625 42.308594 L 33.910156 41.25 C 32.753906 40.664062 31.496094 40.050781 31.121094 39.878906 L 30.4375 39.566406 Z M 12.308594 44.429688 C 12.011719 44.347656 11.757812 44.296875 11.640625 44.296875 C 11.445312 44.296875 10.9375 44.898438 10.496094 45.652344 C 10.105469 46.324219 9.859375 46.792969 9.757812 47.074219 C 9.355469 46.734375 8.972656 46.042969 8.230469 44.796875 C 6.828125 42.445312 5.875 40.519531 5.875 40.035156 C 5.875 39.765625 7.222656 40.71875 9.371094 42.519531 C 10.714844 43.644531 11.449219 44.128906 12.308594 44.429688 Z M 5.839844 22.71875 C 5.238281 23.15625 4.683594 23.515625 4.609375 23.515625 C 4.445312 23.515625 2.816406 20.171875 2.941406 20.082031 C 3.121094 19.949219 4.851562 20.65625 5.867188 21.273438 L 6.933594 21.925781 Z M 14.316406 16.03125 C 13.863281 16.4375 13.398438 16.769531 13.273438 16.769531 C 13 16.769531 11.078125 14.777344 10.742188 14.148438 C 10.503906 13.703125 10.53125 13.707031 12.714844 14.425781 C 13.933594 14.824219 14.980469 15.183594 15.03125 15.222656 C 15.089844 15.261719 14.765625 15.628906 14.316406 16.03125 Z M 57.992188 17.59375 C 57.992188 17.746094 57.621094 18.160156 57.164062 18.515625 C 56.496094 19.035156 56.269531 19.117188 56.011719 18.933594 C 55.566406 18.609375 55.613281 18.351562 56.222656 17.796875 C 56.808594 17.265625 57.992188 17.128906 57.992188 17.59375 Z M 54.363281 16.917969 C 53.984375 17.1875 53.890625 17.183594 53.332031 16.882812 C 52.867188 16.628906 52.703125 15.675781 53.121094 15.675781 C 54.328125 15.675781 55.070312 16.414062 54.363281 16.917969 Z M 37.667969 69.578125 C 37.734375 69.53125 37.550781 69.503906 37.171875 69.449219 L 36.40625 69.339844 L 37.554688 68.972656 C 38.652344 68.621094 38.707031 68.617188 38.785156 68.9375 C 38.835938 69.148438 39.015625 69.257812 39.234375 69.285156 C 38.660156 69.394531 38.132812 69.492188 37.667969 69.578125 Z M 11.851562 17.894531 C 11.695312 18.078125 11.136719 18.09375 10.902344 17.925781 C 10.804688 17.859375 10.730469 17.613281 10.730469 17.378906 C 10.730469 17.082031 10.878906 16.953125 11.210938 16.953125 C 11.683594 16.953125 12.117188 17.589844 11.851562 17.894531 Z M 65.394531 43.535156 C 65.464844 43.5625 65.550781 43.566406 65.65625 43.566406 C 66.125 43.566406 66.171875 43.433594 66.226562 41.972656 C 66.371094 38.128906 66.398438 37.253906 66.519531 37.246094 C 66.542969 37.246094 66.570312 37.285156 66.605469 37.34375 C 66.570312 37.347656 66.515625 37.457031 66.453125 37.644531 C 66.363281 37.945312 66.355469 39.378906 66.441406 40.832031 C 66.535156 42.441406 66.503906 43.523438 66.355469 43.589844 C 66.222656 43.652344 65.894531 43.664062 65.628906 43.617188 C 65.535156 43.597656 65.457031 43.574219 65.394531 43.535156 Z M 21.941406 29.554688 C 22.148438 29.578125 22.226562 29.632812 22.226562 29.722656 C 22.226562 29.878906 22.351562 29.84375 22.574219 29.628906 C 22.65625 29.546875 22.765625 29.480469 22.878906 29.4375 C 22.855469 29.507812 22.894531 29.625 23 29.816406 C 23.34375 30.457031 23.3125 30.625 22.855469 30.625 C 22.625 30.625 22.40625 30.394531 22.308594 30.054688 C 22.222656 29.746094 22.183594 29.605469 21.941406 29.554688 Z M 62.703125 34.957031 C 63.402344 35.949219 63.75 36.664062 64.027344 37.484375 C 63.808594 36.847656 63.246094 35.808594 62.703125 34.957031 Z M 23.3125 35.53125 C 23.890625 35.332031 24.660156 34.796875 25.292969 34.238281 C 24.613281 34.90625 24.042969 35.277344 23.3125 35.53125 Z M 68.652344 64.015625 C 68.914062 63.769531 69.179688 63.339844 69.417969 62.785156 C 69.398438 62.832031 69.375 62.886719 69.359375 62.9375 C 69.175781 63.398438 69.007812 63.738281 68.652344 64.015625 Z M 40.738281 56.855469 C 41.984375 56.140625 43.480469 55.105469 44.949219 53.984375 C 43.363281 55.21875 41.921875 56.195312 40.414062 57.042969 Z M 24.933594 32.5 C 24.851562 32.316406 24.753906 32.078125 24.628906 31.769531 C 24.546875 31.570312 24.472656 31.386719 24.402344 31.21875 C 24.621094 31.683594 24.816406 32.152344 24.933594 32.5 Z M 66.648438 37.410156 C 66.660156 37.425781 66.667969 37.445312 66.679688 37.460938 L 66.8125 37.683594 C 66.808594 37.699219 66.804688 37.703125 66.800781 37.710938 C 66.734375 37.757812 66.667969 37.636719 66.652344 37.445312 C 66.648438 37.433594 66.648438 37.421875 66.648438 37.410156 Z M 67.988281 15.597656 C 68.054688 13.855469 68.101562 12.308594 68.128906 11.050781 C 68.210938 7.386719 68.246094 5.527344 68.203125 4.59375 C 68.246094 5.511719 68.210938 7.324219 68.136719 10.871094 C 68.105469 12.152344 68.058594 13.777344 67.988281 15.597656 Z M 26.4375 32.65625 C 26.429688 32.644531 26.417969 32.632812 26.40625 32.625 C 26.320312 32.5625 26.21875 32.546875 26.101562 32.578125 C 26.332031 32.480469 26.441406 32.519531 26.4375 32.65625 Z M 40.101562 43.726562 C 40.078125 44.109375 39.992188 44.351562 39.808594 44.496094 C 39.964844 44.359375 40.050781 44.121094 40.101562 43.726562 Z M 34.949219 69.929688 C 35.160156 69.957031 35.320312 69.96875 35.476562 69.964844 C 35.386719 69.980469 35.335938 69.984375 35.324219 69.984375 C 35.308594 69.984375 35.179688 69.964844 34.949219 69.929688 Z M 25.675781 32.8125 C 25.53125 32.925781 25.433594 33 25.34375 33.015625 C 25.425781 32.972656 25.527344 32.910156 25.648438 32.832031 C 25.65625 32.824219 25.664062 32.820312 25.675781 32.8125 Z M 17.28125 30.863281 C 18.550781 30.171875 19.167969 29.871094 19.804688 29.722656 C 19.171875 29.871094 18.542969 30.175781 17.28125 30.863281 Z M 5.125 47.578125 C 5.210938 47.574219 5.054688 47.007812 4.773438 46.277344 C 5.058594 47.007812 5.214844 47.578125 5.125 47.578125 Z M 38.878906 44.683594 C 38.511719 44.699219 38.628906 44.734375 39.324219 44.914062 C 38.621094 44.730469 38.503906 44.695312 38.878906 44.683594 Z M 57.832031 46.667969 C 57.34375 46.371094 57.027344 46.113281 57.074219 46.03125 C 57.089844 46.011719 57.101562 45.988281 57.113281 45.96875 C 57.097656 46 57.082031 46.023438 57.074219 46.03125 C 57.027344 46.113281 57.34375 46.371094 57.832031 46.667969 Z M 51.175781 48.238281 C 51.285156 48.058594 51.34375 47.910156 51.339844 47.808594 C 51.34375 47.910156 51.285156 48.054688 51.175781 48.238281 Z M 20.828125 29.582031 C 20.832031 29.582031 20.839844 29.582031 20.847656 29.582031 C 20.84375 29.582031 20.839844 29.582031 20.835938 29.582031 C 20.832031 29.582031 20.832031 29.582031 20.828125 29.582031 Z M 20.828125 29.582031 "/>
<path style=" stroke:none;fill-rule:nonzero;fill:rgb(66.274512%,30.19608%,8.235294%);fill-opacity:1;" d="M 21.894531 63.714844 C 21.546875 63.644531 21.144531 63.566406 20.65625 63.46875 C 15.15625 62.394531 13.660156 62.171875 10.730469 61.992188 C 7.160156 61.765625 4.769531 61.472656 4.214844 61.179688 C 3.984375 61.0625 3.589844 60.515625 3.339844 59.96875 L 2.882812 58.972656 L 4.222656 58.917969 C 4.960938 58.886719 6.992188 59.03125 8.734375 59.234375 C 10.476562 59.441406 12.804688 59.660156 13.902344 59.726562 C 15.824219 59.84375 15.890625 59.835938 15.636719 59.496094 C 15.261719 58.996094 7.992188 53.957031 5.234375 52.285156 C 3.96875 51.515625 2.691406 50.648438 2.390625 50.359375 C 1.636719 49.632812 0.417969 47.949219 0.570312 47.839844 C 0.636719 47.792969 1.601562 48.308594 2.710938 48.988281 C 6.019531 51.019531 7.664062 51.917969 7.664062 51.699219 C 7.664062 51.648438 6.515625 50.683594 5.109375 49.554688 C 3.703125 48.429688 2.554688 47.410156 2.554688 47.296875 C 2.554688 47.183594 2.765625 46.953125 3.019531 46.789062 C 3.457031 46.507812 3.53125 46.519531 4.21875 47.035156 C 4.617188 47.332031 5.03125 47.578125 5.125 47.578125 C 5.226562 47.578125 5.027344 46.902344 4.691406 46.074219 C 4.507812 45.625 4.25 44.949219 3.996094 44.253906 C 4.117188 44.582031 4.246094 44.910156 4.371094 45.230469 L 5.417969 47.898438 L 7.519531 49.390625 L 9.625 50.882812 L 10.03125 50.445312 C 10.339844 50.105469 10.386719 49.832031 10.222656 49.292969 C 10.101562 48.898438 9.953125 48.292969 9.886719 47.941406 C 9.832031 47.652344 9.351562 46.699219 8.746094 45.667969 C 9.375 46.714844 9.699219 47.175781 10.195312 47.316406 C 10.652344 47.449219 11.257812 47.316406 12.378906 47.125 C 13.21875 46.980469 13.929688 46.882812 13.960938 46.90625 C 13.996094 46.929688 14.054688 47.476562 14.097656 48.121094 L 14.179688 49.292969 L 12.292969 49.667969 C 10.984375 49.925781 10.289062 50.167969 10.019531 50.457031 C 9.644531 50.859375 9.683594 50.910156 11.117188 51.824219 C 12.984375 53.015625 21.25 57.859375 23.632812 59.152344 C 24.613281 59.6875 26.683594 61.039062 28.230469 62.15625 C 30.617188 63.875 31.078125 64.136719 31.296875 63.875 C 31.351562 63.808594 31.496094 63.640625 31.695312 63.421875 C 31.652344 63.476562 31.613281 63.53125 31.570312 63.589844 L 31.132812 64.195312 L 27.964844 61.992188 C 25.570312 60.332031 24.628906 59.792969 24.132812 59.792969 C 23.402344 59.792969 23.425781 59.859375 24.53125 60.886719 C 24.90625 61.234375 25.433594 61.765625 25.699219 62.058594 C 26.144531 62.558594 26.039062 62.53125 24.269531 61.683594 C 22.136719 60.664062 19.292969 59.425781 19.089844 59.425781 C 19.015625 59.425781 19.113281 59.804688 19.308594 60.269531 L 19.664062 61.109375 L 18.835938 61 C 17.433594 60.824219 11.335938 60.480469 10.828125 60.550781 C 9.921875 60.679688 15.269531 62.460938 18.082031 62.96875 C 19.542969 63.234375 20.792969 63.476562 21.894531 63.714844 Z M 11.9375 32.015625 C 11.632812 31.707031 10.414062 31.167969 9.316406 30.777344 C 9.332031 30.785156 9.347656 30.785156 9.359375 30.792969 C 10.285156 31.101562 11.089844 31.355469 11.148438 31.355469 C 11.207031 31.355469 11.230469 31.046875 11.207031 30.671875 C 11.160156 30.058594 11.417969 27.925781 11.625 27.148438 C 11.671875 26.984375 11.78125 26.449219 11.878906 25.957031 C 12.3125 23.660156 12.328125 23.632812 13.285156 23.457031 C 18.667969 22.472656 23.484375 20.796875 25.660156 19.160156 C 23.875 20.503906 20.628906 21.769531 16.09375 22.890625 C 14.652344 23.246094 13.9375 23.492188 14.332031 23.5 C 15.699219 23.53125 16.566406 23.882812 16.867188 24.535156 C 17.027344 24.878906 17.246094 25.121094 17.355469 25.070312 C 17.464844 25.023438 17.703125 24.492188 17.878906 23.894531 L 18.207031 22.800781 L 18.789062 22.640625 C 18.648438 22.683594 18.542969 22.71875 18.492188 22.746094 C 18.332031 22.816406 18.035156 23.410156 17.828125 24.0625 C 17.367188 25.515625 17.5625 26.023438 19.140625 27.476562 L 20.257812 28.511719 L 20.769531 27.289062 C 21.050781 26.617188 21.351562 26.066406 21.433594 26.066406 C 21.730469 26.070312 24.40625 28.804688 25.21875 29.9375 C 26.265625 31.394531 26.34375 32.109375 25.335938 30.980469 C 24.9375 30.535156 24.402344 30.046875 24.148438 29.898438 C 23.71875 29.644531 23.699219 29.65625 23.898438 30.082031 C 23.96875 30.230469 24.121094 30.582031 24.296875 31 C 23.898438 30.1875 23.464844 29.4375 23.292969 29.390625 C 23.085938 29.335938 22.761719 29.441406 22.574219 29.628906 C 22.351562 29.84375 22.226562 29.878906 22.226562 29.722656 C 22.226562 29.539062 21.894531 29.503906 20.835938 29.582031 C 20.535156 29.605469 20.28125 29.632812 20.042969 29.671875 C 20.160156 29.640625 20.257812 29.589844 20.3125 29.53125 C 20.398438 29.429688 20.722656 29.347656 21.03125 29.347656 C 21.339844 29.347656 21.746094 29.171875 21.933594 28.957031 C 22.273438 28.570312 22.265625 28.566406 20.820312 28.6875 C 19.589844 28.789062 19.226562 28.75 18.484375 28.421875 C 17.710938 28.078125 17.550781 28.0625 17.167969 28.292969 C 15.425781 29.332031 12.519531 31.25 12.519531 31.359375 C 12.519531 31.496094 13.546875 31.824219 14.433594 31.960938 C 14.453125 31.964844 14.476562 31.96875 14.492188 31.96875 C 14.460938 31.96875 14.425781 31.96875 14.394531 31.960938 L 13.667969 31.886719 L 14.296875 32.214844 C 16.960938 33.59375 17.921875 34.195312 18.917969 35.09375 C 20.03125 36.101562 20.074219 36.117188 21.117188 36.023438 C 21.601562 35.976562 22.371094 35.816406 22.972656 35.636719 C 21.667969 36.089844 19.976562 36.265625 17.5625 36.273438 L 15.328125 36.277344 L 15.328125 36.792969 C 15.328125 37.859375 15.914062 40.382812 16.191406 40.511719 C 16.382812 40.601562 16.390625 40.644531 16.203125 40.648438 C 16.050781 40.648438 15.679688 40.460938 15.371094 40.230469 C 14.886719 39.859375 14.816406 39.601562 14.816406 38.167969 C 14.816406 37.199219 14.648438 36.117188 14.410156 35.535156 C 13.960938 34.449219 12.808594 32.8125 12.492188 32.8125 C 12.417969 32.8125 12.179688 33.1875 11.894531 33.742188 L 12.460938 32.539062 Z M 42.769531 62.765625 L 42.121094 62.363281 C 41.40625 61.921875 38.875 59.789062 38.488281 59.304688 C 38.304688 59.074219 39.085938 59.1875 41.472656 59.730469 L 42.707031 60.011719 L 44.511719 59.128906 C 46.601562 58.101562 50.25 55.675781 53.496094 53.152344 L 55.757812 51.394531 L 55.308594 49.800781 C 54.988281 48.683594 54.90625 47.898438 55.039062 47.164062 C 55.21875 46.125 55.222656 46.121094 56.085938 46.121094 C 56.761719 46.121094 56.980469 46.117188 57.460938 45.386719 C 57.332031 45.609375 57.199219 45.824219 57.074219 46.03125 C 57.011719 46.132812 57.554688 46.535156 58.277344 46.917969 L 59.59375 47.621094 L 59.46875 49.777344 C 59.375 51.425781 59.238281 52.058594 58.890625 52.445312 C 58.234375 53.175781 56.5625 54.273438 50.199219 58.148438 C 47.109375 60.03125 44.121094 61.875 43.558594 62.242188 Z M 68.667969 57.445312 C 68.261719 56.339844 67.921875 55.515625 67.863281 55.472656 C 67.785156 55.414062 66.652344 55.746094 65.347656 56.203125 C 64.042969 56.660156 62.53125 57.164062 61.984375 57.320312 C 61.554688 57.445312 61.269531 57.546875 61.21875 57.503906 C 61.128906 57.429688 61.703125 56.957031 63.378906 55.507812 C 64.304688 54.707031 65.351562 53.722656 65.703125 53.320312 C 66.5 52.414062 67.445312 50.628906 67.445312 50.03125 C 67.445312 49.625 67.394531 49.605469 66.933594 49.808594 C 66.652344 49.933594 66.421875 50.140625 66.421875 50.265625 C 66.421875 50.390625 66.3125 50.496094 66.171875 50.496094 C 66.03125 50.496094 65.582031 50.976562 65.164062 51.566406 C 64.410156 52.628906 64.398438 52.632812 63.105469 52.722656 C 62.035156 52.796875 61.394531 53.015625 59.449219 53.964844 C 59.402344 53.988281 59.351562 54.011719 59.296875 54.039062 C 61.535156 52.910156 62.148438 52.484375 62.804688 51.710938 C 63.617188 50.742188 64.179688 49.21875 63.71875 49.21875 C 63.597656 49.21875 62.839844 49.6875 62.03125 50.253906 C 61.222656 50.828125 60.476562 51.234375 60.371094 51.15625 C 60.265625 51.082031 60.136719 50.472656 60.082031 49.800781 C 59.992188 48.640625 60.035156 48.53125 60.925781 47.609375 C 61.441406 47.070312 61.808594 46.589844 61.734375 46.542969 C 61.660156 46.488281 61.1875 46.546875 60.675781 46.667969 C 60.164062 46.789062 59.671875 46.835938 59.585938 46.769531 C 59.414062 46.648438 62.316406 44.480469 62.652344 44.480469 C 62.765625 44.480469 62.96875 44.683594 63.101562 44.933594 C 63.234375 45.1875 63.515625 45.390625 63.722656 45.390625 C 63.929688 45.390625 64.652344 45.476562 65.328125 45.578125 L 66.5625 45.769531 L 67.257812 47.558594 C 67.890625 49.179688 67.957031 49.636719 67.957031 52.390625 C 67.957031 54.984375 67.980469 55.441406 68.667969 57.445312 Z M 14.316406 16.03125 C 14.765625 15.628906 15.089844 15.261719 15.03125 15.222656 C 14.980469 15.183594 13.933594 14.824219 12.714844 14.425781 C 10.53125 13.707031 10.503906 13.703125 10.742188 14.148438 C 11.078125 14.777344 13 16.769531 13.273438 16.769531 C 13.300781 16.769531 13.347656 16.753906 13.402344 16.726562 C 13.375 16.742188 13.351562 16.765625 13.324219 16.785156 L 11.878906 17.859375 C 12.082031 17.542969 11.667969 16.953125 11.210938 16.953125 C 10.878906 16.953125 10.730469 17.082031 10.730469 17.378906 C 10.730469 17.613281 10.804688 17.859375 10.902344 17.925781 C 11.085938 18.058594 11.480469 18.078125 11.707031 17.988281 L 10.597656 18.816406 L 10.089844 16.929688 C 9.472656 14.640625 9.457031 12.195312 10.054688 10.582031 C 10.292969 9.9375 10.539062 9.375 10.597656 9.328125 C 10.660156 9.289062 11.375 9.140625 12.1875 9.007812 L 13.667969 8.761719 L 14.816406 9.550781 C 15.453125 9.988281 16.320312 10.480469 17.273438 10.949219 C 16.285156 10.496094 15.777344 10.410156 14.078125 10.300781 L 11.9375 10.167969 L 12.082031 10.777344 C 12.164062 11.117188 12.304688 11.75 12.398438 12.183594 C 12.554688 12.894531 12.738281 13.058594 14.253906 13.855469 C 15.589844 14.554688 16.359375 14.847656 19.925781 15.371094 C 19.109375 15.261719 18.5625 15.179688 18.394531 15.152344 C 17.902344 15.058594 17.171875 14.933594 16.773438 14.867188 C 16.195312 14.773438 15.90625 14.878906 14.21875 16.121094 C 14.25 16.09375 14.285156 16.0625 14.316406 16.03125 Z M 40.359375 68.617188 C 40.363281 68.589844 40.363281 68.5625 40.363281 68.535156 C 40.363281 68.109375 40.246094 68.007812 39.664062 67.960938 C 39.132812 67.917969 39.925781 67.617188 42.917969 66.742188 C 47.550781 65.382812 51.976562 64.320312 54.671875 63.925781 C 61.199219 62.96875 66.328125 62.355469 67.871094 62.347656 C 68.28125 62.34375 68.46875 62.484375 68.59375 62.886719 C 68.777344 63.484375 68.945312 63.632812 69.171875 63.296875 C 68.925781 63.746094 68.660156 64.0625 68.410156 64.199219 C 67.765625 64.542969 67.472656 64.488281 67.921875 64.105469 C 68.164062 63.898438 67.851562 63.835938 66.101562 63.742188 C 64.945312 63.679688 63.292969 63.703125 62.4375 63.789062 C 57.734375 64.269531 48.742188 65.914062 43.621094 67.226562 C 40.539062 68.015625 40.363281 68.089844 40.363281 68.554688 C 40.363281 68.574219 40.363281 68.597656 40.359375 68.617188 Z M 33.851562 69.753906 C 33.136719 69.636719 32.574219 69.4375 32.574219 69.308594 C 32.574219 69.082031 31.996094 68.734375 31.613281 68.726562 C 31.511719 68.726562 31.421875 68.847656 31.421875 68.996094 C 31.421875 69.203125 31.105469 69.296875 30.714844 69.25 C 31.058594 69.265625 31.167969 69.082031 31.167969 68.632812 C 31.167969 67.917969 31.03125 67.863281 30.359375 68.296875 C 30.28125 68.347656 30.214844 68.394531 30.160156 68.445312 C 30.292969 68.203125 30.046875 68.03125 28.917969 67.425781 C 28.121094 66.992188 26.585938 66.054688 25.511719 65.339844 C 24.125 64.414062 23.710938 64.144531 22.53125 63.859375 C 25.898438 64.625 27.820312 65.398438 30.300781 66.796875 C 31.441406 67.4375 32.871094 68.140625 33.46875 68.363281 C 34.554688 68.753906 34.585938 68.757812 36.378906 68.445312 C 37.375 68.273438 38.335938 68.089844 38.511719 68.042969 C 38.730469 67.984375 38.832031 68.160156 38.832031 68.613281 C 38.832031 68.953125 38.898438 69.15625 39.039062 69.234375 C 38.914062 69.175781 38.824219 69.082031 38.785156 68.9375 C 38.707031 68.617188 38.652344 68.621094 37.554688 68.972656 L 36.40625 69.339844 L 37.171875 69.449219 C 37.914062 69.554688 37.902344 69.566406 36.738281 69.777344 C 36.113281 69.894531 35.808594 69.957031 35.5 69.964844 C 35.136719 69.976562 34.765625 69.90625 33.851562 69.753906 Z M 10.101562 19.183594 C 10.140625 19.210938 9.5625 19.71875 8.820312 20.3125 C 7.675781 21.234375 7.453125 21.34375 7.328125 21.042969 C 6.730469 19.597656 5.851562 17.09375 5.921875 17.042969 C 5.988281 16.996094 9.765625 18.929688 10.101562 19.183594 Z M 19.925781 34.085938 C 19.046875 33.296875 18.675781 32.160156 19.113281 31.605469 C 19.347656 31.304688 19.394531 31.324219 19.539062 31.8125 C 20.257812 34.207031 22.308594 34.3125 23.359375 32.011719 C 23.652344 31.367188 23.800781 31.867188 23.621094 32.898438 C 23.445312 33.898438 23.414062 33.929688 22.203125 34.367188 C 21.523438 34.613281 20.914062 34.816406 20.851562 34.816406 C 20.789062 34.816406 20.371094 34.488281 19.925781 34.085938 Z M 65.429688 22.679688 C 63.027344 25.90625 61.78125 26.1875 63.707031 23.066406 C 64.613281 21.597656 64.953125 21.222656 65.511719 21.089844 C 65.890625 21 66.277344 20.980469 66.375 21.050781 C 66.46875 21.117188 66.046875 21.851562 65.429688 22.679688 Z M 59.886719 19.992188 C 59.496094 20.375 59.101562 20.75 59.015625 20.828125 C 58.929688 20.902344 58.484375 20.6875 58.019531 20.347656 C 57.558594 20.007812 57.277344 19.691406 57.394531 19.640625 C 57.511719 19.589844 58.285156 19.492188 59.109375 19.421875 L 60.605469 19.292969 Z M 58.273438 54.554688 C 55.320312 56.050781 50.242188 58.746094 46.789062 60.652344 C 46.820312 60.632812 46.847656 60.617188 46.878906 60.601562 C 50.496094 58.574219 54.789062 56.296875 58.273438 54.554688 Z M 45.933594 61.128906 C 45.835938 61.179688 45.742188 61.234375 45.648438 61.285156 L 42.886719 62.835938 L 42.800781 62.785156 L 43.558594 62.402344 C 43.980469 62.1875 44.941406 61.671875 45.933594 61.128906 Z M 3.097656 41.730469 C 2.828125 41.027344 2.59375 40.523438 2.511719 40.5 C 2.410156 40.472656 2.328125 39.324219 2.3125 37.839844 C 2.328125 39.332031 2.417969 40.46875 2.519531 40.46875 C 2.640625 40.46875 2.871094 40.941406 3.03125 41.515625 C 3.046875 41.578125 3.070312 41.648438 3.097656 41.730469 Z M 38.421875 58.078125 C 36.886719 58.8125 35.507812 59.691406 34.308594 60.683594 C 35.457031 59.679688 36.699219 58.902344 38.421875 58.078125 Z M 25.335938 33.019531 C 25.128906 33.125 25.039062 33.109375 25.039062 32.980469 C 25.042969 32.886719 25.007812 32.738281 24.945312 32.550781 C 25.109375 32.910156 25.207031 33.035156 25.335938 33.019531 Z M 69.464844 62.675781 C 69.496094 62.585938 69.535156 62.488281 69.570312 62.378906 L 69.988281 61.199219 L 70.019531 61.28125 L 69.5 62.585938 C 69.484375 62.617188 69.476562 62.648438 69.464844 62.675781 Z M 38.597656 18.046875 C 38.445312 18.046875 38.203125 18.023438 37.910156 17.976562 C 38.496094 18.035156 39.042969 18.007812 39.71875 17.886719 C 39.195312 17.992188 38.824219 18.046875 38.597656 18.046875 Z M 20.347656 12.273438 C 20.410156 12.296875 20.472656 12.316406 20.53125 12.335938 C 19.808594 12.117188 19.082031 11.808594 18.132812 11.359375 C 18.871094 11.699219 19.632812 12.015625 20.347656 12.273438 Z M 25.539062 33.984375 C 26.125 33.367188 26.429688 32.886719 26.4375 32.660156 C 26.523438 32.824219 26.226562 33.261719 25.542969 33.980469 C 25.542969 33.980469 25.542969 33.984375 25.539062 33.984375 Z M 8.464844 45.191406 C 8.425781 45.132812 8.390625 45.074219 8.355469 45.015625 C 7.707031 43.960938 7.078125 42.824219 6.621094 41.902344 C 7.023438 42.707031 7.578125 43.707031 8.230469 44.796875 C 8.3125 44.933594 8.390625 45.066406 8.464844 45.191406 Z M 39.121094 69.265625 C 39.144531 69.269531 39.167969 69.269531 39.195312 69.269531 C 39.449219 69.269531 39.664062 69.246094 39.832031 69.195312 C 39.597656 69.292969 39.332031 69.324219 39.121094 69.265625 Z M 26.554688 20.746094 C 27.507812 20.539062 28.417969 20.347656 29.191406 20.191406 L 29.511719 20.128906 L 27.265625 20.59375 C 27.039062 20.640625 26.800781 20.691406 26.554688 20.746094 Z M 10.578125 36.546875 L 11.097656 35.445312 L 10.597656 36.550781 Z M 59.167969 42.273438 C 59.238281 42.074219 59.246094 41.945312 59.195312 41.867188 C 59.242188 41.90625 59.269531 41.953125 59.269531 42.003906 C 59.269531 42.035156 59.234375 42.132812 59.167969 42.273438 Z M 19.1875 29.917969 C 19.484375 29.789062 19.695312 29.714844 19.769531 29.714844 C 19.804688 29.714844 19.839844 29.710938 19.871094 29.707031 C 19.644531 29.757812 19.429688 29.824219 19.1875 29.917969 Z M 42.039062 17.3125 C 43.128906 17.011719 44.550781 16.609375 45.535156 16.320312 C 44.171875 16.722656 43.007812 17.050781 42.039062 17.3125 Z M 20.777344 22.101562 C 21.609375 21.886719 22.714844 21.621094 23.898438 21.34375 C 22.792969 21.605469 21.695312 21.871094 20.777344 22.101562 Z M 26.101562 32.578125 C 25.988281 32.625 25.84375 32.699219 25.675781 32.8125 C 25.835938 32.6875 25.976562 32.605469 26.101562 32.578125 Z M 29.921875 68.9375 C 29.894531 68.898438 29.890625 68.847656 29.910156 68.792969 C 29.902344 68.847656 29.902344 68.894531 29.921875 68.9375 Z M 7.441406 30.335938 C 7.316406 30.394531 6.832031 30.941406 6.3125 31.597656 C 6.832031 30.9375 7.320312 30.390625 7.441406 30.339844 C 7.441406 30.335938 7.441406 30.335938 7.441406 30.335938 Z M 6.953125 40.601562 C 7.546875 41.03125 8.367188 41.679688 9.371094 42.519531 C 8.375 41.6875 7.550781 41.035156 6.953125 40.601562 Z M 32.175781 16.996094 C 32.804688 17.085938 33.394531 17.175781 33.917969 17.253906 C 33.390625 17.175781 32.804688 17.085938 32.175781 16.996094 Z M 5.910156 40.253906 C 5.890625 40.167969 5.875 40.101562 5.875 40.050781 C 5.875 40.050781 5.875 40.046875 5.875 40.046875 C 5.878906 40.101562 5.890625 40.171875 5.910156 40.253906 Z M 5.910156 40.253906 "/>
<path style=" stroke:none;fill-rule:nonzero;fill:rgb(64.705884%,62.352943%,60.784316%);fill-opacity:1;" d="M 16.191406 40.511719 L 17.375 40.820312 C 17.613281 40.882812 17.875 40.960938 18.152344 41.054688 C 17.921875 41.011719 17.976562 41.128906 18.300781 41.679688 C 18.652344 42.273438 18.691406 42.824219 18.550781 45.195312 C 18.457031 46.746094 18.324219 48.054688 18.25 48.105469 C 17.753906 48.460938 13.796875 45.847656 13.796875 45.160156 C 13.796875 45.007812 13.238281 44.71875 12.535156 44.503906 C 11.570312 44.207031 10.828125 43.742188 9.371094 42.519531 C 7.1875 40.691406 5.875 39.765625 5.875 40.050781 C 5.875 40.535156 7.070312 42.921875 8.355469 45.015625 C 9.128906 46.273438 9.820312 47.59375 9.886719 47.941406 C 9.953125 48.292969 10.101562 48.898438 10.222656 49.292969 C 10.386719 49.832031 10.339844 50.105469 10.03125 50.445312 L 9.625 50.882812 L 7.519531 49.390625 L 5.417969 47.898438 L 4.371094 45.230469 C 3.796875 43.765625 3.195312 42.09375 3.03125 41.515625 C 2.871094 40.941406 2.640625 40.46875 2.519531 40.46875 C 2.519531 40.46875 2.515625 40.464844 2.511719 40.464844 C 3.230469 40.445312 3.417969 39.996094 3.738281 37.570312 C 3.792969 37.128906 3.851562 36.738281 3.917969 36.378906 L 3.828125 37.097656 L 4.238281 36.460938 C 4.460938 36.113281 4.695312 35.375 4.753906 34.820312 L 4.855469 33.816406 L 4.554688 34.285156 C 4.707031 33.953125 4.890625 33.621094 5.117188 33.269531 L 6.148438 34.695312 C 6.742188 35.515625 7.277344 36.226562 7.339844 36.277344 C 7.402344 36.324219 8.160156 36.410156 9.023438 36.457031 L 10.597656 36.550781 L 11.441406 34.679688 C 11.910156 33.652344 12.378906 32.8125 12.492188 32.8125 C 12.808594 32.8125 13.960938 34.449219 14.410156 35.535156 C 14.648438 36.117188 14.816406 37.199219 14.816406 38.167969 C 14.816406 39.601562 14.886719 39.859375 15.371094 40.230469 C 15.679688 40.460938 16.050781 40.648438 16.203125 40.648438 C 16.390625 40.644531 16.382812 40.601562 16.191406 40.511719 Z M 44.53125 58.257812 C 45.003906 58.546875 45.277344 58.632812 45.566406 58.566406 C 45.183594 58.785156 44.828125 58.972656 44.511719 59.128906 L 42.707031 60.011719 L 41.472656 59.730469 C 39.085938 59.1875 38.304688 59.074219 38.488281 59.304688 C 38.875 59.789062 41.40625 61.921875 42.121094 62.363281 L 42.886719 62.835938 L 45.648438 61.285156 C 48.214844 59.847656 52.277344 57.664062 55.53125 55.96875 C 54.449219 56.539062 53.195312 57.207031 51.734375 57.996094 C 44.351562 61.96875 42.441406 63.042969 38.753906 65.304688 C 36.996094 66.382812 35.476562 67.265625 35.382812 67.265625 C 35.285156 67.265625 33.253906 65.832031 30.863281 64.074219 C 30.089844 63.507812 29.410156 63.011719 28.808594 62.578125 L 31.132812 64.195312 L 31.570312 63.589844 C 33.179688 61.355469 35.527344 59.46875 38.421875 58.078125 C 41.121094 56.785156 43.382812 55.300781 46.203125 52.980469 C 49.515625 50.25 51.351562 48.402344 51.339844 47.808594 C 51.335938 47.632812 51.265625 47.292969 51.167969 46.910156 L 51.507812 48.019531 L 52.753906 46.75 C 55.859375 43.597656 57.03125 42.480469 58.480469 41.289062 C 59.332031 40.585938 60.035156 39.925781 60.035156 39.816406 C 60.035156 39.621094 58.195312 35.085938 57.191406 32.742188 C 57.605469 33.683594 58.246094 35.25 59.304688 37.855469 L 60.132812 39.890625 L 59.191406 40.710938 C 58.101562 41.660156 58.066406 41.746094 58.757812 41.746094 C 59.457031 41.746094 59.410156 41.996094 58.371094 43.835938 C 57.082031 46.117188 57.082031 46.121094 56.085938 46.121094 C 55.222656 46.121094 55.21875 46.125 55.039062 47.164062 C 54.90625 47.898438 54.988281 48.683594 55.308594 49.800781 L 55.3125 49.820312 C 55.144531 49.304688 54.929688 48.777344 54.777344 48.515625 L 54.421875 47.910156 L 52.824219 48.859375 C 51.949219 49.382812 50.652344 50.042969 49.949219 50.328125 C 48.695312 50.835938 48.621094 50.910156 46.242188 54.328125 L 43.8125 57.8125 Z M 36.917969 47.148438 C 37.617188 46.914062 38.644531 46.367188 39.195312 45.933594 L 39.554688 45.644531 L 39.34375 45.816406 C 38.886719 46.191406 38.554688 46.515625 38.605469 46.535156 C 38.660156 46.558594 39.257812 46.773438 39.925781 47.015625 C 41.273438 47.5 43.683594 49.238281 44.230469 50.117188 C 44.449219 50.472656 44.722656 50.65625 45.066406 50.675781 C 45.046875 50.675781 45.027344 50.675781 45.007812 50.675781 C 44.402344 50.675781 42.46875 50.34375 37.066406 49.3125 C 34.980469 48.914062 33.617188 49.085938 28.953125 50.328125 C 27.101562 50.820312 25.472656 51.222656 25.335938 51.222656 C 25.195312 51.222656 24.347656 50.628906 23.449219 49.902344 C 18.808594 46.148438 18.339844 45.117188 20.421875 43.238281 L 21.355469 42.398438 C 22.230469 42.828125 23.003906 43.269531 23.480469 43.628906 C 23.957031 43.988281 24.457031 44.238281 24.585938 44.179688 C 24.714844 44.125 24.59375 44.394531 24.316406 44.78125 C 24.039062 45.167969 23.636719 45.914062 23.417969 46.441406 C 23.019531 47.398438 23.019531 47.398438 23.582031 47.316406 C 23.890625 47.269531 24.6875 47.183594 25.355469 47.121094 C 25.914062 47.070312 26.242188 47.042969 26.410156 46.914062 C 26.648438 46.71875 26.542969 46.304688 26.285156 45.261719 L 26 44.101562 L 27.285156 43.132812 C 27.886719 42.679688 28.691406 41.832031 29.316406 41.066406 C 29.304688 41.085938 29.289062 41.105469 29.273438 41.125 L 28.148438 42.632812 L 28.492188 44.398438 C 28.683594 45.367188 28.898438 46.199219 28.964844 46.25 C 29.28125 46.476562 34.183594 47.574219 34.871094 47.574219 C 35.292969 47.574219 36.214844 47.382812 36.917969 47.148438 Z M 27.933594 54.300781 C 27.511719 53.925781 26.480469 52.140625 26.625 52.03125 C 26.902344 51.835938 29.613281 51.238281 31.476562 50.964844 C 34.902344 50.464844 38.390625 50.621094 42.625 51.472656 C 42.925781 51.535156 43.214844 51.59375 43.453125 51.648438 C 41.886719 51.328125 38.347656 51 37.980469 51.230469 C 37.863281 51.304688 38.023438 51.648438 38.339844 51.992188 C 38.792969 52.476562 39.320312 52.722656 40.726562 53.09375 C 41.722656 53.351562 42.652344 53.546875 42.792969 53.519531 C 42.929688 53.496094 43.339844 53.085938 43.679688 52.679688 C 43.613281 52.785156 43.539062 52.894531 43.457031 53.007812 C 42.804688 53.929688 42.558594 54.117188 41.847656 54.214844 C 41.382812 54.28125 38.128906 54.382812 34.613281 54.441406 C 29.359375 54.53125 28.167969 54.503906 27.933594 54.300781 Z M 2.320312 38.378906 C 2.3125 38.023438 2.308594 37.636719 2.308594 37.234375 C 2.316406 30.90625 2.035156 18.796875 1.773438 14.21875 C 1.703125 13.035156 1.671875 11.515625 1.671875 9.933594 C 1.722656 9.992188 1.785156 9.996094 1.867188 9.972656 C 2.785156 9.722656 3.238281 15.789062 2.46875 18.070312 C 2.035156 19.367188 2.054688 21.039062 2.527344 23.699219 C 2.683594 24.550781 2.824219 26.683594 2.839844 28.4375 C 2.859375 30.191406 2.949219 32.242188 3.035156 32.996094 C 3.152344 34 3.078125 34.703125 2.75 35.636719 C 2.539062 36.25 2.386719 37.371094 2.320312 38.378906 Z M 12.851562 23.550781 C 12.308594 23.71875 12.230469 24.078125 11.878906 25.957031 C 11.78125 26.449219 11.671875 26.984375 11.625 27.148438 C 11.417969 27.925781 11.160156 30.058594 11.207031 30.671875 C 11.230469 31.046875 11.207031 31.355469 11.148438 31.355469 C 11.089844 31.355469 10.285156 31.101562 9.359375 30.792969 C 8.4375 30.484375 7.570312 30.277344 7.441406 30.339844 C 7.386719 30.359375 7.261719 30.484375 7.089844 30.667969 C 7.101562 30.65625 7.113281 30.640625 7.128906 30.625 C 8.601562 28.835938 10.230469 26.582031 11.503906 24.566406 C 11.925781 23.898438 12.144531 23.710938 12.851562 23.550781 Z M 14.941406 42.3125 C 16.066406 42.6875 17.015625 42.972656 17.058594 42.941406 C 17.296875 42.769531 15.636719 40.390625 15.082031 40.109375 C 14.25 39.691406 10.730469 38.621094 10.734375 38.789062 C 10.734375 38.859375 10.851562 39.230469 11 39.609375 C 11.421875 40.691406 12.671875 41.550781 14.941406 42.3125 Z M 64.960938 40.449219 C 64.945312 40.417969 64.929688 40.394531 64.910156 40.386719 C 64.78125 40.328125 64.496094 40.71875 64.277344 41.253906 C 63.613281 42.878906 63.085938 43.664062 62.84375 43.382812 C 62.488281 42.972656 62.855469 41.554688 63.679688 40.121094 L 64.445312 38.796875 C 64.570312 39.164062 64.6875 39.503906 64.777344 39.753906 C 64.84375 39.9375 64.910156 40.179688 64.960938 40.449219 Z M 36.023438 39.917969 L 37.109375 40.035156 C 37.707031 40.101562 38.238281 40.183594 38.292969 40.214844 C 38.347656 40.246094 38.171875 40.710938 37.90625 41.238281 C 37.5 42.050781 37.3125 42.210938 36.722656 42.257812 L 36.023438 42.316406 Z M 25.40625 34.121094 C 25.453125 34.074219 25.5 34.027344 25.542969 33.980469 C 26.292969 33.191406 26.578125 32.746094 26.40625 32.625 C 26.230469 32.5 25.992188 32.5625 25.675781 32.8125 C 25.207031 33.183594 25.195312 33.171875 24.65625 31.859375 C 24.355469 31.128906 24.015625 30.328125 23.898438 30.082031 C 23.699219 29.65625 23.71875 29.644531 24.148438 29.898438 C 24.402344 30.046875 24.9375 30.535156 25.335938 30.980469 C 26.269531 32.027344 26.269531 31.488281 25.433594 30.246094 C 25.535156 30.386719 25.621094 30.511719 25.683594 30.625 C 25.953125 31.078125 26.273438 31.496094 26.398438 31.558594 C 26.523438 31.621094 26.546875 31.839844 26.460938 32.042969 C 26.367188 32.25 26.414062 32.46875 26.5625 32.535156 C 26.726562 32.605469 26.355469 33.144531 25.621094 33.902344 C 25.550781 33.980469 25.480469 34.050781 25.40625 34.121094 Z M 38.832031 68.613281 C 38.832031 68.160156 38.730469 67.984375 38.511719 68.042969 C 38.347656 68.089844 37.5 68.246094 36.578125 68.410156 C 38.046875 68.097656 40.082031 67.570312 42.152344 66.957031 C 43.316406 66.613281 44.503906 66.277344 45.675781 65.957031 C 44.773438 66.203125 43.851562 66.46875 42.917969 66.742188 C 39.925781 67.617188 39.132812 67.917969 39.664062 67.960938 C 40.246094 68.007812 40.363281 68.109375 40.363281 68.535156 C 40.363281 69.035156 39.988281 69.269531 39.195312 69.269531 C 38.949219 69.269531 38.832031 69.058594 38.832031 68.613281 Z M 67.132812 33.820312 C 67.066406 35.070312 66.992188 36.289062 66.921875 37.460938 L 66.898438 37.824219 L 66.679688 37.460938 C 66.609375 37.34375 66.558594 37.246094 66.519531 37.246094 C 66.433594 37.253906 66.398438 37.675781 66.332031 39.203125 C 66.355469 38.5625 66.386719 37.179688 66.398438 36.054688 C 66.421875 34.234375 66.480469 33.933594 66.804688 34.023438 C 66.980469 34.070312 67.078125 34.03125 67.132812 33.820312 Z M 67.996094 15.484375 C 67.820312 20.320312 67.527344 26.683594 67.203125 32.570312 C 67.226562 31.648438 67.328125 29.617188 67.441406 27.71875 C 67.574219 25.570312 67.582031 23.722656 67.464844 23.617188 C 67.253906 23.429688 67.433594 20.566406 67.945312 16.042969 C 67.960938 15.886719 67.980469 15.699219 67.996094 15.484375 Z M 0.191406 54.160156 C 0.0859375 53.214844 0.0117188 51.945312 0.0234375 51.332031 C 0.0429688 50.328125 0.0703125 50.277344 0.285156 50.816406 C 0.417969 51.140625 0.496094 52.414062 0.453125 53.640625 L 0.382812 55.871094 Z M 30.210938 69.148438 C 29.753906 69.019531 29.816406 68.644531 30.359375 68.296875 C 31.03125 67.863281 31.167969 67.917969 31.167969 68.632812 C 31.167969 69.253906 30.960938 69.367188 30.210938 69.148438 Z M 49.144531 46.4375 C 48.664062 46.992188 48.082031 47.691406 47.433594 48.492188 C 47.304688 48.652344 47.171875 48.820312 47.035156 48.992188 C 46.253906 49.972656 45.824219 50.425781 45.476562 50.59375 Z M 1.757812 5.191406 C 1.84375 2.863281 1.984375 1.074219 2.152344 0.953125 C 2.183594 0.933594 2.226562 0.925781 2.304688 0.929688 C 2.09375 1.078125 1.941406 2.226562 1.757812 5.191406 Z M 58.9375 5.289062 C 63.929688 4.40625 67.632812 3.746094 67.804688 3.710938 C 68.179688 3.628906 68.261719 3.714844 68.207031 7.269531 C 68.199219 3.878906 68.136719 3.636719 67.765625 3.71875 C 67.605469 3.753906 64.074219 4.378906 58.9375 5.289062 Z M 59.605469 53.890625 C 61.425781 53.003906 62.066406 52.796875 63.105469 52.722656 C 62.28125 52.777344 61.445312 53.015625 59.605469 53.890625 Z M 19.828125 21.835938 C 18.03125 22.417969 16 22.933594 13.863281 23.347656 C 16.097656 22.890625 18.097656 22.386719 19.828125 21.835938 Z M 24.542969 60.898438 C 24.535156 60.890625 24.53125 60.890625 24.53125 60.886719 C 23.425781 59.859375 23.402344 59.792969 24.132812 59.792969 C 24.289062 59.792969 24.484375 59.84375 24.753906 59.964844 C 24.433594 59.835938 24.203125 59.804688 24.003906 59.824219 C 23.511719 59.878906 23.554688 59.960938 24.53125 60.886719 C 24.53125 60.890625 24.535156 60.890625 24.542969 60.898438 Z M 31.335938 10.140625 C 31.742188 10.074219 34.308594 9.628906 37.902344 8.992188 C 34.136719 9.660156 31.667969 10.097656 31.503906 10.132812 C 31.464844 10.140625 31.40625 10.140625 31.335938 10.140625 Z M 53.882812 31.777344 C 53.953125 31.761719 54.027344 31.75 54.101562 31.730469 C 55.078125 31.523438 56.050781 31.355469 56.261719 31.355469 C 56.289062 31.355469 56.316406 31.355469 56.339844 31.363281 C 56.023438 31.386719 55.40625 31.480469 54.726562 31.613281 C 54.4375 31.667969 54.152344 31.726562 53.882812 31.777344 Z M 15.589844 38.71875 C 15.441406 38.011719 15.328125 37.261719 15.328125 36.792969 L 15.328125 36.765625 C 15.328125 37.019531 15.445312 37.882812 15.589844 38.71875 Z M 53.492188 53.152344 C 52.132812 54.214844 50.699219 55.253906 49.339844 56.183594 C 50.78125 55.183594 52.351562 54.042969 53.492188 53.152344 Z M 20.980469 7.726562 C 22.558594 8.234375 23.875 8.566406 25.929688 9.058594 C 26.8125 9.269531 27.664062 9.464844 28.421875 9.628906 C 27.75 9.484375 26.984375 9.3125 26.136719 9.109375 C 23.972656 8.597656 22.625 8.261719 20.980469 7.726562 Z M 34.820312 39.207031 C 33.800781 39.222656 32.738281 39.257812 31.894531 39.304688 C 32.015625 39.296875 32.136719 39.289062 32.257812 39.28125 C 33 39.238281 33.910156 39.214844 34.820312 39.207031 Z M 39.230469 39.417969 C 39.144531 39.355469 38.355469 39.285156 37.359375 39.242188 C 38.371094 39.277344 39.121094 39.335938 39.230469 39.417969 Z M 21.40625 26.082031 C 21.332031 26.140625 21.1875 26.382812 21.023438 26.722656 C 21.1875 26.367188 21.316406 26.113281 21.351562 26.089844 C 21.363281 26.078125 21.382812 26.078125 21.40625 26.082031 Z M 17.5625 36.273438 C 19.859375 36.265625 21.496094 36.105469 22.773438 35.703125 C 21.503906 36.109375 19.875 36.265625 17.5625 36.273438 Z M 51.476562 31.238281 L 51.632812 31.398438 C 51.738281 31.507812 51.839844 31.613281 51.929688 31.707031 C 51.839844 31.632812 51.753906 31.546875 51.667969 31.449219 Z M 20.65625 27.558594 L 20.257812 28.511719 L 20.253906 28.503906 Z M 25.628906 61.984375 C 25.414062 61.753906 25.09375 61.425781 24.796875 61.140625 C 25.191406 61.519531 25.46875 61.796875 25.628906 61.984375 Z M 57.53125 63.515625 C 56.613281 63.644531 55.660156 63.78125 54.671875 63.925781 C 54.34375 63.972656 53.984375 64.03125 53.605469 64.097656 C 53.996094 64.03125 54.351562 63.96875 54.671875 63.925781 C 55.664062 63.777344 56.621094 63.644531 57.53125 63.515625 Z M 67.871094 62.347656 C 67.046875 62.351562 65.199219 62.53125 62.660156 62.839844 C 65.21875 62.527344 67.042969 62.351562 67.871094 62.347656 Z M 52.5625 32.023438 C 52.636719 32.015625 52.726562 32 52.824219 31.980469 C 52.734375 32 52.667969 32.011719 52.628906 32.019531 C 52.605469 32.023438 52.585938 32.023438 52.5625 32.023438 Z M 55.671875 51.082031 L 55.757812 51.394531 Z M 43.992188 51.785156 C 44.054688 51.808594 44.097656 51.820312 44.113281 51.832031 C 44.117188 51.835938 44.117188 51.835938 44.117188 51.839844 C 44.085938 51.820312 44.042969 51.804688 43.992188 51.785156 Z M 30.25 39.488281 C 30.242188 39.496094 30.242188 39.503906 30.253906 39.515625 C 30.257812 39.515625 30.261719 39.519531 30.265625 39.527344 C 30.257812 39.519531 30.25 39.511719 30.242188 39.503906 C 30.234375 39.5 30.238281 39.492188 30.25 39.488281 Z M 50.535156 45.125 C 50.527344 45.113281 50.515625 45.101562 50.507812 45.09375 C 50.511719 45.09375 50.511719 45.097656 50.511719 45.097656 C 50.519531 45.101562 50.527344 45.109375 50.535156 45.125 Z M 50.535156 45.125 "/>
<path style=" stroke:none;fill-rule:nonzero;fill:rgb(91.764706%,47.450981%,6.666667%);fill-opacity:1;" d="M 30.355469 19.949219 C 31.957031 20.636719 33.550781 21.375 33.851562 21.613281 C 34.375 22.035156 34.835938 22.097656 39.023438 22.351562 C 40.042969 22.410156 40.875 22.496094 40.875 22.535156 C 40.875 22.722656 37.941406 25.964844 37.011719 26.800781 C 36.441406 27.320312 35.566406 27.914062 35.066406 28.121094 L 34.164062 28.503906 L 34.328125 30.59375 C 34.421875 31.746094 34.558594 32.980469 34.636719 33.34375 C 34.773438 33.964844 34.71875 34.023438 33.546875 34.539062 C 30.878906 35.707031 28.335938 37.589844 25.226562 40.703125 L 23.742188 42.1875 L 24.644531 42.515625 C 25.140625 42.699219 25.546875 42.886719 25.546875 42.9375 C 25.546875 42.988281 25.160156 43.582031 24.679688 44.257812 C 24.207031 44.929688 23.636719 45.914062 23.417969 46.441406 C 23.21875 46.917969 23.121094 47.15625 23.140625 47.269531 C 23.121094 47.15625 23.21875 46.917969 23.417969 46.441406 C 23.636719 45.914062 24.039062 45.167969 24.316406 44.78125 C 24.59375 44.394531 24.714844 44.125 24.585938 44.179688 C 24.457031 44.238281 23.957031 43.988281 23.480469 43.628906 C 22.273438 42.71875 19.144531 41.28125 17.375 40.820312 L 15.902344 40.4375 L 15.613281 38.84375 C 15.457031 37.96875 15.328125 37.035156 15.328125 36.765625 L 15.328125 36.277344 L 17.5625 36.273438 C 21.972656 36.261719 23.890625 35.699219 25.621094 33.902344 C 26.3125 33.191406 26.679688 32.671875 26.585938 32.550781 C 26.691406 32.570312 26.839844 32.5 26.996094 32.34375 C 27.988281 31.375 28.296875 28.078125 27.496094 27.003906 C 26.921875 26.238281 25.292969 24.609375 25.101562 24.609375 C 24.722656 24.609375 21.714844 25.925781 21.714844 26.089844 C 21.714844 26.15625 21.875 26.355469 22.109375 26.597656 C 21.714844 26.238281 21.425781 26.035156 21.351562 26.089844 C 21.296875 26.125 21.03125 26.6875 20.753906 27.332031 L 20.253906 28.503906 L 19.136719 27.476562 C 17.5625 26.023438 17.367188 25.515625 17.828125 24.0625 C 18.035156 23.410156 18.332031 22.816406 18.492188 22.746094 C 19.027344 22.5 24.132812 21.25 27.265625 20.59375 Z M 33.363281 68.332031 C 32.816406 68.125 31.4375 67.433594 30.300781 66.792969 C 26.894531 64.875 24.542969 64.140625 18.082031 62.96875 C 15.269531 62.460938 9.921875 60.679688 10.828125 60.550781 C 11.335938 60.480469 17.433594 60.824219 18.835938 61 L 19.664062 61.109375 L 19.308594 60.269531 C 19.113281 59.804688 19.015625 59.425781 19.089844 59.425781 C 19.292969 59.425781 22.125 60.660156 24.226562 61.664062 C 26.226562 62.621094 26.261719 62.527344 24.53125 60.886719 C 23.554688 59.960938 23.511719 59.878906 24.003906 59.824219 C 24.769531 59.738281 25.960938 60.480469 30.863281 64.074219 C 33.253906 65.832031 35.285156 67.265625 35.382812 67.265625 C 35.476562 67.265625 36.996094 66.382812 38.753906 65.304688 C 41.433594 63.660156 43.179688 62.640625 46.773438 60.679688 C 44.949219 61.707031 43.6875 62.453125 43.6875 62.515625 C 43.6875 62.742188 46.113281 63.476562 47.648438 63.714844 C 48.488281 63.847656 49.351562 63.960938 49.5625 63.964844 C 50.105469 63.980469 53.117188 63.515625 55.820312 63 C 58.085938 62.566406 63.941406 61.46875 66.148438 61.0625 L 67.28125 60.855469 L 65.507812 60.117188 C 64.539062 59.710938 63.277344 59.191406 62.710938 58.964844 L 61.679688 58.546875 L 59.390625 59.410156 C 58.128906 59.886719 56.109375 60.65625 54.902344 61.128906 C 52.605469 62.019531 49.816406 62.792969 49.816406 62.542969 C 49.816406 62.292969 54.1875 59.394531 56.441406 58.152344 C 60.332031 56.003906 61.566406 55.226562 62.597656 54.269531 C 63.160156 53.746094 63.738281 53.214844 63.882812 53.089844 C 64.140625 52.871094 63.898438 52.726562 63.371094 52.703125 C 64.40625 52.628906 64.464844 52.550781 65.164062 51.566406 C 65.582031 50.976562 66.03125 50.496094 66.171875 50.496094 C 66.3125 50.496094 66.421875 50.390625 66.421875 50.265625 C 66.421875 50.140625 66.652344 49.933594 66.933594 49.808594 C 67.394531 49.605469 67.445312 49.625 67.445312 50.03125 C 67.445312 50.628906 66.5 52.414062 65.703125 53.320312 C 65.351562 53.722656 64.304688 54.707031 63.378906 55.507812 C 61.703125 56.957031 61.128906 57.429688 61.21875 57.503906 C 61.269531 57.546875 61.554688 57.445312 61.984375 57.320312 C 62.53125 57.164062 64.042969 56.660156 65.347656 56.203125 C 66.652344 55.746094 67.785156 55.414062 67.863281 55.472656 C 67.941406 55.527344 68.453125 56.828125 69.003906 58.367188 L 70.003906 61.160156 L 69.570312 62.378906 C 69.121094 63.664062 68.875 63.789062 68.59375 62.886719 C 68.46875 62.484375 68.28125 62.34375 67.871094 62.347656 C 66.332031 62.355469 61.394531 62.949219 54.671875 63.925781 C 52.019531 64.308594 46.859375 65.558594 42.152344 66.957031 C 38.742188 67.96875 35.417969 68.746094 34.601562 68.71875 C 34.46875 68.710938 33.910156 68.539062 33.363281 68.332031 Z M 5.839844 22.71875 L 6.933594 21.925781 L 5.867188 21.273438 C 5.320312 20.941406 4.566406 20.582031 3.960938 20.34375 C 4.5625 20.578125 5.300781 20.925781 5.824219 21.25 C 6.390625 21.59375 6.90625 21.875 6.976562 21.875 C 7.355469 21.875 7.335938 21.257812 6.90625 19.96875 C 7.050781 20.351562 7.195312 20.722656 7.328125 21.042969 C 7.453125 21.34375 7.675781 21.234375 8.820312 20.3125 C 9.5625 19.71875 10.140625 19.210938 10.101562 19.183594 C 9.976562 19.089844 9.351562 18.75 8.625 18.367188 C 9.472656 18.792969 10.15625 19.078125 10.253906 19.035156 C 10.449219 18.945312 10.507812 18.667969 10.421875 18.15625 L 10.597656 18.816406 L 13.324219 16.785156 C 15.824219 14.917969 16.109375 14.761719 16.773438 14.867188 C 17.171875 14.933594 17.902344 15.058594 18.394531 15.152344 C 18.886719 15.242188 22.792969 15.761719 27.082031 16.308594 C 31.367188 16.855469 35.550781 17.46875 36.382812 17.675781 C 37.210938 17.878906 38.207031 18.046875 38.597656 18.046875 C 39.324219 18.046875 41.59375 17.480469 45.535156 16.320312 C 47.140625 15.84375 48.433594 15.605469 50.132812 15.472656 C 51.402344 15.371094 52.4375 15.199219 53.445312 14.882812 C 52.558594 15.230469 51.992188 15.53125 52.164062 15.566406 C 52.292969 15.589844 52.625 15.648438 53.003906 15.710938 C 52.753906 15.871094 52.902344 16.59375 53.277344 16.851562 C 52.621094 16.605469 51.269531 16.839844 44.757812 18.242188 C 39.25 19.429688 38.605469 19.4375 33.507812 18.328125 C 31.277344 17.847656 27.902344 17.46875 27.464844 17.65625 C 27.113281 17.804688 23.667969 17.710938 22.480469 17.519531 C 21.660156 17.386719 21.410156 17.425781 20.851562 17.769531 C 20.488281 17.992188 20.265625 18.226562 20.355469 18.292969 C 20.449219 18.359375 20.382812 18.410156 20.210938 18.410156 C 20.039062 18.410156 19.96875 18.492188 20.054688 18.59375 C 20.140625 18.695312 20.109375 18.777344 19.980469 18.777344 C 19.851562 18.777344 19.738281 19.042969 19.726562 19.367188 C 19.710938 19.695312 19.386719 20.429688 19 21.007812 C 18.617188 21.582031 18.367188 22.097656 18.449219 22.15625 C 18.488281 22.183594 18.5625 22.195312 18.671875 22.183594 C 17.019531 22.660156 15.15625 23.101562 13.113281 23.496094 C 12.195312 23.675781 11.972656 23.820312 11.503906 24.566406 C 10.230469 26.582031 8.601562 28.835938 7.128906 30.625 C 4.539062 33.765625 4.125 34.613281 3.738281 37.570312 C 3.414062 40.019531 3.226562 40.457031 2.492188 40.464844 C 2.113281 40.472656 2.304688 36.921875 2.75 35.636719 C 3.0625 34.746094 3.144531 34.066406 3.050781 33.132812 L 3.195312 34.363281 L 3.910156 32.554688 C 5.050781 29.664062 5.640625 28.945312 8.664062 26.75 C 10.152344 25.671875 11.515625 24.546875 11.691406 24.242188 C 12.007812 23.695312 12.007812 23.691406 11.308594 23.8125 C 10.046875 24.027344 9.101562 24.464844 7.46875 25.582031 L 5.867188 26.679688 L 4.980469 26.066406 C 3.859375 25.292969 3.734375 25 4.183594 24.234375 C 4.492188 23.710938 4.492188 23.535156 3.878906 22.261719 C 4.21875 22.941406 4.539062 23.515625 4.609375 23.515625 C 4.683594 23.515625 5.238281 23.15625 5.839844 22.71875 Z M 66.609375 33.953125 C 66.628906 33.976562 66.644531 33.996094 66.660156 34.015625 C 66.460938 34.078125 66.414062 34.542969 66.398438 36.054688 C 66.386719 36.894531 66.371094 37.878906 66.351562 38.59375 C 66.332031 38.507812 66.304688 38.464844 66.269531 38.464844 C 65.902344 38.464844 65.203125 40.8125 65.148438 42.160156 C 65.148438 41.390625 64.980469 40.308594 64.777344 39.753906 C 64.578125 39.191406 64.222656 38.164062 63.992188 37.460938 C 63.65625 36.417969 63.195312 35.558594 62.039062 34.070312 C 62.417969 34.53125 62.730469 34.90625 62.863281 35.066406 L 63.296875 35.589844 L 63.875 34.339844 C 64.195312 33.648438 64.550781 33.039062 64.671875 32.984375 C 65.003906 32.828125 65.402344 31.066406 65.402344 29.734375 C 65.402344 28.410156 64.574219 26.871094 63.269531 25.769531 C 62.894531 25.453125 62.589844 25.125 62.589844 25.039062 C 62.589844 24.8125 64.65625 21.449219 64.921875 21.246094 C 65.046875 21.152344 65.148438 20.792969 65.148438 20.457031 C 65.148438 20.113281 65.371094 19.042969 65.644531 18.078125 C 66.625 14.605469 67.257812 9.785156 67.09375 7.058594 L 66.941406 4.546875 L 67.578125 4.339844 C 67.816406 4.261719 67.992188 4.152344 68.101562 4.046875 C 68.199219 4.5625 68.210938 5.8125 68.207031 8.691406 C 68.199219 11.480469 68.082031 14.789062 67.945312 16.042969 C 67.433594 20.566406 67.253906 23.429688 67.464844 23.617188 C 67.5 23.648438 67.523438 23.832031 67.535156 24.132812 C 67.523438 23.839844 67.5 23.664062 67.464844 23.640625 C 67.34375 23.554688 67.167969 24.207031 67.070312 25.09375 C 66.824219 27.3125 66.488281 33.785156 66.609375 33.953125 Z M 14.433594 31.960938 C 13.546875 31.824219 12.519531 31.496094 12.519531 31.359375 C 12.519531 31.25 15.425781 29.332031 17.167969 28.292969 C 17.550781 28.0625 17.710938 28.078125 18.484375 28.421875 C 19.179688 28.726562 19.542969 28.785156 20.585938 28.707031 C 19.714844 28.859375 18.761719 29.195312 18.394531 29.515625 C 18.183594 29.699219 17.378906 30.246094 16.605469 30.722656 C 15.832031 31.203125 15.109375 31.703125 14.996094 31.839844 C 14.914062 31.941406 14.867188 32.007812 14.878906 32.035156 C 14.773438 32.015625 14.609375 31.988281 14.433594 31.960938 Z M 48.03125 35.386719 C 47.773438 35.414062 47.5 35.394531 47.109375 35.347656 C 46.535156 35.269531 45.722656 35.058594 45.304688 34.878906 C 44.359375 34.464844 43.472656 33.90625 42.851562 33.382812 C 42.980469 33.480469 43.097656 33.542969 43.183594 33.542969 C 43.277344 33.542969 43.46875 33.355469 43.609375 33.132812 C 43.855469 32.738281 43.886719 32.753906 44.402344 33.472656 C 44.699219 33.886719 45.128906 34.277344 45.355469 34.339844 C 46.566406 34.667969 47.269531 34.285156 48.019531 32.878906 L 48.492188 31.992188 L 48.664062 32.648438 C 48.777344 33.0625 48.6875 33.664062 48.433594 34.277344 C 48.226562 34.777344 48.050781 35.253906 48.03125 35.386719 Z M 65.429688 22.679688 C 66.046875 21.851562 66.46875 21.117188 66.375 21.050781 C 66.277344 20.980469 65.890625 21 65.511719 21.089844 C 64.953125 21.222656 64.613281 21.597656 63.707031 23.066406 C 61.78125 26.1875 63.027344 25.90625 65.429688 22.679688 Z M 57.109375 55.136719 C 59.480469 53.910156 60.808594 53.296875 61.75 52.996094 C 60.78125 53.371094 59.089844 54.15625 57.109375 55.136719 Z M 21.574219 21.238281 C 23.160156 20.582031 24.898438 19.734375 25.660156 19.160156 C 24.695312 19.886719 23.316406 20.585938 21.574219 21.238281 Z M 51.867188 24.0625 C 53.824219 25.535156 55.390625 26.847656 56.882812 28.296875 C 55.386719 26.90625 53.414062 25.226562 51.867188 24.0625 Z M 25.46875 30.292969 C 24.851562 29.417969 23.589844 28.023438 22.621094 27.078125 C 23.632812 27.972656 24.796875 29.300781 25.46875 30.292969 Z M 66.28125 40.488281 C 66.265625 40.984375 66.246094 41.523438 66.226562 41.972656 C 66.207031 42.5 66.1875 42.855469 66.148438 43.09375 C 66.164062 42.949219 66.167969 42.761719 66.171875 42.519531 C 66.171875 42.058594 66.21875 41.226562 66.28125 40.488281 Z M 10.082031 16.894531 C 10.074219 16.871094 10.066406 16.847656 10.058594 16.828125 C 9.816406 16.109375 9.679688 15.152344 9.640625 14.175781 C 9.691406 15.0625 9.839844 15.992188 10.082031 16.894531 Z M 42.632812 33.191406 C 42.160156 32.75 41.90625 32.351562 42.011719 32.117188 C 41.925781 32.308594 42.273438 32.832031 42.632812 33.191406 Z M 67.371094 28.933594 C 67.273438 30.683594 67.199219 32.316406 67.195312 32.878906 C 67.191406 33.675781 67.152344 33.976562 66.988281 34.03125 C 67.113281 33.859375 67.195312 33.449219 67.195312 32.859375 C 67.199219 32.308594 67.273438 30.679688 67.371094 28.933594 Z M 5.921875 17.039062 C 5.925781 17.039062 5.925781 17.039062 5.925781 17.039062 C 5.96875 17.007812 6.914062 17.464844 8.023438 18.054688 C 8.03125 18.0625 8.039062 18.066406 8.050781 18.070312 C 7.015625 17.539062 5.976562 17.027344 5.921875 17.039062 Z M 21.691406 28.621094 C 22.246094 28.597656 22.183594 28.671875 21.933594 28.957031 C 21.933594 28.960938 21.933594 28.960938 21.929688 28.964844 C 22.167969 28.6875 22.160156 28.632812 21.691406 28.621094 Z M 54.328125 16 C 54.503906 16.085938 54.589844 16.191406 54.621094 16.332031 C 54.625 16.351562 54.628906 16.375 54.628906 16.394531 C 54.601562 16.25 54.492188 16.113281 54.328125 16 Z M 15.847656 31.632812 C 15.339844 31.902344 15.007812 32.070312 14.992188 32.0625 C 14.988281 32.058594 14.96875 32.054688 14.941406 32.050781 C 15.0625 32.027344 15.339844 31.898438 15.847656 31.632812 Z M 9.867188 11.195312 C 9.917969 10.972656 9.980469 10.765625 10.046875 10.582031 C 10.289062 9.9375 10.539062 9.375 10.597656 9.328125 C 10.539062 9.375 10.292969 9.9375 10.054688 10.582031 C 9.984375 10.777344 9.921875 10.980469 9.867188 11.195312 Z M 26.484375 31.980469 C 26.542969 31.796875 26.507812 31.613281 26.398438 31.558594 C 26.335938 31.527344 26.222656 31.402344 26.089844 31.230469 C 26.226562 31.40625 26.34375 31.53125 26.410156 31.5625 C 26.535156 31.628906 26.566406 31.8125 26.484375 31.980469 Z M 54.15625 12.082031 C 54.417969 12.152344 55.355469 12.226562 56.394531 12.253906 L 58.492188 12.304688 L 57.441406 12.929688 L 58.484375 12.304688 L 56.386719 12.253906 C 55.351562 12.226562 54.414062 12.152344 54.15625 12.082031 Z M 54.363281 16.917969 C 54.472656 16.839844 54.550781 16.753906 54.59375 16.667969 C 54.542969 16.792969 54.441406 16.890625 54.3125 16.953125 C 54.328125 16.941406 54.347656 16.929688 54.363281 16.917969 Z M 50.410156 34.285156 C 50.058594 34.507812 49.675781 34.730469 49.355469 34.894531 C 49.699219 34.710938 50.066406 34.5 50.410156 34.285156 Z M 26.765625 18.59375 C 26.769531 18.59375 26.773438 18.59375 26.777344 18.59375 C 26.839844 18.59375 26.976562 18.628906 27.171875 18.691406 C 26.980469 18.632812 26.839844 18.597656 26.765625 18.59375 Z M 2.9375 20.136719 C 2.929688 20.105469 2.929688 20.089844 2.933594 20.082031 C 2.9375 20.082031 2.941406 20.078125 2.945312 20.078125 C 2.941406 20.078125 2.941406 20.082031 2.941406 20.082031 C 2.933594 20.089844 2.929688 20.105469 2.9375 20.136719 Z M 2.9375 20.136719 "/>
<path style=" stroke:none;fill-rule:nonzero;fill:rgb(90.980393%,89.019608%,87.058824%);fill-opacity:1;" d="M 44.230469 50.117188 C 43.683594 49.238281 41.273438 47.5 39.925781 47.015625 C 39.257812 46.773438 38.660156 46.558594 38.605469 46.535156 C 38.554688 46.515625 38.886719 46.191406 39.34375 45.816406 L 40.179688 45.136719 L 39.316406 44.914062 C 38.5 44.703125 38.488281 44.6875 39.125 44.675781 C 39.871094 44.660156 40.109375 44.375 40.109375 43.5 C 40.109375 43.175781 40.226562 42.828125 40.371094 42.726562 C 40.625 42.542969 39.65625 39.71875 39.230469 39.417969 C 38.953125 39.21875 34.707031 39.136719 32.257812 39.28125 C 31.078125 39.351562 30.167969 39.453125 30.242188 39.503906 C 30.539062 39.714844 28.492188 42.222656 27.285156 43.132812 L 26 44.101562 L 26.285156 45.261719 C 26.542969 46.304688 26.648438 46.71875 26.410156 46.914062 C 26.242188 47.042969 25.914062 47.070312 25.355469 47.121094 C 24.6875 47.183594 23.890625 47.269531 23.582031 47.316406 C 23.019531 47.398438 23.019531 47.398438 23.417969 46.441406 C 23.636719 45.914062 24.207031 44.929688 24.679688 44.257812 C 25.160156 43.582031 25.546875 42.988281 25.546875 42.9375 C 25.546875 42.886719 25.140625 42.699219 24.644531 42.515625 L 23.742188 42.1875 L 25.226562 40.703125 C 28.335938 37.589844 30.878906 35.707031 33.546875 34.539062 C 34.71875 34.023438 34.773438 33.964844 34.636719 33.34375 C 34.621094 33.261719 34.597656 33.136719 34.578125 32.980469 C 34.804688 34.109375 35.28125 34.351562 36.882812 35.335938 C 38.023438 36.035156 40.453125 37.675781 42.28125 38.976562 C 44.210938 40.347656 45.777344 41.320312 46.015625 41.292969 C 46.242188 41.265625 47.585938 40.640625 49 39.898438 C 52.148438 38.253906 53.027344 37.371094 54.304688 34.578125 C 54.816406 33.457031 55.40625 32.304688 55.613281 32.023438 C 55.820312 31.734375 55.945312 31.472656 55.894531 31.433594 C 55.882812 31.425781 55.839844 31.425781 55.773438 31.433594 C 56.214844 31.367188 56.523438 31.339844 56.566406 31.367188 C 56.71875 31.476562 60.035156 39.554688 60.035156 39.816406 C 60.035156 39.925781 59.332031 40.585938 58.480469 41.289062 C 57.03125 42.480469 55.859375 43.597656 52.753906 46.75 L 51.507812 48.019531 L 51.074219 46.601562 C 50.832031 45.824219 50.582031 45.148438 50.511719 45.097656 C 50.371094 44.996094 48.960938 46.574219 47.035156 48.992188 C 45.984375 50.308594 45.570312 50.675781 45.132812 50.675781 C 44.757812 50.675781 44.464844 50.496094 44.230469 50.117188 Z M 44.53125 58.257812 L 43.8125 57.8125 L 46.242188 54.328125 C 48.621094 50.910156 48.695312 50.835938 49.949219 50.328125 C 50.652344 50.042969 51.949219 49.382812 52.824219 48.859375 L 54.421875 47.910156 L 54.777344 48.515625 C 54.972656 48.851562 55.273438 49.636719 55.445312 50.261719 L 55.757812 51.394531 L 53.492188 53.152344 C 50.984375 55.105469 46.425781 58.25 45.710938 58.523438 C 45.359375 58.65625 45.078125 58.59375 44.53125 58.257812 Z M 2.933594 20.09375 C 2.921875 20.199219 3.25 20.976562 3.695312 21.882812 C 4.488281 23.507812 4.523438 23.664062 4.183594 24.234375 C 3.734375 25 3.859375 25.292969 4.980469 26.066406 L 5.867188 26.679688 L 7.46875 25.582031 C 9.101562 24.464844 10.046875 24.027344 11.308594 23.8125 C 12.007812 23.691406 12.007812 23.695312 11.691406 24.242188 C 11.515625 24.546875 10.152344 25.671875 8.664062 26.75 C 5.640625 28.945312 5.050781 29.664062 3.910156 32.554688 L 3.195312 34.363281 L 3.035156 32.996094 C 2.949219 32.242188 2.859375 30.191406 2.839844 28.4375 C 2.824219 26.683594 2.683594 24.550781 2.527344 23.699219 C 2.242188 22.085938 2.121094 20.832031 2.167969 19.8125 C 2.285156 19.917969 2.589844 20.03125 2.933594 20.09375 Z M 42.21875 32.742188 C 42.136719 32.65625 42.050781 32.570312 41.96875 32.480469 C 40.691406 31.113281 40.492188 30.546875 40.492188 28.253906 C 40.492188 26.5625 40.511719 26.5 41.453125 25.46875 C 41.980469 24.886719 42.597656 24.363281 42.824219 24.304688 C 43.28125 24.175781 45.640625 24.660156 46.308594 25.015625 C 46.707031 25.226562 46.632812 25.382812 45.429688 26.796875 C 44.082031 28.378906 42.59375 30.558594 42.335938 31.324219 C 42.191406 31.746094 42.195312 31.75 42.746094 31.417969 C 43.050781 31.234375 43.84375 30.734375 44.507812 30.308594 C 45.121094 29.910156 45.578125 29.679688 45.996094 29.589844 C 45.039062 29.929688 42.195312 31.695312 42.011719 32.117188 C 41.945312 32.269531 42.023438 32.488281 42.21875 32.742188 Z M 26.480469 32.492188 C 26.386719 32.386719 26.386719 32.160156 26.476562 31.988281 C 26.570312 31.820312 26.539062 31.628906 26.410156 31.5625 C 26.277344 31.496094 25.953125 31.078125 25.679688 30.625 C 25.066406 29.601562 23.710938 28.039062 22.578125 27.039062 C 22.105469 26.621094 21.714844 26.195312 21.714844 26.089844 C 21.714844 25.925781 24.722656 24.609375 25.101562 24.609375 C 25.292969 24.609375 26.921875 26.238281 27.496094 27.003906 C 28.296875 28.078125 27.988281 31.375 26.996094 32.34375 C 26.777344 32.558594 26.585938 32.613281 26.480469 32.492188 Z M 2.5 10.96875 C 2.332031 10.304688 2.117188 9.90625 1.867188 9.972656 C 1.53125 10.066406 1.503906 9.710938 1.644531 7.179688 C 1.902344 2.429688 2.074219 0.910156 2.355469 0.910156 C 2.640625 0.910156 3.789062 1.308594 8.867188 3.234375 C 6.605469 2.386719 4.925781 1.761719 4.789062 1.726562 C 4.417969 1.621094 4.34375 1.707031 4.34375 2.238281 C 4.34375 3.105469 3.683594 5.558594 2.886719 7.65625 C 2.292969 9.21875 2.242188 9.410156 2.5 10.96875 Z M 14.941406 42.3125 C 12.671875 41.550781 11.421875 40.691406 11 39.609375 C 10.851562 39.230469 10.734375 38.859375 10.734375 38.789062 C 10.730469 38.621094 14.25 39.691406 15.082031 40.109375 C 15.636719 40.390625 17.296875 42.769531 17.058594 42.941406 C 17.015625 42.972656 16.066406 42.6875 14.941406 42.3125 Z M 40.726562 53.09375 C 39.320312 52.722656 38.792969 52.476562 38.339844 51.992188 C 38.023438 51.648438 37.863281 51.304688 37.980469 51.230469 C 38.453125 50.933594 44.203125 51.566406 44.191406 51.914062 C 44.183594 52.167969 43.042969 53.476562 42.792969 53.519531 C 42.652344 53.546875 41.722656 53.351562 40.726562 53.09375 Z M 18.402344 6.832031 C 21.566406 7.984375 22.972656 8.363281 26.136719 9.109375 C 29.183594 9.828125 31.148438 10.203125 31.503906 10.132812 C 31.6875 10.09375 34.738281 9.550781 39.261719 8.753906 C 34.726562 9.570312 31.429688 10.179688 30.757812 10.335938 L 28.691406 10.8125 L 25.523438 9.59375 C 23.78125 8.921875 22.179688 8.300781 21.96875 8.207031 C 21.757812 8.113281 20.339844 7.570312 18.402344 6.832031 Z M 66.609375 33.953125 C 66.488281 33.785156 66.824219 27.3125 67.070312 25.09375 C 67.167969 24.207031 67.34375 23.554688 67.464844 23.640625 C 67.582031 23.722656 67.574219 25.554688 67.441406 27.710938 C 67.3125 29.863281 67.203125 32.179688 67.195312 32.859375 C 67.1875 33.925781 66.933594 34.402344 66.609375 33.953125 Z M 43.234375 43.386719 C 43.65625 43.867188 44.582031 43.847656 45.074219 43.34375 C 45.570312 42.84375 45.574219 42.722656 45.109375 42.597656 C 44.742188 42.496094 42.917969 42.78125 42.917969 42.941406 C 42.917969 42.988281 43.0625 43.1875 43.234375 43.386719 Z M 21.332031 31.140625 C 20.742188 30.808594 20.554688 30.78125 20.125 30.972656 C 19.710938 31.15625 19.636719 31.152344 19.726562 30.957031 C 20.035156 30.300781 22.480469 30.320312 22.480469 30.984375 C 22.480469 31.519531 22.101562 31.570312 21.332031 31.140625 Z M 45.476562 31.640625 C 45.476562 31.238281 45.585938 31.171875 46.257812 31.171875 C 46.925781 31.171875 47.03125 31.234375 46.960938 31.582031 C 46.902344 31.875 46.679688 32.007812 46.175781 32.050781 C 45.570312 32.097656 45.476562 32.042969 45.476562 31.640625 Z M 2.703125 17.054688 C 2.871094 15.972656 2.898438 14.570312 2.816406 13.304688 C 2.9375 14.707031 2.898438 15.964844 2.703125 17.054688 Z M 51.929688 31.707031 C 52.167969 31.90625 52.402344 32.023438 52.570312 32.023438 C 52.390625 32.050781 52.277344 32.0625 52.265625 32.050781 C 52.246094 32.03125 52.113281 31.890625 51.929688 31.707031 Z M 6.304688 21.53125 C 6.15625 21.445312 5.992188 21.351562 5.824219 21.25 C 5.5 21.050781 5.089844 20.839844 4.6875 20.652344 C 5.332031 20.933594 5.964844 21.269531 6.304688 21.53125 Z M 45.304688 34.878906 C 44.78125 34.667969 44.269531 34.394531 43.769531 34.054688 C 44.234375 34.355469 44.761719 34.640625 45.304688 34.878906 Z M 47.1875 29.664062 C 47.433594 29.742188 47.445312 29.828125 47.246094 30 C 47.40625 29.863281 47.375 29.746094 47.1875 29.664062 Z M 7.234375 21.300781 C 7.273438 21.6875 7.183594 21.875 6.976562 21.875 C 6.972656 21.875 6.964844 21.871094 6.957031 21.871094 C 7.171875 21.84375 7.265625 21.667969 7.234375 21.300781 Z M 51.089844 30.808594 L 51.476562 31.238281 L 51.058594 30.808594 Z M 47.109375 35.347656 C 46.632812 35.285156 46.167969 35.179688 45.71875 35.03125 C 46.144531 35.167969 46.691406 35.292969 47.109375 35.347656 Z M 52.765625 31.992188 C 52.988281 31.949219 53.386719 31.875 53.855469 31.78125 C 53.433594 31.871094 53.050781 31.945312 52.765625 31.992188 Z M 52.765625 31.992188 "/>
<path style=" stroke:none;fill-rule:nonzero;fill:rgb(85.882354%,60.392159%,50.588238%);fill-opacity:1;" d="M 57.992188 17.59375 C 57.992188 17.128906 56.808594 17.265625 56.222656 17.796875 C 55.800781 18.179688 55.648438 18.421875 55.742188 18.640625 L 53.410156 16.90625 C 54.070312 17.226562 54.734375 16.914062 54.621094 16.332031 C 54.5625 16.050781 54.273438 15.910156 53.523438 15.792969 C 52.960938 15.703125 52.351562 15.601562 52.164062 15.566406 C 51.980469 15.527344 52.636719 15.1875 53.625 14.8125 C 54.617188 14.433594 56.117188 13.71875 56.960938 13.214844 L 58.492188 12.304688 L 56.394531 12.253906 C 55.238281 12.21875 54.203125 12.136719 54.101562 12.0625 C 53.722656 11.789062 56.535156 9.828125 59.921875 8 C 61.8125 6.980469 63.359375 6.113281 63.359375 6.078125 C 63.359375 5.992188 61.777344 6.566406 59.015625 7.652344 C 57.820312 8.125 54.945312 9.234375 52.628906 10.121094 C 48.546875 11.671875 44.195312 13.511719 40.609375 15.195312 C 43.652344 13.761719 48.070312 11.859375 50.710938 10.851562 C 57.890625 8.105469 62.988281 6.113281 63.101562 6.011719 C 63.171875 5.949219 64.351562 5.5 65.722656 5.015625 C 66.164062 4.859375 66.582031 4.699219 66.945312 4.550781 L 67.09375 7.058594 C 67.257812 9.785156 66.625 14.605469 65.644531 18.078125 C 65.371094 19.042969 65.148438 20.113281 65.148438 20.457031 C 65.148438 20.792969 65.046875 21.152344 64.921875 21.246094 C 64.65625 21.449219 62.589844 24.8125 62.589844 25.039062 C 62.589844 25.070312 62.632812 25.136719 62.707031 25.226562 C 60.65625 23.273438 58.757812 21.304688 58.75 21.101562 C 58.746094 20.984375 57.652344 20.078125 56.25 19.019531 C 56.445312 19.027344 56.699219 18.878906 57.164062 18.515625 C 57.621094 18.160156 57.992188 17.746094 57.992188 17.59375 Z M 13.5625 8.78125 L 12.1875 9.007812 C 11.375 9.140625 10.660156 9.289062 10.597656 9.328125 C 10.539062 9.375 10.289062 9.9375 10.046875 10.582031 C 9.484375 12.085938 9.488281 15.125 10.058594 16.828125 C 10.523438 18.214844 10.582031 18.890625 10.253906 19.035156 C 10.132812 19.089844 9.128906 18.644531 8.023438 18.054688 C 6.914062 17.464844 5.96875 17.007812 5.925781 17.039062 C 5.878906 17.074219 6.195312 18.042969 6.628906 19.191406 C 7.347656 21.105469 7.425781 21.875 6.902344 21.875 C 6.792969 21.875 6.554688 21.746094 6.367188 21.585938 C 5.769531 21.074219 3.878906 20.230469 3.054688 20.113281 C 2.617188 20.050781 2.195312 19.894531 2.128906 19.765625 C 2.058594 19.636719 2.203125 18.886719 2.445312 18.105469 C 2.984375 16.386719 3.03125 14.09375 2.570312 11.394531 C 2.234375 9.429688 2.242188 9.355469 2.886719 7.65625 C 3.683594 5.558594 4.34375 3.105469 4.34375 2.238281 C 4.34375 2.171875 4.34375 2.113281 4.347656 2.058594 C 4.507812 2.652344 9.519531 6.226562 13.5625 8.78125 Z M 14.996094 31.839844 C 15.109375 31.703125 15.832031 31.203125 16.605469 30.722656 C 17.378906 30.246094 18.183594 29.699219 18.394531 29.515625 C 18.890625 29.082031 20.464844 28.621094 21.453125 28.621094 C 22.167969 28.621094 22.203125 28.648438 21.914062 28.984375 C 21.734375 29.183594 21.339844 29.347656 21.03125 29.347656 C 20.722656 29.347656 20.398438 29.429688 20.3125 29.53125 C 20.222656 29.632812 19.980469 29.714844 19.769531 29.714844 C 19.5625 29.714844 18.414062 30.246094 17.214844 30.898438 C 14.972656 32.121094 14.644531 32.257812 14.996094 31.839844 Z M 65.144531 42.335938 C 65.136719 41.03125 65.882812 38.464844 66.269531 38.464844 C 66.402344 38.464844 66.429688 39.113281 66.332031 39.96875 C 66.246094 40.792969 66.171875 41.941406 66.171875 42.519531 C 66.167969 43.445312 66.109375 43.566406 65.65625 43.566406 C 65.195312 43.566406 65.148438 43.445312 65.144531 42.335938 Z M 40.765625 22.714844 C 40.835938 22.621094 40.875 22.554688 40.875 22.535156 C 40.875 22.496094 40.042969 22.410156 39.023438 22.351562 C 38.679688 22.332031 38.363281 22.308594 38.070312 22.292969 C 38.121094 22.277344 38.171875 22.253906 38.214844 22.226562 C 38.421875 22.101562 40.1875 21.996094 42.71875 21.949219 C 47.136719 21.871094 47.410156 22.121094 43.164062 22.351562 L 40.976562 22.46875 Z M 59.886719 19.992188 L 60.605469 19.292969 L 59.109375 19.421875 C 58.285156 19.492188 57.511719 19.589844 57.394531 19.640625 C 57.277344 19.691406 57.558594 20.007812 58.019531 20.347656 C 58.484375 20.6875 58.929688 20.902344 59.015625 20.828125 C 59.101562 20.75 59.496094 20.375 59.886719 19.992188 Z M 59.195312 44.730469 C 59.097656 44.660156 59.015625 44.402344 59.015625 44.164062 C 59.015625 43.792969 59.125 43.734375 59.71875 43.78125 C 60.273438 43.828125 60.417969 43.9375 60.417969 44.296875 C 60.417969 44.617188 60.261719 44.769531 59.898438 44.804688 C 59.613281 44.835938 59.296875 44.800781 59.195312 44.730469 Z M 37.148438 22.234375 C 36.214844 22.171875 35.578125 22.117188 35.125 22.054688 C 35.203125 22.054688 35.285156 22.058594 35.375 22.058594 C 35.972656 22.058594 36.753906 22.136719 37.148438 22.234375 Z M 68.195312 3.914062 C 68.136719 4.050781 67.917969 4.230469 67.578125 4.339844 L 66.988281 4.53125 C 67.644531 4.257812 68.105469 4.023438 68.195312 3.914062 Z M 37.167969 16.289062 C 37.445312 16.4375 37.792969 16.507812 37.933594 16.449219 C 38.058594 16.398438 38.910156 16 39.917969 15.523438 C 39.90625 15.527344 39.890625 15.535156 39.875 15.542969 L 37.726562 16.570312 L 37.0625 16.238281 C 36.875 16.144531 36.597656 16.019531 36.261719 15.871094 C 36.667969 16.046875 36.984375 16.191406 37.167969 16.289062 Z M 25.203125 12.949219 C 22.375 12.789062 21.519531 12.679688 20.488281 12.324219 C 21.71875 12.703125 22.910156 12.820312 25.203125 12.949219 Z M 44.757812 18.242188 C 48.015625 17.539062 49.984375 17.132812 51.21875 16.929688 L 50.960938 16.976562 C 49.839844 17.175781 47.050781 17.75 44.757812 18.242188 Z M 63.371094 25.855469 C 63.925781 26.34375 64.390625 26.914062 64.734375 27.511719 C 64.410156 26.980469 63.960938 26.4375 63.371094 25.855469 Z M 17.152344 10.890625 C 16.292969 10.460938 15.5 10.011719 14.902344 9.609375 C 15.761719 10.132812 16.539062 10.574219 17.152344 10.890625 Z M 37.5 26.335938 C 38.023438 25.804688 38.746094 25.03125 39.382812 24.324219 C 38.699219 25.113281 38.070312 25.78125 37.5 26.335938 Z M 35.066406 28.121094 C 35.371094 27.996094 35.820312 27.722656 36.253906 27.410156 C 35.820312 27.734375 35.425781 27.96875 35.066406 28.121094 Z M 67.765625 3.71875 C 68.101562 3.644531 68.238281 3.730469 68.210938 3.863281 C 68.199219 3.714844 68.035156 3.660156 67.765625 3.71875 Z M 65.386719 29.433594 C 65.394531 29.535156 65.402344 29.636719 65.402344 29.734375 C 65.402344 30.445312 65.289062 31.277344 65.128906 31.925781 C 65.289062 31.277344 65.402344 30.445312 65.398438 29.734375 C 65.398438 29.632812 65.394531 29.535156 65.386719 29.433594 Z M 26.773438 18.59375 C 26.566406 18.597656 26.070312 18.851562 25.660156 19.160156 C 26.070312 18.847656 26.574219 18.59375 26.769531 18.59375 C 26.769531 18.59375 26.769531 18.59375 26.773438 18.59375 Z M 34 21.722656 C 33.949219 21.6875 33.902344 21.652344 33.851562 21.617188 C 33.925781 21.660156 33.976562 21.695312 34 21.722656 Z M 34 21.722656 "/>
<path style=" stroke:none;fill-rule:nonzero;fill:rgb(99.607843%,79.607844%,50.196081%);fill-opacity:1;" d="M 37.167969 16.289062 C 36.910156 16.152344 36.386719 15.921875 35.726562 15.644531 C 36.390625 15.894531 36.53125 15.878906 36.53125 15.707031 C 36.53125 15.402344 34.9375 11.769531 34.546875 11.179688 C 34.324219 10.847656 34.039062 10.574219 33.910156 10.574219 C 33.789062 10.574219 32.722656 11.160156 31.542969 11.875 L 29.394531 13.183594 L 30.984375 13.769531 C 31.675781 14.023438 32.777344 14.453125 33.695312 14.824219 C 31.929688 14.128906 30.09375 13.449219 29.636719 13.347656 C 29.140625 13.238281 27.148438 13.058594 25.203125 12.949219 C 21.328125 12.730469 20.605469 12.550781 17.5 11.0625 C 14.140625 9.453125 4.34375 2.730469 4.34375 2.035156 C 4.34375 1.699219 4.441406 1.628906 4.789062 1.726562 C 5.226562 1.84375 21.203125 7.871094 21.96875 8.207031 C 22.179688 8.300781 23.78125 8.921875 25.523438 9.59375 L 28.691406 10.8125 L 30.757812 10.335938 C 31.898438 10.074219 40.589844 8.5 50.074219 6.839844 C 59.554688 5.175781 67.519531 3.769531 67.765625 3.71875 C 68.042969 3.660156 68.210938 3.71875 68.210938 3.878906 C 68.210938 4.019531 67.101562 4.527344 65.722656 5.015625 C 64.351562 5.5 63.171875 5.949219 63.101562 6.011719 C 62.988281 6.113281 57.890625 8.105469 50.710938 10.851562 C 48 11.886719 43.410156 13.867188 40.363281 15.308594 C 39.167969 15.878906 38.078125 16.390625 37.933594 16.449219 C 37.792969 16.507812 37.445312 16.4375 37.167969 16.289062 Z M 33.96875 21.679688 C 34.058594 21.796875 34.191406 21.894531 34.359375 21.957031 C 34.191406 21.90625 34.082031 21.832031 34.007812 21.734375 C 33.734375 21.371094 27.332031 18.59375 26.769531 18.59375 C 26.617188 18.59375 26.292969 18.742188 25.964844 18.949219 C 26.621094 18.496094 27.082031 18.113281 27.082031 17.96875 C 27.082031 17.832031 26.710938 17.753906 25.839844 17.726562 C 26.65625 17.738281 27.320312 17.714844 27.464844 17.65625 C 27.902344 17.46875 31.277344 17.847656 33.507812 18.328125 C 35.96875 18.863281 37.394531 19.136719 38.828125 19.144531 C 38 19.164062 37.261719 19.105469 36.480469 18.972656 L 35.539062 18.816406 L 35.945312 19.261719 C 36.679688 20.0625 37.183594 20.136719 41.769531 20.148438 C 46.132812 20.160156 48.027344 20.367188 48.027344 20.839844 C 48.027344 20.964844 47.667969 21.289062 47.230469 21.566406 C 46.964844 21.730469 46.574219 21.878906 46.078125 22.003906 C 45.730469 21.941406 44.601562 21.917969 42.71875 21.949219 C 40.1875 21.996094 38.421875 22.101562 38.214844 22.226562 C 37.972656 22.371094 37.667969 22.375 37.1875 22.242188 C 36.808594 22.140625 35.992188 22.058594 35.375 22.058594 C 35.304688 22.058594 35.238281 22.058594 35.171875 22.054688 C 35.679688 22.042969 35.535156 21.976562 34.535156 21.613281 C 33.699219 21.308594 33.691406 21.3125 33.96875 21.679688 Z M 43.234375 43.386719 C 43.0625 43.1875 42.917969 42.988281 42.917969 42.941406 C 42.917969 42.78125 44.742188 42.496094 45.109375 42.597656 C 45.574219 42.722656 45.570312 42.84375 45.074219 43.34375 C 44.582031 43.847656 43.65625 43.867188 43.234375 43.386719 Z M 44.71875 22.25 C 43.921875 22.355469 43 22.414062 42.023438 22.417969 C 41.96875 22.417969 41.910156 22.417969 41.855469 22.421875 L 43.164062 22.351562 C 43.773438 22.316406 44.292969 22.285156 44.71875 22.25 Z M 41.480469 22.441406 C 41.066406 22.492188 40.820312 22.675781 40.226562 23.339844 L 40.976562 22.46875 Z M 19.023438 22.125 C 19.609375 21.957031 20.578125 21.621094 21.476562 21.277344 C 20.5 21.675781 19.589844 21.996094 19.023438 22.125 Z M 19.71875 19.457031 C 19.675781 19.816406 19.378906 20.472656 19.039062 20.953125 C 19.03125 20.964844 19.027344 20.972656 19.019531 20.984375 C 19.363281 20.460938 19.660156 19.808594 19.71875 19.457031 Z M 24.53125 19.851562 C 24.949219 19.609375 25.363281 19.355469 25.726562 19.109375 C 25.703125 19.128906 25.679688 19.144531 25.660156 19.160156 C 25.390625 19.363281 24.996094 19.601562 24.53125 19.851562 Z M 25.179688 17.710938 C 24.230469 17.695312 23.0625 17.613281 22.527344 17.527344 C 22.179688 17.472656 21.933594 17.441406 21.726562 17.453125 C 21.925781 17.441406 22.160156 17.46875 22.480469 17.519531 C 23.054688 17.613281 24.15625 17.683594 25.179688 17.710938 Z M 20.070312 18.613281 C 20.136719 18.707031 20.101562 18.777344 19.984375 18.777344 C 19.871094 18.777344 19.765625 19 19.730469 19.289062 C 19.757812 19 19.863281 18.777344 19.980469 18.777344 C 20.097656 18.777344 20.136719 18.707031 20.070312 18.613281 Z M 20.070312 18.613281 "/>
<path style=" stroke:none;fill-rule:nonzero;fill:rgb(98.823529%,65.490198%,23.137255%);fill-opacity:1;" d="M 47.648438 63.714844 C 46.113281 63.476562 43.6875 62.742188 43.6875 62.515625 C 43.6875 62.398438 48.109375 59.890625 52.371094 57.59375 C 56.949219 55.128906 61.6875 52.863281 62.503906 52.753906 C 63.585938 52.613281 64.253906 52.769531 63.882812 53.089844 C 63.738281 53.214844 63.160156 53.746094 62.597656 54.269531 C 61.566406 55.226562 60.332031 56.003906 56.441406 58.152344 C 54.1875 59.394531 49.816406 62.292969 49.816406 62.542969 C 49.816406 62.792969 52.605469 62.019531 54.902344 61.128906 C 56.109375 60.65625 58.128906 59.886719 59.390625 59.410156 L 61.679688 58.546875 L 62.710938 58.964844 C 63.277344 59.191406 64.539062 59.710938 65.507812 60.117188 L 67.28125 60.855469 L 66.148438 61.0625 C 63.941406 61.46875 58.085938 62.566406 55.820312 63 C 53.117188 63.515625 50.105469 63.980469 49.5625 63.964844 C 49.351562 63.960938 48.488281 63.847656 47.648438 63.714844 Z M 42.28125 38.976562 C 40.453125 37.675781 38.023438 36.035156 36.882812 35.335938 C 34.519531 33.886719 34.605469 34.039062 34.328125 30.59375 L 34.164062 28.503906 L 35.066406 28.121094 C 36.1875 27.648438 37.648438 26.347656 39.550781 24.125 C 40.992188 22.441406 41.011719 22.425781 42.023438 22.417969 C 44.394531 22.40625 46.414062 22.074219 47.230469 21.566406 C 47.667969 21.289062 48.027344 20.964844 48.027344 20.839844 C 48.027344 20.367188 46.132812 20.160156 41.769531 20.148438 C 37.183594 20.136719 36.679688 20.0625 35.945312 19.261719 L 35.539062 18.816406 L 36.480469 18.972656 C 38.628906 19.332031 40.464844 19.171875 44.757812 18.242188 C 47.050781 17.75 49.839844 17.175781 50.960938 16.976562 L 53 16.605469 L 55.871094 18.738281 C 57.453125 19.910156 58.746094 20.976562 58.75 21.101562 C 58.757812 21.316406 60.914062 23.539062 63.117188 25.613281 C 64.710938 27.109375 65.394531 28.347656 65.398438 29.734375 C 65.402344 31.0625 65.003906 32.828125 64.671875 32.984375 C 64.550781 33.039062 64.195312 33.648438 63.875 34.339844 L 63.296875 35.589844 L 62.863281 35.066406 C 62.625 34.777344 61.820312 33.804688 61.074219 32.902344 C 57.964844 29.140625 55.632812 26.902344 51.867188 24.0625 L 50.292969 22.878906 L 53.132812 26.84375 L 55.96875 30.808594 L 51.058594 30.808594 L 51.632812 31.398438 C 51.949219 31.726562 52.234375 32.019531 52.265625 32.050781 C 52.296875 32.082031 53.105469 31.941406 54.0625 31.738281 C 55.015625 31.535156 55.839844 31.398438 55.894531 31.433594 C 55.945312 31.472656 55.820312 31.734375 55.613281 32.023438 C 55.40625 32.304688 54.816406 33.457031 54.304688 34.578125 C 53.027344 37.371094 52.148438 38.253906 49 39.898438 C 47.585938 40.640625 46.242188 41.265625 46.015625 41.292969 C 45.777344 41.320312 44.210938 40.347656 42.28125 38.976562 Z M 51.082031 33.832031 C 51.566406 33.472656 52.164062 33.175781 52.40625 33.175781 C 53.074219 33.175781 53.222656 32.855469 52.613281 32.71875 C 52.324219 32.652344 51.316406 32.183594 50.378906 31.675781 C 49.4375 31.167969 48.285156 30.636719 47.816406 30.496094 C 47.152344 30.300781 47.027344 30.191406 47.246094 30 C 47.460938 29.816406 47.429688 29.726562 47.121094 29.644531 C 46.257812 29.40625 45.667969 29.554688 44.507812 30.308594 C 43.84375 30.734375 43.050781 31.234375 42.746094 31.417969 C 42.195312 31.75 42.191406 31.746094 42.335938 31.324219 C 42.59375 30.558594 44.082031 28.378906 45.429688 26.796875 C 46.632812 25.382812 46.707031 25.226562 46.308594 25.015625 C 45.640625 24.660156 43.28125 24.175781 42.824219 24.304688 C 42.597656 24.363281 41.980469 24.886719 41.453125 25.46875 C 40.511719 26.5 40.492188 26.5625 40.492188 28.253906 C 40.492188 30.546875 40.691406 31.113281 41.96875 32.480469 C 43.546875 34.175781 45.210938 35.101562 47.109375 35.347656 C 48.007812 35.460938 48.300781 35.410156 49.179688 34.984375 C 49.742188 34.710938 50.597656 34.191406 51.082031 33.832031 Z M 18.394531 22.050781 C 18.394531 21.949219 18.683594 21.453125 19.039062 20.953125 C 19.394531 20.449219 19.703125 19.757812 19.71875 19.410156 C 19.742188 19.0625 19.859375 18.777344 19.984375 18.777344 C 20.109375 18.777344 20.140625 18.695312 20.054688 18.59375 C 19.96875 18.492188 20.039062 18.410156 20.210938 18.410156 C 20.382812 18.410156 20.449219 18.359375 20.355469 18.292969 C 20.265625 18.226562 20.488281 17.992188 20.851562 17.769531 C 21.421875 17.421875 21.652344 17.386719 22.527344 17.527344 C 23.085938 17.617188 24.339844 17.699219 25.3125 17.714844 C 26.5625 17.730469 27.082031 17.804688 27.082031 17.96875 C 27.082031 18.28125 24.863281 19.765625 23.210938 20.558594 C 22.066406 21.109375 18.917969 22.238281 18.527344 22.238281 C 18.453125 22.238281 18.394531 22.15625 18.394531 22.050781 Z M 33.96875 21.679688 C 33.691406 21.3125 33.699219 21.308594 34.535156 21.613281 C 35.675781 22.027344 35.703125 22.058594 34.921875 22.058594 C 34.507812 22.058594 34.144531 21.914062 33.96875 21.679688 Z M 34.359375 15.097656 C 33.378906 14.6875 31.859375 14.089844 30.984375 13.769531 L 29.394531 13.183594 L 31.542969 11.875 C 32.722656 11.160156 33.789062 10.574219 33.910156 10.574219 C 34.039062 10.574219 34.324219 10.847656 34.546875 11.179688 C 34.9375 11.769531 36.53125 15.402344 36.53125 15.707031 C 36.53125 15.957031 36.226562 15.871094 34.359375 15.097656 Z M 34.359375 15.097656 "/>
</g>
</svg>
