<svg xmlns="http://www.w3.org/2000/svg" width="136" height="136" viewBox="0 0 136 136">
<g>
<path d="M 35.67 135.33 C35.30,134.97 35.00,131.97 35.00,128.67 C35.00,124.10 35.59,121.67 37.47,118.46 C38.83,116.13 40.63,113.97 41.47,113.65 C45.44,112.13 41.26,100.41 34.47,94.00 C29.16,88.99 27.05,83.82 27.02,75.75 C27.01,72.04 26.76,69.00 26.46,69.00 C26.17,69.00 24.81,69.73 23.44,70.63 C19.88,72.96 13.56,71.91 9.87,68.38 C6.80,65.44 4.73,59.66 5.13,55.19 C5.27,53.71 4.55,50.70 3.54,48.50 C2.54,46.30 1.49,41.24 1.22,37.25 L 0.74 30.00 L 9.47 30.00 C17.66,30.00 18.45,29.81 21.96,27.03 C27.50,22.64 30.05,22.00 41.82,22.02 L 52.50 22.04 L 59.38 32.52 C65.07,41.17 66.55,42.93 69.57,43.98 C66.63,43.25 66.57,43.59 68.25,45.50 C69.07,46.44 71.65,46.94 75.75,46.96 C82.07,47.00 83.09,46.27 81.11,43.14 C80.55,42.26 80.03,42.13 78.73,42.84 C80.48,41.66 81.08,40.40 81.53,37.63 C83.16,27.57 88.97,19.55 97.19,16.01 C101.58,14.12 103.70,13.84 110.63,14.20 C120.34,14.71 124.88,17.13 130.47,24.76 C137.05,33.77 137.48,46.14 131.53,55.13 C129.91,57.58 128.83,60.05 128.13,63.31 C128.20,62.96 128.27,62.57 128.36,62.13 C128.91,59.21 128.80,58.92 127.50,60.00 C125.95,61.29 125.50,64.17 126.67,65.33 C127.37,66.04 127.55,66.10 127.99,64.00 C127.30,67.59 127.04,72.14 127.02,78.59 L 127.00 89.67 L 131.48 96.59 C135.86,103.35 135.96,103.68 135.98,111.77 C136.00,119.46 135.72,120.61 131.98,128.04 L 127.96 136.03 L 102.73 135.77 L 77.50 135.50 L 77.20 129.67 C76.82,122.44 79.63,116.01 84.46,113.03 C88.44,110.57 89.47,107.62 87.46,104.50 C88.11,105.38 88.49,105.80 88.79,105.76 C89.18,105.71 89.46,104.91 90.05,103.36 C91.28,100.12 90.95,99.72 87.65,100.55 C85.13,101.19 85.10,101.26 86.77,103.56 C85.27,101.68 84.14,101.51 77.66,101.55 C73.49,101.57 69.73,101.94 69.31,102.36 C68.89,102.78 68.28,107.48 67.96,112.81 C67.46,121.01 66.87,123.54 64.09,129.25 L 60.81 136.00 L 48.57 136.00 C41.84,136.00 36.03,135.70 35.67,135.33 ZM 44.00 125.43 C44.00,126.68 45.22,127.00 49.98,127.00 C55.94,127.00 55.97,126.99 57.98,123.04 C59.70,119.67 60.00,117.15 60.00,106.04 L 60.00 93.00 L 72.57 93.00 C85.34,93.00 87.58,92.50 91.72,88.73 C93.89,86.76 93.97,86.75 94.62,88.60 C94.99,89.65 96.57,91.87 98.14,93.54 L 100.99 96.59 L 97.38 107.39 C94.15,117.03 93.45,118.30 90.85,119.20 C88.00,120.19 84.46,125.13 85.71,126.37 C86.05,126.72 88.96,127.00 92.17,127.00 L 98.01 127.00 L 103.74 115.50 C106.88,109.18 109.85,104.00 110.32,104.00 C110.79,104.00 112.93,105.24 115.07,106.75 C118.65,109.28 118.96,109.88 118.98,114.25 C119.00,118.05 118.66,119.00 117.31,119.00 C115.02,119.00 111.00,122.93 111.00,125.17 C111.00,126.74 111.86,127.00 116.96,127.00 L 122.92 127.00 L 125.46 122.66 C127.41,119.34 128.00,116.94 128.00,112.40 C128.00,107.04 127.57,105.84 123.50,99.77 L 119.00 93.06 L 119.00 81.10 C119.00,68.62 118.23,64.95 114.85,61.34 L 112.83 59.19 L 114.98 58.51 C117.98,57.55 123.82,52.25 125.55,48.90 C127.25,45.62 127.45,37.33 125.94,33.32 C123.38,26.54 116.38,22.00 108.49,22.00 C100.75,22.00 94.51,26.14 91.54,33.25 C88.99,39.35 89.51,44.66 92.99,48.14 C94.63,49.79 96.37,50.89 96.85,50.59 C97.33,50.29 97.96,46.87 98.23,42.98 C98.63,37.43 99.23,35.38 101.03,33.47 C105.64,28.56 114.62,29.44 117.55,35.09 C120.51,40.82 119.28,44.72 112.15,52.25 L 108.59 56.00 L 65.01 56.00 L 56.29 42.91 L 47.56 29.81 L 39.44 30.16 C31.75,30.48 31.07,30.70 26.74,34.25 C22.57,37.67 21.63,38.00 16.08,38.00 C10.06,38.00 10.00,38.03 10.00,40.85 C10.00,42.42 11.33,45.54 12.97,47.81 C14.65,50.11 15.52,52.18 14.97,52.52 C14.44,52.85 14.00,55.10 14.00,57.52 C14.00,60.91 14.46,62.18 16.00,63.00 C19.23,64.73 22.00,62.63 22.00,58.46 L 22.00 55.00 L 26.92 55.00 C30.46,55.00 32.45,54.95 33.57,55.91 C35.06,57.19 35.00,60.27 35.00,67.64 C35.00,80.73 35.99,84.03 41.30,88.69 C43.28,90.43 46.50,95.02 48.45,98.90 C51.35,104.67 52.00,107.06 52.00,112.03 C52.00,117.89 51.89,118.14 48.98,119.16 C45.90,120.23 44.00,122.62 44.00,125.43 ZM 34.81 38.67 C34.31,44.65 31.00,44.35 31.00,38.33 C31.00,35.63 31.39,35.00 33.06,35.00 C34.82,35.00 35.08,35.53 34.81,38.67 ZM 73.70 44.85 C74.88,44.83 75.92,44.42 77.52,43.56 C77.58,43.53 77.64,43.49 77.71,43.46 C77.65,43.50 77.59,43.53 77.53,43.57 C76.06,44.53 75.08,44.92 73.70,44.85 Z" fill="rgba(1,1,0,1)"/>
<path d="M 28.50 32.85 C27.83,33.36 27.08,33.99 26.18,34.75 C23.41,37.09 20.34,39.00 19.37,39.00 C18.39,39.00 16.12,40.43 14.32,42.18 L 11.33 45.07 C10.53,43.45 10.00,41.84 10.00,40.85 C10.00,38.03 10.06,38.00 16.08,38.00 C21.63,38.00 22.57,37.67 26.74,34.25 C27.40,33.71 27.97,33.25 28.50,32.85 ZM 13.63 48.77 C15.02,50.63 15.58,52.14 15.00,52.50 C14.45,52.84 14.00,55.10 14.00,57.52 C14.00,55.10 14.44,52.85 14.97,52.52 C15.44,52.23 14.87,50.66 13.63,48.77 Z" fill="rgba(113,103,76,1)"/>
<path d="M 68.25 45.50 C66.34,43.34 66.68,43.19 70.90,44.32 C73.47,45.00 74.70,45.07 76.22,44.33 L 73.50 45.99 L 77.75 46.00 C81.66,46.00 82.49,45.62 81.50,43.80 C82.91,46.38 81.61,47.00 75.75,46.96 C71.65,46.94 69.07,46.44 68.25,45.50 ZM 86.78 103.57 C85.10,101.26 85.12,101.19 87.65,100.55 C90.95,99.72 91.28,100.12 90.05,103.36 C89.46,104.91 89.18,105.71 88.79,105.76 C88.39,105.82 87.88,105.08 86.78,103.57 ZM 126.67 65.33 C125.50,64.17 125.95,61.29 127.50,60.00 C128.80,58.92 128.91,59.21 128.36,62.13 C127.60,66.09 127.54,66.21 126.67,65.33 ZM 77.92 43.32 C79.84,42.10 80.45,42.10 81.11,43.14 C81.14,43.20 81.18,43.25 81.21,43.30 C81.18,43.26 81.16,43.22 81.13,43.18 C80.55,42.26 79.84,42.25 77.92,43.32 Z" fill="rgba(215,205,161,1)"/>
<path d="M 97.57 92.91 C100.42,95.93 105.32,99.92 111.84,104.50 C112.61,105.04 113.30,105.52 113.91,105.96 C112.21,104.83 110.71,104.00 110.32,104.00 C109.85,104.00 106.88,109.18 103.74,115.50 L 98.01 127.00 L 92.17 127.00 C88.96,127.00 86.05,126.72 85.71,126.37 C84.46,125.13 88.00,120.19 90.85,119.20 C93.45,118.30 94.15,117.03 97.38,107.39 L 100.99 96.59 L 98.14 93.54 C97.95,93.34 97.76,93.12 97.57,92.91 ZM 49.21 51.75 C45.22,54.89 38.98,51.93 39.02,46.92 C39.04,43.87 44.86,34.45 45.99,35.63 C46.46,36.11 48.00,38.72 49.43,41.42 C52.15,46.58 52.09,49.49 49.21,51.75 ZM 13.84 49.05 C16.94,52.82 21.85,54.97 27.44,55.00 C27.27,55.00 27.10,55.00 26.92,55.00 L 22.00 55.00 L 22.00 58.46 C22.00,62.63 19.23,64.73 16.00,63.00 C14.46,62.18 14.00,60.91 14.00,57.52 C14.00,55.10 14.45,52.84 15.00,52.50 C15.55,52.16 15.08,50.78 13.84,49.05 ZM 91.87 88.59 L 93.94 86.71 L 94.87 89.16 C94.76,88.95 94.68,88.76 94.62,88.60 C93.98,86.80 93.89,86.76 91.87,88.59 ZM 14.25 42.25 C14.24,42.25 14.24,42.26 14.23,42.26 L 11.12 45.47 L 11.04 45.36 L 14.25 42.25 ZM 28.33 55.00 C30.99,55.00 32.58,55.05 33.54,55.86 C34.06,56.29 34.40,56.95 34.61,57.93 C34.40,56.99 34.07,56.35 33.57,55.91 C32.61,55.09 31.01,55.01 28.33,55.00 ZM 118.67 110.61 C118.97,111.52 118.98,112.60 118.98,114.25 C118.99,116.49 118.88,117.74 118.50,118.39 C118.88,117.74 118.99,116.49 118.98,114.25 C118.97,112.60 118.92,111.49 118.67,110.61 Z" fill="rgba(231,140,7,1)"/>
<path d="M 76.90 43.92 C79.61,42.27 80.46,42.12 81.13,43.18 C82.63,45.54 82.07,46.00 77.75,46.00 L 73.50 45.99 Z" fill="rgba(254,254,254,1)"/>
<path d="M 44.00 125.43 C44.00,122.62 45.90,120.23 48.98,119.16 C51.89,118.14 52.00,117.89 52.00,112.03 C52.00,107.06 51.35,104.67 48.45,98.90 C46.50,95.02 43.28,90.43 41.30,88.69 C35.99,84.03 35.00,80.73 35.00,67.64 C35.00,54.85 35.09,55.00 27.54,55.00 C21.78,55.00 16.73,52.74 13.63,48.78 L 11.07 45.52 L 14.23 42.26 C15.97,40.47 18.24,39.00 19.27,39.00 C20.30,39.00 23.41,37.09 26.18,34.75 C31.09,30.61 31.44,30.49 39.39,30.16 L 47.56 29.81 L 56.29 42.91 L 65.01 56.00 L 86.80 56.00 L 108.59 56.00 L 112.15 52.25 C119.28,44.72 120.51,40.82 117.55,35.09 C114.62,29.44 105.64,28.56 101.03,33.47 C99.23,35.38 98.63,37.43 98.23,42.98 C97.96,46.87 97.33,50.29 96.85,50.59 C96.37,50.89 94.63,49.79 92.99,48.14 C89.51,44.66 88.99,39.35 91.54,33.25 C94.51,26.14 100.75,22.00 108.49,22.00 C116.38,22.00 123.38,26.54 125.94,33.32 C127.45,37.33 127.25,45.62 125.55,48.90 C123.82,52.25 117.98,57.55 114.98,58.51 L 112.83 59.19 L 114.85 61.34 C118.23,64.95 119.00,68.62 119.00,81.10 L 119.00 93.06 L 123.50 99.77 C127.57,105.84 128.00,107.04 128.00,112.40 C128.00,116.94 127.41,119.34 125.46,122.66 L 122.92 127.00 L 116.96 127.00 C111.86,127.00 111.00,126.74 111.00,125.17 C111.00,122.93 115.02,119.00 117.31,119.00 C118.66,119.00 119.00,118.04 118.98,114.25 C118.97,109.50 118.97,109.50 111.84,104.50 C102.12,97.67 96.01,92.16 94.88,89.19 L 93.94 86.71 L 91.72 88.73 C87.58,92.50 85.34,93.00 72.57,93.00 L 60.00 93.00 L 60.00 106.04 C60.00,117.15 59.70,119.67 57.98,123.04 C55.97,126.99 55.94,127.00 49.98,127.00 C45.22,127.00 44.00,126.68 44.00,125.43 ZM 49.21 51.75 C52.09,49.49 52.15,46.58 49.43,41.42 C48.00,38.72 46.46,36.11 45.99,35.63 C44.86,34.45 39.04,43.87 39.02,46.92 C38.98,51.93 45.22,54.89 49.21,51.75 ZM 34.81 38.67 C35.08,35.53 34.82,35.00 33.06,35.00 C31.39,35.00 31.00,35.63 31.00,38.33 C31.00,44.35 34.31,44.65 34.81,38.67 Z" fill="rgba(254,213,120,1)"/>
</g>
</svg>